<svg width="80" height="80" viewBox="0 0 80 80" fill="none" xmlns="http://www.w3.org/2000/svg">
<path d="M53.8229 70.4967H26.1771C25.4613 70.4967 24.8812 71.0769 24.8812 71.7926C24.8812 72.5083 25.4613 73.0885 26.1771 73.0885H53.8229C54.5388 73.0885 55.1188 72.5083 55.1188 71.7926C55.1188 71.0769 54.5388 70.4967 53.8229 70.4967Z" fill="#FFFFF3"/>
<path d="M38.6177 64.9677C37.9018 64.9677 37.3218 65.5479 37.3218 66.2635C37.3218 66.9792 37.9018 67.5594 38.6177 67.5594H41.3823C42.0981 67.5594 42.6781 66.9792 42.6781 66.2635C42.6781 65.5479 42.0981 64.9677 41.3823 64.9677H38.6177Z" fill="#FFFFF3"/>
<path d="M46.9115 64.9677C46.1956 64.9677 45.6156 65.5479 45.6156 66.2635C45.6156 66.9792 46.1956 67.5594 46.9115 67.5594H49.6761C50.3919 67.5594 50.972 66.9792 50.972 66.2635C50.972 65.5479 50.3919 64.9677 49.6761 64.9677H46.9115Z" fill="#FFFFF3"/>
<path d="M59.2657 66.2635C59.2657 65.5479 58.6856 64.9677 57.9698 64.9677H55.2052C54.4893 64.9677 53.9093 65.5479 53.9093 66.2635C53.9093 66.9792 54.4893 67.5594 55.2052 67.5594H57.9698C58.6856 67.5594 59.2657 66.9792 59.2657 66.2635Z" fill="#FFFFF3"/>
<path d="M66.2635 64.9677H63.4989C62.783 64.9677 62.203 65.5479 62.203 66.2635C62.203 66.9792 62.783 67.5594 63.4989 67.5594H66.2635C66.9793 67.5594 67.5594 66.9792 67.5594 66.2635C67.5594 65.5479 66.9793 64.9677 66.2635 64.9677Z" fill="#FFFFF3"/>
<path d="M17.7969 66.2635C17.7969 65.5479 17.2169 64.9677 16.501 64.9677H13.7364C13.0206 64.9677 12.4406 65.5479 12.4406 66.2635C12.4406 66.9792 13.0206 67.5594 13.7364 67.5594H16.501C17.2169 67.5594 17.7969 66.9792 17.7969 66.2635Z" fill="#FFFFF3"/>
<path d="M26.0907 66.2635C26.0907 65.5479 25.5107 64.9677 24.7948 64.9677H22.0303C21.3144 64.9677 20.7344 65.5479 20.7344 66.2635C20.7344 66.9792 21.3144 67.5594 22.0303 67.5594H24.7948C25.5107 67.5594 26.0907 66.9792 26.0907 66.2635Z" fill="#FFFFF3"/>
<path d="M30.324 64.9677C29.6081 64.9677 29.0281 65.5479 29.0281 66.2635C29.0281 66.9792 29.6081 67.5594 30.324 67.5594H33.0885C33.8044 67.5594 34.3844 66.9792 34.3844 66.2635C34.3844 65.5479 33.8044 64.9677 33.0885 64.9677H30.324Z" fill="#FFFFF3"/>
<path d="M38.6177 56.5011H41.3823C42.0981 56.5011 42.6781 55.9209 42.6781 55.2052C42.6781 54.4895 42.0981 53.9093 41.3823 53.9093H38.6177C37.9018 53.9093 37.3218 54.4895 37.3218 55.2052C37.3218 55.9209 37.9018 56.5011 38.6177 56.5011Z" fill="#FFFFF3"/>
<path d="M46.9115 56.5011H49.6761C50.3919 56.5011 50.972 55.9209 50.972 55.2052C50.972 54.4895 50.3919 53.9093 49.6761 53.9093H46.9115C46.1956 53.9093 45.6156 54.4895 45.6156 55.2052C45.6156 55.9209 46.1956 56.5011 46.9115 56.5011Z" fill="#FFFFF3"/>
<path d="M55.2052 56.5011H57.9698C58.6856 56.5011 59.2657 55.9209 59.2657 55.2052C59.2657 54.4895 58.6856 53.9093 57.9698 53.9093H55.2052C54.4893 53.9093 53.9093 54.4895 53.9093 55.2052C53.9093 55.9209 54.4893 56.5011 55.2052 56.5011Z" fill="#FFFFF3"/>
<path d="M63.4989 56.5011H66.2635C66.9793 56.5011 67.5594 55.9209 67.5594 55.2052C67.5594 54.4895 66.9793 53.9093 66.2635 53.9093H63.4989C62.783 53.9093 62.203 54.4895 62.203 55.2052C62.203 55.9209 62.783 56.5011 63.4989 56.5011Z" fill="#FFFFF3"/>
<path d="M13.7364 56.5011H16.501C17.2169 56.5011 17.7969 55.9209 17.7969 55.2052C17.7969 54.4895 17.2169 53.9093 16.501 53.9093H13.7364C13.0206 53.9093 12.4406 54.4895 12.4406 55.2052C12.4406 55.9209 13.0206 56.5011 13.7364 56.5011Z" fill="#FFFFF3"/>
<path d="M22.0303 56.5011H24.7948C25.5107 56.5011 26.0907 55.9209 26.0907 55.2052C26.0907 54.4895 25.5107 53.9093 24.7948 53.9093H22.0303C21.3144 53.9093 20.7344 54.4895 20.7344 55.2052C20.7344 55.9209 21.3144 56.5011 22.0303 56.5011Z" fill="#FFFFF3"/>
<path d="M30.324 56.5011H33.0885C33.8044 56.5011 34.3844 55.9209 34.3844 55.2052C34.3844 54.4895 33.8044 53.9093 33.0885 53.9093H30.324C29.6081 53.9093 29.0281 54.4895 29.0281 55.2052C29.0281 55.9209 29.6081 56.5011 30.324 56.5011Z" fill="#FFFFF3"/>
<path d="M41.4688 60.7344C41.4688 61.4501 42.0488 62.0303 42.7646 62.0303H45.5292C46.2451 62.0303 46.8251 61.4501 46.8251 60.7344C46.8251 60.0187 46.2451 59.4385 45.5292 59.4385H42.7646C42.0488 59.4385 41.4688 60.0187 41.4688 60.7344Z" fill="#FFFFF3"/>
<path d="M49.7625 60.7344C49.7625 61.4501 50.3425 62.0303 51.0583 62.0303H53.8229C54.5388 62.0303 55.1188 61.4501 55.1188 60.7344C55.1188 60.0187 54.5388 59.4385 53.8229 59.4385H51.0583C50.3425 59.4385 49.7625 60.0187 49.7625 60.7344Z" fill="#FFFFF3"/>
<path d="M58.0562 60.7344C58.0562 61.4501 58.6362 62.0303 59.3521 62.0303H62.1166C62.8325 62.0303 63.4125 61.4501 63.4125 60.7344C63.4125 60.0187 62.8325 59.4385 62.1166 59.4385H59.3521C58.6362 59.4385 58.0562 60.0187 58.0562 60.7344Z" fill="#FFFFF3"/>
<path d="M16.5875 60.7344C16.5875 61.4501 17.1676 62.0303 17.8834 62.0303H20.648C21.3639 62.0303 21.9439 61.4501 21.9439 60.7344C21.9439 60.0187 21.3639 59.4385 20.648 59.4385H17.8834C17.1676 59.4385 16.5875 60.0187 16.5875 60.7344Z" fill="#FFFFF3"/>
<path d="M13.6501 60.7344C13.6501 60.0187 13.07 59.4385 12.3542 59.4385H9.5896C8.87374 59.4385 8.2937 60.0187 8.2937 60.7344C8.2937 61.4501 8.87374 62.0303 9.5896 62.0303H12.3542C13.07 62.0303 13.6501 61.4501 13.6501 60.7344Z" fill="#FFFFF3"/>
<path d="M70.4103 59.4385H67.6458C66.9299 59.4385 66.3499 60.0187 66.3499 60.7344C66.3499 61.4501 66.9299 62.0303 67.6458 62.0303H70.4103C71.1262 62.0303 71.7062 61.4501 71.7062 60.7344C71.7062 60.0187 71.1262 59.4385 70.4103 59.4385Z" fill="#FFFFF3"/>
<path d="M62.1166 70.4967H59.3521C58.6362 70.4967 58.0562 71.0769 58.0562 71.7926C58.0562 72.5083 58.6362 73.0885 59.3521 73.0885H62.1166C62.8325 73.0885 63.4125 72.5083 63.4125 71.7926C63.4125 71.0769 62.8325 70.4967 62.1166 70.4967Z" fill="#FFFFF3"/>
<path d="M20.648 70.4967H17.8834C17.1676 70.4967 16.5875 71.0769 16.5875 71.7926C16.5875 72.5083 17.1676 73.0885 17.8834 73.0885H20.648C21.3639 73.0885 21.9439 72.5083 21.9439 71.7926C21.9439 71.0769 21.3639 70.4967 20.648 70.4967Z" fill="#FFFFF3"/>
<path d="M24.8812 60.7344C24.8812 61.4501 25.4613 62.0303 26.1771 62.0303H28.9417C29.6576 62.0303 30.2376 61.4501 30.2376 60.7344C30.2376 60.0187 29.6576 59.4385 28.9417 59.4385H26.1771C25.4613 59.4385 24.8812 60.0187 24.8812 60.7344Z" fill="#FFFFF3"/>
<path d="M33.1749 60.7344C33.1749 61.4501 33.755 62.0303 34.4708 62.0303H37.2354C37.9513 62.0303 38.5313 61.4501 38.5313 60.7344C38.5313 60.0187 37.9513 59.4385 37.2354 59.4385H34.4708C33.755 59.4385 33.1749 60.0187 33.1749 60.7344Z" fill="#FFFFF3"/>
<path d="M74.5572 45.6156H67.5594V39.9136H69.3277C69.8699 41.5188 71.389 42.6782 73.1749 42.6782C75.4139 42.6782 77.2354 40.8567 77.2354 38.6177V33.0886C77.2354 30.8496 75.4139 29.0281 73.1749 29.0281C71.389 29.0281 69.8699 30.1875 69.3277 31.7927H63.4125V4.06048C63.4125 1.82151 61.591 0 59.3521 0H20.6479C18.409 0 16.5875 1.82151 16.5875 4.06048V31.7927H10.6723C10.1301 30.1875 8.61097 29.0281 6.82505 29.0281C4.58609 29.0281 2.76458 30.8496 2.76458 33.0886V38.6177C2.76458 40.8567 4.58609 42.6782 6.82505 42.6782C8.61097 42.6782 10.1301 41.5188 10.6723 39.9136H12.4406V45.6156H5.44276C2.44164 45.6156 0 48.0572 0 51.0583V74.5572C0 77.5584 2.44164 80 5.44276 80H74.5572C77.5584 80 80 77.5584 80 74.5572V51.0583C80 48.0572 77.5584 45.6156 74.5572 45.6156ZM10.8855 37.3218V34.3844H69.1145V37.3218H10.8855ZM53.7351 39.9136C53.2968 41.5625 52.0304 43.11 50.056 44.3665C47.3894 46.0632 43.8181 46.9978 40 46.9978C36.1819 46.9978 32.6106 46.0632 29.9442 44.3665C27.9698 43.11 26.7032 41.5627 26.2651 39.9136H53.7351ZM73.1749 31.6199C73.9848 31.6199 74.6436 32.2787 74.6436 33.0886V38.6177C74.6436 39.4276 73.9848 40.0864 73.1749 40.0864C72.3651 40.0864 71.7063 39.4276 71.7063 38.6177V33.0886C71.7063 32.2787 72.3651 31.6199 73.1749 31.6199ZM19.1793 4.06048C19.1793 3.25063 19.8381 2.59179 20.6479 2.59179H59.3521C60.1619 2.59179 60.8207 3.25063 60.8207 4.06048V31.7927H19.1793V4.06048ZM6.82505 40.0864C6.01521 40.0864 5.35637 39.4276 5.35637 38.6177V33.0886C5.35637 32.2787 6.01521 31.6199 6.82505 31.6199C7.6349 31.6199 8.29374 32.2787 8.29374 33.0886V38.6177C8.29374 39.4276 7.6349 40.0864 6.82505 40.0864ZM77.4082 74.5572C77.4082 76.1292 76.1294 77.4082 74.5572 77.4082H5.44276C3.87058 77.4082 2.59179 76.1292 2.59179 74.5572V51.0583C2.59179 49.4863 3.87058 48.2073 5.44276 48.2073H13.7365C14.4524 48.2073 15.0324 47.6271 15.0324 46.9114V39.9136H23.6104C24.0461 42.4551 25.7621 44.777 28.5527 46.5529C31.6299 48.5111 35.6952 49.5896 40 49.5896C44.3048 49.5896 48.3701 48.5111 51.4474 46.5529C54.2381 44.777 55.954 42.4551 56.3898 39.9136H64.9676V46.9114C64.9676 47.6271 65.5476 48.2073 66.2635 48.2073H74.5572C76.1294 48.2073 77.4082 49.4863 77.4082 51.0583V74.5572Z" fill="#FFFFF3"/>
<path d="M53.8229 24.8812H26.1771C25.4613 24.8812 24.8812 25.4614 24.8812 26.1771C24.8812 26.8928 25.4613 27.473 26.1771 27.473H53.8229C54.5388 27.473 55.1188 26.8928 55.1188 26.1771C55.1188 25.4614 54.5388 24.8812 53.8229 24.8812Z" fill="#FFFFF3"/>
<path d="M53.8229 17.9697H26.1771C25.4613 17.9697 24.8812 18.5499 24.8812 19.2656C24.8812 19.9813 25.4613 20.5615 26.1771 20.5615H53.8229C54.5388 20.5615 55.1188 19.9813 55.1188 19.2656C55.1188 18.5499 54.5388 17.9697 53.8229 17.9697Z" fill="#FFFFF3"/>
<path d="M53.8229 11.0583H26.1771C25.4613 11.0583 24.8812 11.6386 24.8812 12.3542C24.8812 13.0699 25.4613 13.6501 26.1771 13.6501H53.8229C54.5388 13.6501 55.1188 13.0699 55.1188 12.3542C55.1188 11.6386 54.5388 11.0583 53.8229 11.0583Z" fill="#FFFFF3"/>
</svg>
