<svg width="100" height="100" viewBox="0 0 100 100" fill="none" xmlns="http://www.w3.org/2000/svg">
<path d="M86.7188 17.1875C87.7548 17.1875 88.7483 16.7759 89.4809 16.0434C90.2135 15.3108 90.625 14.3173 90.625 13.2812V10.9375C90.625 9.2799 89.9665 7.69018 88.7944 6.51808C87.6223 5.34598 86.0326 4.6875 84.375 4.6875H70.3125V17.1875H86.7188Z" fill="#F0BCA1"/>
<path d="M70.3125 95.3125H17.1875V10.9375C17.1875 9.2799 17.846 7.69018 19.0181 6.51808C20.1902 5.34598 21.7799 4.6875 23.4375 4.6875H82.8125C81.1549 4.6875 79.5652 5.34598 78.3931 6.51808C77.221 7.69018 76.5625 9.2799 76.5625 10.9375V89.0625C76.5625 90.7201 75.904 92.3098 74.7319 93.4819C73.5598 94.654 71.9701 95.3125 70.3125 95.3125Z" fill="#FFD9B5"/>
<path d="M63.2812 82.8125C64.3173 82.8125 65.3108 83.224 66.0434 83.9566C66.776 84.6892 67.1875 85.6827 67.1875 86.7188V89.0625H59.375V82.8125H63.2812Z" fill="#F5C9AA"/>
<path d="M59.375 91.4062C59.375 92.4423 59.7865 93.4358 60.5191 94.1684C61.2517 94.901 62.2452 95.3125 63.2812 95.3125H8.59375C7.55775 95.3125 6.56418 94.901 5.83161 94.1684C5.09905 93.4358 4.6875 92.4423 4.6875 91.4062V86.7188C4.6875 85.6827 5.09905 84.6892 5.83161 83.9566C6.56418 83.224 7.55775 82.8125 8.59375 82.8125H63.2812C62.2452 82.8125 61.2517 83.224 60.5191 83.9566C59.7865 84.6892 59.375 85.6827 59.375 86.7188V91.4062Z" fill="#FFE3CD"/>
<path d="M76.5625 10.9375H82.8125V13.2812C82.8125 14.3173 83.224 15.3108 83.9566 16.0434C84.6892 16.7759 85.6827 17.1875 86.7188 17.1875H76.5625V10.9375Z" fill="#F5C9AA"/>
<path d="M48.4375 35.9375H42.1875L43.75 20.3125H46.875L48.4375 35.9375Z" fill="#BA8B5D"/>
<path d="M31.25 35.9375C29.593 35.9356 28.0044 35.2765 26.8327 34.1048C25.661 32.9331 25.0019 31.3445 25 29.6875V28.125C25 27.7106 25.1646 27.3132 25.4577 27.0202C25.7507 26.7271 26.1481 26.5625 26.5625 26.5625H35.9375C36.3519 26.5625 36.7493 26.7271 37.0423 27.0202C37.3354 27.3132 37.5 27.7106 37.5 28.125V29.6875C37.4981 31.3445 36.839 32.9331 35.6673 34.1048C34.4956 35.2765 32.907 35.9356 31.25 35.9375Z" fill="#FAB53F"/>
<path d="M59.375 35.9375C57.718 35.9356 56.1294 35.2765 54.9577 34.1048C53.786 32.9331 53.1269 31.3445 53.125 29.6875V28.125C53.125 27.7106 53.2896 27.3132 53.5827 27.0202C53.8757 26.7271 54.2731 26.5625 54.6875 26.5625H64.0625C64.4769 26.5625 64.8743 26.7271 65.1673 27.0202C65.4604 27.3132 65.625 27.7106 65.625 28.125V29.6875C65.6231 31.3445 64.964 32.9331 63.7923 34.1048C62.6206 35.2765 61.032 35.9356 59.375 35.9375Z" fill="#FAB53F"/>
<path d="M50 35.9375H40.625C38.8991 35.9375 37.5 37.3366 37.5 39.0625C37.5 40.7884 38.8991 42.1875 40.625 42.1875H50C51.7259 42.1875 53.125 40.7884 53.125 39.0625C53.125 37.3366 51.7259 35.9375 50 35.9375Z" fill="#9F764A"/>
<path d="M64.0625 17.1875C64.0625 16.3587 63.7333 15.5638 63.1472 14.9778C62.5612 14.3917 61.7663 14.0625 60.9375 14.0625H59.375C58.5542 13.2417 57.5799 12.5906 56.5075 12.1465C55.4351 11.7023 54.2857 11.4736 53.125 11.4736C51.9643 11.4736 50.8149 11.7023 49.7425 12.1465C48.6701 12.5906 47.6958 13.2417 46.875 14.0625H43.75C42.9292 13.2417 41.9549 12.5906 40.8825 12.1465C39.8101 11.7023 38.6607 11.4736 37.5 11.4736C36.3393 11.4736 35.1899 11.7023 34.1175 12.1465C33.0451 12.5906 32.0708 13.2417 31.25 14.0625H29.6875C28.8587 14.0625 28.0638 14.3917 27.4778 14.9778C26.8917 15.5638 26.5625 16.3587 26.5625 17.1875C26.5625 18.0163 26.8917 18.8111 27.4778 19.3972C28.0638 19.9832 28.8587 20.3125 29.6875 20.3125H31.25C32.0708 19.4917 33.0451 18.8406 34.1175 18.3965C35.1899 17.9523 36.3393 17.7236 37.5 17.7236C38.6607 17.7236 39.8101 17.9523 40.8825 18.3965C41.9549 18.8406 42.9292 19.4917 43.75 20.3125H46.875C47.6958 19.4917 48.6701 18.8406 49.7425 18.3965C50.8149 17.9523 51.9643 17.7236 53.125 17.7236C54.2857 17.7236 55.4351 17.9523 56.5075 18.3965C57.5799 18.8406 58.5542 19.4917 59.375 20.3125H60.9375C61.7663 20.3125 62.5612 19.9832 63.1472 19.3972C63.7333 18.8111 64.0625 18.0163 64.0625 17.1875Z" fill="#9F764A"/>
<path d="M95.3125 31.25L92.8867 36.1016L91.4883 38.8984L76.5625 68.75L68.75 76.5625L69.8457 68.8867L70.3125 65.625L85.2383 35.7715L86.6367 32.9766L89.0625 28.125L95.3125 31.25Z" fill="#529DDF"/>
<path d="M76.5625 68.75L74.2324 71.0801L69.8457 68.8867L70.3125 65.625L76.5625 68.75Z" fill="#4384C3"/>
<path d="M74.2324 71.0801L68.75 76.5625L69.8457 68.8867L74.2324 71.0801Z" fill="#68737F"/>
<path d="M96.0113 29.8525L89.7613 26.7275C89.5777 26.6357 89.3779 26.581 89.1733 26.5664C88.9686 26.5519 88.763 26.5778 88.5684 26.6427C88.3737 26.7076 88.1937 26.8102 88.0387 26.9446C87.8837 27.079 87.7567 27.2427 87.6649 27.4262L85.2387 32.2787L83.7211 31.5199C83.1022 31.2104 82.4265 31.0307 81.7356 30.9918C81.0447 30.9529 80.3532 31.0556 79.7034 31.2936C79.0537 31.5316 78.4594 31.8999 77.9571 32.3759C77.4548 32.8519 77.0551 33.4255 76.7825 34.0615L73.5637 41.572L76.4362 42.803L79.655 35.2924C79.7598 35.0478 79.9135 34.8272 80.1067 34.6442C80.2999 34.4611 80.5284 34.3195 80.7783 34.2279C81.0282 34.1364 81.2941 34.0969 81.5598 34.1118C81.8255 34.1268 82.0854 34.1959 82.3234 34.3149L83.8412 35.0738L68.9149 64.9263C68.8398 65.0765 68.7894 65.2378 68.7656 65.404L67.2031 76.3415C67.1567 76.6662 67.2137 76.9972 67.3659 77.2877C67.5181 77.5782 67.7579 77.8134 68.0512 77.9601C68.3445 78.1067 68.6766 78.1574 69.0003 78.1048C69.324 78.0523 69.623 77.8992 69.8549 77.6673L77.6674 69.8548C77.786 69.736 77.8848 69.5989 77.9599 69.4488L96.7099 31.9488C96.8017 31.7652 96.8564 31.5655 96.871 31.3608C96.8855 31.1561 96.8596 30.9506 96.7948 30.7559C96.7299 30.5613 96.6273 30.3813 96.4929 30.2263C96.3584 30.0713 96.1948 29.9443 96.0113 29.8525ZM75.2782 67.8245L70.9596 72.1431L71.8234 66.097L86.6362 36.4713L90.0911 38.1988L75.2782 67.8245ZM91.4886 35.4037L88.0338 33.6762L89.7613 30.2213L93.2161 31.9488L91.4886 35.4037Z" fill="black"/>
<path d="M18.75 10.9375C18.7514 9.69473 19.2457 8.50326 20.1245 7.62449C21.0033 6.74572 22.1947 6.25141 23.4375 6.25H76.5661C75.548 7.60051 74.9982 9.24623 75 10.9375V29.6875H78.125V10.9375C78.1264 9.69473 78.6207 8.50326 79.4995 7.62449C80.3783 6.74572 81.5697 6.25141 82.8125 6.25H84.375C85.6178 6.25142 86.8092 6.74574 87.688 7.62451C88.5668 8.50328 89.0611 9.69473 89.0625 10.9375V13.2812C89.0625 13.9029 88.8156 14.499 88.376 14.9385C87.9365 15.3781 87.3404 15.625 86.7188 15.625C86.0971 15.625 85.501 15.3781 85.0615 14.9385C84.6219 14.499 84.375 13.9029 84.375 13.2812V10.9375C84.375 10.5231 84.2104 10.1257 83.9174 9.83265C83.6243 9.53963 83.2269 9.375 82.8125 9.375H79.6875V12.5H81.25V13.2812C81.249 14.0921 81.4295 14.8929 81.7781 15.625H79.6875V18.75H86.7188C88.1687 18.7484 89.5587 18.1717 90.5839 17.1464C91.6092 16.1212 92.1859 14.7312 92.1875 13.2812V10.9375C92.1852 8.86622 91.3613 6.88045 89.8967 5.41583C88.4321 3.95121 86.4463 3.12735 84.375 3.125H23.4375C21.3662 3.12735 19.3804 3.95121 17.9158 5.41583C16.4512 6.88045 15.6274 8.86622 15.625 10.9375V78.125H18.75V10.9375Z" fill="black"/>
<path d="M75 89.0625C74.9986 90.3053 74.5043 91.4967 73.6255 92.3755C72.7467 93.2543 71.5553 93.7486 70.3125 93.75H63.2812C62.6599 93.7493 62.0641 93.5022 61.6247 93.0628C61.1853 92.6234 60.9382 92.0276 60.9375 91.4062V86.7188C60.9375 86.0971 61.1844 85.501 61.624 85.0615C62.0635 84.6219 62.6596 84.375 63.2812 84.375C63.9029 84.375 64.499 84.6219 64.9385 85.0615C65.3781 85.501 65.625 86.0971 65.625 86.7188V87.5H62.5V90.625H67.1875C67.6019 90.625 67.9993 90.4604 68.2924 90.1673C68.5854 89.8743 68.75 89.4769 68.75 89.0625V86.7188C68.7484 85.2688 68.1717 83.8788 67.1464 82.8536C66.1212 81.8283 64.7312 81.2516 63.2812 81.25H8.59375C7.14385 81.2516 5.75379 81.8283 4.72856 82.8536C3.70332 83.8788 3.12663 85.2688 3.125 86.7188V91.4062C3.12663 92.8562 3.70332 94.2462 4.72856 95.2714C5.75379 96.2967 7.14385 96.8734 8.59375 96.875H70.3125C72.3838 96.8726 74.3696 96.0488 75.8342 94.5842C77.2988 93.1196 78.1227 91.1338 78.125 89.0625V75H75V89.0625ZM58.3406 93.75H8.59375C7.97236 93.7493 7.37662 93.5022 6.93724 93.0628C6.49785 92.6234 6.25069 92.0276 6.25 91.4062V86.7188C6.25069 86.0974 6.49785 85.5016 6.93724 85.0622C7.37662 84.6228 7.97236 84.3757 8.59375 84.375H58.3406C57.992 85.1071 57.8115 85.9079 57.8125 86.7188V91.4062C57.8115 92.2171 57.992 93.0179 58.3406 93.75Z" fill="black"/>
<path d="M25 29.6875C25 31.3451 25.6585 32.9348 26.8306 34.1069C28.0027 35.279 29.5924 35.9375 31.25 35.9375C32.9076 35.9375 34.4973 35.279 35.6694 34.1069C36.8415 32.9348 37.5 31.3451 37.5 29.6875V28.125C37.4999 27.8419 37.4225 27.5642 37.276 27.3219L37.2774 27.3211L33.2701 20.6422C34.5721 19.7119 36.1445 19.2367 37.7438 19.2902C39.3432 19.3437 40.8803 19.9229 42.1172 20.9381L40.7735 34.375H40.625C39.3818 34.375 38.1895 34.8689 37.3104 35.7479C36.4314 36.627 35.9375 37.8193 35.9375 39.0625C35.9375 40.3057 36.4314 41.498 37.3104 42.3771C38.1895 43.2561 39.3818 43.75 40.625 43.75H50C51.2432 43.75 52.4355 43.2561 53.3146 42.3771C54.1936 41.498 54.6875 40.3057 54.6875 39.0625C54.6875 37.8193 54.1936 36.627 53.3146 35.7479C52.4355 34.8689 51.2432 34.375 50 34.375H49.8515L48.5078 20.9381C49.7447 19.9229 51.2818 19.3437 52.8812 19.2902C54.4805 19.2367 56.0529 19.7119 57.3549 20.6422L53.3476 27.3211L53.349 27.3219C53.2025 27.5642 53.1251 27.8419 53.125 28.125V29.6875C53.125 31.3451 53.7835 32.9348 54.9556 34.1069C56.1277 35.279 57.7174 35.9375 59.375 35.9375C61.0326 35.9375 62.6223 35.279 63.7944 34.1069C64.9665 32.9348 65.625 31.3451 65.625 29.6875V28.125C65.6249 27.8419 65.5475 27.5642 65.401 27.3219L65.4024 27.3211L62.0536 21.7397C63.1665 21.4669 64.1409 20.7959 64.7927 19.8535C65.4445 18.9112 65.7286 17.7627 65.5912 16.6251C65.4538 15.4875 64.9044 14.4397 64.047 13.6797C63.1895 12.9196 62.0833 12.4999 60.9375 12.5H59.9926C58.1968 10.9216 55.912 10.01 53.5229 9.91874C51.1337 9.82744 48.7861 10.562 46.875 11.9987V9.375H43.75V11.9987C41.8389 10.562 39.4913 9.82744 37.1021 9.91874C34.713 10.01 32.4282 10.9216 30.6324 12.5H29.6875C28.5417 12.4999 27.4355 12.9196 26.578 13.6796C25.7206 14.4397 25.1712 15.4875 25.0338 16.6251C24.8964 17.7627 25.1805 18.9112 25.8323 19.8535C26.4841 20.7959 27.4585 21.4669 28.5714 21.7397L25.2226 27.3211L25.224 27.3219C25.0775 27.5642 25.0001 27.8419 25 28.125V29.6875ZM31.25 32.8125C30.4215 32.8116 29.6272 32.482 29.0413 31.8962C28.4555 31.3103 28.126 30.516 28.125 29.6875H34.375C34.3741 30.516 34.0445 31.3103 33.4587 31.8962C32.8728 32.482 32.0785 32.8116 31.25 32.8125ZM33.1778 26.5625H29.3222L31.25 23.3495L33.1778 26.5625ZM51.5625 39.0625C51.562 39.4768 51.3973 39.8739 51.1043 40.1668C50.8114 40.4598 50.4143 40.6245 50 40.625H40.625C40.2106 40.625 39.8132 40.4604 39.5201 40.1674C39.2271 39.8743 39.0625 39.4769 39.0625 39.0625C39.0625 38.6481 39.2271 38.2507 39.5201 37.9576C39.8132 37.6646 40.2106 37.5 40.625 37.5H50C50.4143 37.5005 50.8114 37.6652 51.1043 37.9582C51.3973 38.2511 51.562 38.6482 51.5625 39.0625ZM43.914 34.375L45.164 21.875H45.461L46.711 34.375H43.914ZM61.3028 26.5625H57.4472L59.375 23.3495L61.3028 26.5625ZM59.375 32.8125C58.5465 32.8116 57.7522 32.482 57.1663 31.8962C56.5805 31.3103 56.2509 30.516 56.25 29.6875H62.5C62.4991 30.516 62.1695 31.3103 61.5837 31.8962C60.9978 32.482 60.2035 32.8116 59.375 32.8125ZM29.6875 15.625H31.25C31.6644 15.625 32.0619 15.4604 32.3549 15.1673C33.0306 14.4917 33.8327 13.9557 34.7155 13.59C35.5983 13.2244 36.5445 13.0362 37.5 13.0362C38.4555 13.0362 39.4017 13.2244 40.2845 13.59C41.1673 13.9557 41.9694 14.4917 42.6451 15.1673C42.9381 15.4604 43.3356 15.625 43.75 15.625H46.875C47.2894 15.625 47.6869 15.4604 47.9799 15.1673C48.6556 14.4917 49.4577 13.9557 50.3405 13.59C51.2233 13.2244 52.1695 13.0362 53.125 13.0362C54.0805 13.0362 55.0267 13.2244 55.9095 13.59C56.7923 13.9557 57.5944 14.4917 58.2701 15.1673C58.5631 15.4604 58.9606 15.625 59.375 15.625H60.9375C61.3519 15.625 61.7493 15.7896 62.0424 16.0826C62.3354 16.3757 62.5 16.7731 62.5 17.1875C62.5 17.6019 62.3354 17.9993 62.0424 18.2924C61.7493 18.5854 61.3519 18.75 60.9375 18.75H59.9926C58.0939 17.0814 55.6527 16.1612 53.125 16.1612C50.5973 16.1612 48.1561 17.0814 46.2574 18.75H44.3676C42.4689 17.0814 40.0277 16.1612 37.5 16.1612C34.9723 16.1612 32.5311 17.0814 30.6324 18.75H29.6875C29.2731 18.75 28.8757 18.5854 28.5827 18.2924C28.2896 17.9993 28.125 17.6019 28.125 17.1875C28.125 16.7731 28.2896 16.3757 28.5827 16.0826C28.8757 15.7896 29.2731 15.625 29.6875 15.625Z" fill="black"/>
<path d="M21.875 43.75H31.25V46.875H21.875V43.75Z" fill="black"/>
<path d="M21.875 50H34.375V53.125H21.875V50Z" fill="black"/>
<path d="M37.5 50H50V53.125H37.5V50Z" fill="black"/>
<path d="M53.125 50H71.875V53.125H53.125V50Z" fill="black"/>
<path d="M21.875 75H34.375V78.125H21.875V75Z" fill="black"/>
<path d="M37.5 75H56.25V78.125H37.5V75Z" fill="black"/>
<path d="M21.875 56.25H28.125V59.375H21.875V56.25Z" fill="black"/>
<path d="M31.25 56.25H46.875V59.375H31.25V56.25Z" fill="black"/>
<path d="M50 56.25H68.75V59.375H50V56.25Z" fill="black"/>
<path d="M21.875 68.75H28.125V71.875H21.875V68.75Z" fill="black"/>
<path d="M31.25 68.75H46.875V71.875H31.25V68.75Z" fill="black"/>
<path d="M50 68.75H64.0625V71.875H50V68.75Z" fill="black"/>
<path d="M21.875 62.5H48.4375V65.625H21.875V62.5Z" fill="black"/>
</svg>
