<svg width="80" height="80" viewBox="0 0 80 80" fill="none" xmlns="http://www.w3.org/2000/svg">
<path d="M75.9395 66.0924H74.4709V64.6237C74.4709 62.3847 72.6493 60.5632 70.4104 60.5632H56.5875C54.3485 60.5632 52.527 62.3847 52.527 64.6237V66.0924H51.0583C48.8194 66.0924 46.9979 67.9139 46.9979 70.1529V72.9174C46.9979 73.6331 47.5781 74.2133 48.2938 74.2133H78.7041C79.4198 74.2133 80 73.6331 80 72.9174V70.1529C80 67.9139 78.1785 66.0924 75.9395 66.0924ZM55.1188 64.6237C55.1188 63.8139 55.7776 63.155 56.5875 63.155H70.4104C71.2202 63.155 71.8791 63.8139 71.8791 64.6237V66.0924H55.1188V64.6237ZM77.4082 71.6216H49.5897V70.1529C49.5897 69.343 50.2485 68.6842 51.0583 68.6842H75.9395C76.7494 68.6842 77.4082 69.343 77.4082 70.1529V71.6216Z" fill="#FFFFF3"/>
<path d="M49.5898 38.1926L49.5286 38.2537C47.9454 39.837 47.9454 42.4129 49.5286 43.9959C50.2955 44.7628 51.3152 45.1852 52.3998 45.1852C53.4844 45.1852 54.504 44.7628 55.271 43.9959L63.0904 36.1767C63.8573 35.4098 64.2797 34.3901 64.2797 33.3055C64.2797 32.2209 63.8573 31.2011 63.0904 30.4343C62.3236 29.6675 61.3038 29.245 60.2193 29.245C59.1347 29.245 58.1149 29.6675 57.3481 30.4343L57.2871 30.4955L54.2813 27.4895C54.54 26.5839 54.3145 25.5679 53.6026 24.8561L45.2105 16.464C44.4987 15.7521 43.4827 15.5266 42.5771 15.7855L39.5711 12.7797L39.6321 12.7185C40.399 11.9517 40.8214 10.9319 40.8214 9.84734C40.8214 8.76276 40.399 7.74315 39.6321 6.97615C38.8653 6.20933 37.8455 5.78687 36.7609 5.78687C35.6764 5.78687 34.6566 6.20933 33.8898 6.97615L26.0705 14.7956C25.3037 15.5624 24.8812 16.5822 24.8812 17.6668C24.8812 18.7514 25.3037 19.7711 26.0705 20.538C26.862 21.3297 27.9019 21.7254 28.9417 21.7254C29.9815 21.7254 31.0213 21.3295 31.8129 20.538L31.874 20.4768L34.8791 23.4819C34.8111 23.7198 34.7743 23.9681 34.7743 24.2225C34.7743 24.938 35.0528 25.6104 35.5587 26.1162L35.906 26.4635L33.2193 29.1503C32.362 30.0077 31.973 31.1558 32.0442 32.2802L1.18929 63.1349C0.422462 63.9018 0 64.9214 0 66.0061C0 67.0909 0.422462 68.1105 1.18929 68.8773C1.95611 69.6441 2.9759 70.0666 4.06047 70.0666C5.14505 70.0666 6.16484 69.6441 6.93166 68.8773L37.7864 38.0225C37.8727 38.0279 37.9589 38.0348 38.0451 38.0348C39.0847 38.0348 40.1247 37.639 40.9163 36.8474L43.6031 34.1608L43.9504 34.5081C44.4563 35.014 45.1288 35.2927 45.8441 35.2927C46.0985 35.2927 46.3468 35.2559 46.5847 35.1878L49.5898 38.1926ZM60.2193 31.8375C60.5954 31.8375 60.9716 31.9807 61.2579 32.267C61.5352 32.5444 61.6881 32.9131 61.6881 33.3055C61.6881 33.6979 61.5354 34.0666 61.2579 34.3441L53.4384 42.1634C52.8657 42.7361 51.934 42.736 51.3614 42.1634C50.7888 41.5908 50.7888 40.6589 51.3614 40.0863L59.1808 32.2669C59.4671 31.9806 59.8431 31.8375 60.2193 31.8375ZM51.4225 36.36L48.6543 33.5918L52.6863 29.5598L55.4545 32.328L51.4225 36.36ZM27.9032 18.7052C27.3306 18.1326 27.3306 17.2008 27.9032 16.6282L35.7225 8.80872C35.9998 8.5314 36.3687 8.37848 36.7611 8.37848C37.1535 8.37848 37.5222 8.53123 37.7996 8.80872C38.3722 9.38134 38.3722 10.3132 37.7996 10.8858L29.9801 18.7052C29.4075 19.2777 28.4759 19.2777 27.9032 18.7052ZM37.7386 14.6121L40.5068 17.3803L36.4748 21.4123L33.7066 18.6441L37.7386 14.6121ZM5.09892 67.0446C4.8216 67.3219 4.45287 67.4748 4.06047 67.4748C3.66808 67.4748 3.29935 67.3221 3.02203 67.0446C2.74471 66.7672 2.59179 66.3985 2.59179 66.0061C2.59179 65.6137 2.74454 65.245 3.02203 64.9677L33.1611 34.8284C33.1812 34.8493 33.1984 34.872 33.2192 34.8927L35.1739 36.8474C35.1945 36.868 35.2171 36.8853 35.2382 36.9055L5.09892 67.0446ZM39.0837 35.0147C38.5111 35.5873 37.5794 35.5873 37.0066 35.0147L35.0519 33.06C34.4793 32.4873 34.4793 31.5555 35.0519 30.9829L37.7386 28.2961L41.7705 32.328L39.0837 35.0147ZM37.3911 24.2835C37.3849 24.2772 37.3659 24.2582 37.3659 24.2225C37.3659 24.1867 37.3849 24.1675 37.3911 24.1613L43.2556 18.2968C43.2726 18.28 43.2947 18.2715 43.3168 18.2715C43.3389 18.2715 43.361 18.28 43.378 18.2968L51.7698 26.6886C51.8035 26.7223 51.8035 26.7773 51.7698 26.811L45.9053 32.6755C45.8991 32.6817 45.8799 32.7007 45.8441 32.7007C45.8084 32.7007 45.7894 32.6817 45.783 32.6755L37.3911 24.2835Z" fill="#FFFFF3"/>
</svg>
