<svg width="80" height="80" viewBox="0 0 80 80" fill="none" xmlns="http://www.w3.org/2000/svg">
<g clip-path="url(#clip0)">
<path d="M79.9971 55.2593C79.9973 55.2411 79.9992 55.2233 79.9992 55.2052C79.9992 55.2012 79.9986 55.1972 79.9985 55.1931C79.9983 55.1637 79.9962 55.1343 79.994 55.1048C79.9929 55.0905 79.9923 55.0761 79.9907 55.0619C79.9879 55.0365 79.9834 55.0113 79.9791 54.9859C79.976 54.9678 79.9734 54.9495 79.9694 54.9315C79.9651 54.912 79.9596 54.8926 79.9544 54.8731C79.9482 54.8498 79.9423 54.8264 79.9349 54.8038C79.9301 54.7889 79.924 54.7741 79.9186 54.7592C79.909 54.7328 79.8991 54.7067 79.8877 54.6811C79.886 54.6772 79.8848 54.673 79.8829 54.6689L66.1763 24.514V20.5616H66.2627C67.7395 20.5616 68.9408 19.3602 68.9408 17.8834V17.6781C68.9408 16.3566 67.994 15.2448 66.6894 15.0341L44.0596 11.3823V9.06194C44.9186 8.09935 45.4419 6.83127 45.4419 5.44276C45.4419 2.44164 43.0003 0 39.9992 0C36.998 0 34.5564 2.44164 34.5564 5.44276C34.5564 6.83127 35.0798 8.09935 35.9387 9.06194V11.2563L13.2952 15.0303C11.9986 15.2465 11.0575 16.3575 11.0575 17.6721V17.8834C11.0575 19.3602 12.2589 20.5616 13.7357 20.5616H13.8221V24.514L0.115278 54.6689C0.113377 54.6728 0.112168 54.6772 0.11044 54.6811C0.0992089 54.7065 0.0893601 54.7328 0.0796841 54.759C0.0741549 54.7739 0.0682802 54.7888 0.0632694 54.8038C0.0558396 54.8264 0.0497921 54.8498 0.0437445 54.8731C0.0385609 54.8926 0.0330318 54.912 0.0287121 54.9315C0.0249108 54.9495 0.0221463 54.9678 0.0190361 54.9859C0.0147165 55.0113 0.010224 55.0365 0.00745944 55.0619C0.00590437 55.0761 0.00538601 55.0906 0.0041765 55.105C0.00193028 55.1343 2.9637e-05 55.1637 -0.000315935 55.1929C-0.000315935 55.1971 -0.00100708 55.201 -0.00100708 55.205C-0.00100708 55.2233 0.000893568 55.2411 0.00106635 55.2594C0.0017575 55.274 0.00158471 55.2886 0.00279422 55.3032C0.0836581 60.6334 6.69204 64.7948 15.118 64.7948C23.5439 64.7948 30.1523 60.6334 30.2329 55.3033C30.2342 55.2888 30.234 55.2741 30.2347 55.2594C30.2348 55.2413 30.2367 55.2235 30.2367 55.2054C30.2367 55.2014 30.2362 55.1974 30.2361 55.1933C30.2359 55.1639 30.2338 55.1345 30.2316 55.105C30.2305 55.0906 30.2298 55.0763 30.2283 55.0621C30.2255 55.0367 30.221 55.0115 30.2167 54.9861C30.2136 54.9679 30.211 54.9496 30.207 54.9317C30.2027 54.9121 30.1972 54.8928 30.192 54.8733C30.1858 54.8499 30.1799 54.8266 30.1725 54.804C30.1676 54.7891 30.1616 54.7743 30.1562 54.7594C30.1466 54.733 30.1367 54.7069 30.1253 54.6813C30.1236 54.6773 30.1224 54.6732 30.1205 54.669L16.4139 24.514V20.5616H35.9387V48.7162C35.1154 49.1736 34.5564 50.0515 34.5564 51.0583V70.1488L26.3473 72.7141C24.6431 73.2468 23.4981 74.8043 23.4981 76.5899V78.7041C23.4981 79.4198 24.0781 80 24.794 80H55.2043C55.9202 80 56.5002 79.4198 56.5002 78.7041V76.5897C56.5002 74.8041 55.3552 73.2467 53.651 72.714L45.4419 70.1488V51.0583C45.4419 50.0515 44.883 49.1736 44.0596 48.7162V20.5616H63.5845V24.514L49.8777 54.669C49.8758 54.673 49.8746 54.6773 49.8729 54.6813C49.8616 54.7067 49.8518 54.733 49.8421 54.7592C49.8366 54.7741 49.8307 54.7889 49.8257 54.804C49.8183 54.8266 49.8122 54.8499 49.8062 54.8733C49.801 54.8928 49.7954 54.9121 49.7911 54.9317C49.7873 54.9496 49.7846 54.9679 49.7815 54.9861C49.7771 55.0115 49.7726 55.0367 49.7699 55.0621C49.7683 55.0763 49.7678 55.0908 49.7666 55.1051C49.7643 55.1345 49.7624 55.1639 49.7621 55.1931C49.7621 55.1972 49.7614 55.2012 49.7614 55.2052C49.7614 55.2235 49.7633 55.2413 49.7635 55.2596C49.7642 55.2741 49.764 55.2888 49.7652 55.3033C49.8461 60.6334 56.4545 64.7948 64.8804 64.7948C73.3063 64.7948 79.9147 60.6334 79.9954 55.3033C79.9966 55.2886 79.9964 55.2739 79.9971 55.2593ZM15.118 27.9266L26.9282 53.9093H3.30768L15.118 27.9266ZM15.118 62.203C9.11744 62.203 3.94007 59.7007 2.81662 56.5011H27.4195C26.2958 59.7007 21.1185 62.203 15.118 62.203ZM42.8501 51.0583V69.8056H37.1482V51.0583C37.1482 51.0106 37.1871 50.9719 37.2346 50.9719H42.7637C42.8113 50.9719 42.8501 51.0106 42.8501 51.0583ZM38.5305 48.3801V10.6825C38.998 10.8138 39.4903 10.8855 39.9992 10.8855C40.508 10.8855 41.0003 10.8138 41.4678 10.6825V48.3801H38.5305ZM39.9992 2.59179C41.5712 2.59179 42.8501 3.87076 42.8501 5.44276C42.8501 7.01477 41.5712 8.29374 39.9992 8.29374C38.4272 8.29374 37.1482 7.01477 37.1482 5.44276C37.1482 3.87076 38.4272 2.59179 39.9992 2.59179ZM13.7357 17.9698C13.6882 17.9698 13.6493 17.9311 13.6493 17.8834V17.6721C13.6493 17.6295 13.6797 17.5938 13.7215 17.5869L35.9387 13.8841V17.9698H13.7357ZM53.9085 76.5897V77.4082H26.0899V76.5897C26.0899 75.9438 26.504 75.3804 27.1205 75.1879L36.0501 72.3974H43.9484L52.878 75.1879C53.4943 75.3806 53.9085 75.9438 53.9085 76.5897ZM44.0596 14.0078L66.2763 17.5929C66.3185 17.5997 66.3491 17.6356 66.3491 17.6783V17.8835C66.3491 17.9312 66.3102 17.9699 66.2627 17.9699H44.0596V14.0078ZM64.8804 27.9266L76.6907 53.9093H53.0701L64.8804 27.9266ZM64.8804 62.203C58.8799 62.203 53.7025 59.7007 52.579 56.5011H77.1819C76.0583 59.7007 70.8809 62.203 64.8804 62.203Z" fill="#FFFFF3"/>
</g>
<defs>
<clipPath id="clip0">
<rect width="80" height="80" fill="white"/>
</clipPath>
</defs>
</svg>
