<svg width="80" height="80" viewBox="0 0 80 80" fill="none" xmlns="http://www.w3.org/2000/svg">
<path d="M70.324 33.3882V4.06048C70.324 1.82151 68.5024 0 66.2635 0H13.7365C11.4975 0 9.67602 1.82151 9.67602 4.06048V33.3882C8.07083 33.9304 6.91144 35.4495 6.91144 37.2354V75.9395C6.91144 78.1785 8.73295 80 10.9719 80H69.0281C71.267 80 73.0885 78.1785 73.0885 75.9395V37.2354C73.0885 35.4495 71.9291 33.9304 70.324 33.3882ZM62.2593 33.1749L45.7923 20.6286L67.7251 3.91793C67.7294 3.96492 67.7322 4.01227 67.7322 4.06048V33.1749H62.2593ZM12.2678 4.06048C12.2678 4.01244 12.2704 3.96492 12.2751 3.91793L34.2066 20.6277L17.7382 33.1749H12.2678V4.06048ZM42.5657 19.8286C41.055 20.9795 38.9451 20.9795 37.4345 19.8286L14.8109 2.59179H65.1889L42.5657 19.8286ZM36.3684 22.239C37.4745 22.9337 38.7373 23.2819 40 23.2819C41.2624 23.2819 42.5246 22.9341 43.6304 22.2398L57.9829 33.1749H22.0148L36.3684 22.239ZM70.4967 75.9395C70.4967 76.7494 69.8379 77.4082 69.0281 77.4082H10.9719C10.1621 77.4082 9.50323 76.7494 9.50323 75.9395V37.2354C9.50323 36.4256 10.1621 35.7667 10.9719 35.7667H69.0281C69.8379 35.7667 70.4967 36.4256 70.4967 37.2354V75.9395Z" fill="#FFFFF3"/>
<path d="M17.8834 40.0864C15.6444 40.0864 13.8229 41.9079 13.8229 44.1469C13.8229 46.3859 15.6444 48.2074 17.8834 48.2074C20.1223 48.2074 21.9438 46.3859 21.9438 44.1469C21.9438 41.9079 20.1223 40.0864 17.8834 40.0864ZM17.8834 45.6156C17.0735 45.6156 16.4147 44.9568 16.4147 44.1469C16.4147 43.3371 17.0735 42.6782 17.8834 42.6782C18.6932 42.6782 19.352 43.3371 19.352 44.1469C19.352 44.9568 18.6932 45.6156 17.8834 45.6156Z" fill="#FFFFF3"/>
<path d="M64.8812 70.4968H53.8229C53.107 70.4968 52.527 71.077 52.527 71.7927C52.527 72.5083 53.107 73.0886 53.8229 73.0886H64.8812C65.597 73.0886 66.1771 72.5083 66.1771 71.7927C66.1771 71.077 65.597 70.4968 64.8812 70.4968Z" fill="#FFFFF3"/>
<path d="M64.8812 64.9676H41.3823C40.6664 64.9676 40.0864 65.5478 40.0864 66.2635C40.0864 66.9792 40.6664 67.5594 41.3823 67.5594H64.8812C65.597 67.5594 66.1771 66.9792 66.1771 66.2635C66.1771 65.5478 65.597 64.9676 64.8812 64.9676Z" fill="#FFFFF3"/>
<path d="M64.8812 59.4385H41.3823C40.6664 59.4385 40.0864 60.0187 40.0864 60.7344C40.0864 61.4501 40.6664 62.0303 41.3823 62.0303H64.8812C65.597 62.0303 66.1771 61.4501 66.1771 60.7344C66.1771 60.0187 65.597 59.4385 64.8812 59.4385Z" fill="#FFFFF3"/>
</svg>
