<svg width="100" height="100" viewBox="0 0 100 100" fill="none" xmlns="http://www.w3.org/2000/svg">
<path d="M31.25 57.8125C45.9201 57.8125 57.8125 45.9201 57.8125 31.25C57.8125 16.5799 45.9201 4.6875 31.25 4.6875C16.5799 4.6875 4.6875 16.5799 4.6875 31.25C4.6875 45.9201 16.5799 57.8125 31.25 57.8125Z" fill="#529DDF"/>
<path d="M31.25 53.125C43.3312 53.125 53.125 43.3312 53.125 31.25C53.125 19.1688 43.3312 9.375 31.25 9.375C19.1688 9.375 9.375 19.1688 9.375 31.25C9.375 43.3312 19.1688 53.125 31.25 53.125Z" fill="#D4E4F0"/>
<path d="M54.6875 70.3125L34.375 50L29.6875 54.6875L53.125 78.125L54.6875 70.3125Z" fill="#4F5761"/>
<path d="M28.1154 62.4972L32.8022 57.8104L40.6136 65.6218L35.9268 70.3086L28.1154 62.4972Z" fill="#68737F"/>
<path d="M26.5625 75H62.5V81.25H26.5625V75Z" fill="#68737F"/>
<path d="M53.125 68.75H64.0625V81.25H53.125V68.75Z" fill="#D4E4F0"/>
<path d="M42.1875 75H62.6348V81.25H42.1875V75Z" fill="#4F5761"/>
<path d="M25 87.5H93.75V95.3125H25V87.5Z" fill="#529DDF"/>
<path d="M95.3125 62.5C95.3126 65.3727 94.7469 68.2173 93.6476 70.8713C92.5484 73.5254 90.9371 75.9369 88.9058 77.9682C86.8744 79.9995 84.4629 81.6108 81.8089 82.7101C79.1548 83.8094 76.3102 84.3751 73.4375 84.375C72.9121 84.375 72.3906 84.3574 71.875 84.3183V76.4766C72.3939 76.5338 72.9155 76.5625 73.4375 76.5625C76.8941 76.5604 80.229 75.2855 82.8055 72.9812C85.3821 70.6769 87.0198 67.5045 87.4063 64.0695C87.7927 60.6346 86.9008 57.1776 84.9006 54.3584C82.9005 51.5392 79.9323 49.5552 76.5625 48.7851V40.8477C81.7689 41.5995 86.5301 44.2021 89.9736 48.1787C93.4172 52.1553 95.3126 57.2396 95.3125 62.5Z" fill="#D4E4F0"/>
<path d="M76.5625 87.5H60.9375L61.1973 84.375L62.5 68.75H75L76.3027 84.375L76.5625 87.5Z" fill="#529DDF"/>
<path d="M53.125 76.5625C54.8509 76.5625 56.25 75.1634 56.25 73.4375C56.25 71.7116 54.8509 70.3125 53.125 70.3125C51.3991 70.3125 50 71.7116 50 73.4375C50 75.1634 51.3991 76.5625 53.125 76.5625Z" fill="#68737F"/>
<path d="M81.25 50C81.2504 50.2559 81.2288 50.5114 81.1855 50.7637C79.7768 49.8302 78.2104 49.1598 76.5625 48.7852V45.3125C77.8052 45.3141 78.9965 45.8085 79.8752 46.6873C80.754 47.566 81.2483 48.7573 81.25 50Z" fill="#C1D7E6"/>
<path d="M82.8125 25L78.8105 31.668L78.125 32.8125L74.1875 31.7187L68.75 30.209L75 20.3125L82.8125 25Z" fill="#68737F"/>
<path d="M82.4962 42.584L79.4883 46.3418L76.5626 50L72.8145 47.1875L67.6172 43.291L70.3145 37.6758L71.9239 34.3262L81.2598 41.6191L82.4962 42.584Z" fill="#68737F"/>
<path d="M78.8106 31.668L78.125 32.8125L74.1876 31.7187C75.6655 31.1118 77.3197 31.0936 78.8106 31.668Z" fill="#4F5761"/>
<path d="M78.125 32.8125L72.2598 42.0293L67.1875 50L57.8125 42.1875L67.1875 26.5625L75.5391 31.334L78.125 32.8125Z" fill="#529DDF"/>
<path d="M48.4375 42.1875L45.3125 48.4375L48.4375 51.5625L54.6875 46.875L48.4375 42.1875Z" fill="#68737F"/>
<path d="M57.8125 48.4375L51.5625 54.6875L56.25 59.375L64.0625 53.125L57.8125 48.4375Z" fill="#68737F"/>
<path d="M48.4375 42.1875H57.8125L67.1875 50V57.8125L48.4375 42.1875Z" fill="#4F5761"/>
<path d="M79.4883 46.3418L76.5625 50L72.8145 47.1875C73.1907 46.6851 73.6641 46.2634 74.2065 45.9477C74.749 45.6319 75.3494 45.4285 75.9721 45.3496C76.5948 45.2707 77.227 45.3179 77.8311 45.4883C78.4351 45.6588 78.9987 45.949 79.4883 46.3418Z" fill="#4F5761"/>
<path d="M76.5625 53.125C78.2884 53.125 79.6875 51.7259 79.6875 50C79.6875 48.2741 78.2884 46.875 76.5625 46.875C74.8366 46.875 73.4375 48.2741 73.4375 50C73.4375 51.7259 74.8366 53.125 76.5625 53.125Z" fill="#68737F"/>
<path d="M81.2598 41.6191C80.4321 42.5639 79.3389 43.2373 78.1228 43.5514C76.9067 43.8656 75.6241 43.8059 74.4424 43.3801C73.2607 42.9544 72.2347 42.1824 71.4984 41.1648C70.762 40.1472 70.3495 38.9313 70.3145 37.6758L71.9239 34.3262L81.2598 41.6191Z" fill="#4F5761"/>
<path d="M78.1251 32.8125L72.2598 42.0293C71.4166 41.2293 70.8134 40.2098 70.5179 39.0857C70.2223 37.9616 70.2463 36.7773 70.587 35.666C70.9277 34.5547 71.5717 33.5605 72.4466 32.7953C73.3214 32.03 74.3924 31.5239 75.5391 31.334L78.1251 32.8125Z" fill="#4384C3"/>
<path d="M76.5625 42.1875C79.1513 42.1875 81.25 40.0888 81.25 37.5C81.25 34.9112 79.1513 32.8125 76.5625 32.8125C73.9737 32.8125 71.875 34.9112 71.875 37.5C71.875 40.0888 73.9737 42.1875 76.5625 42.1875Z" fill="#68737F"/>
<path d="M76.5625 87.5H60.9375L61.1973 84.375H76.3027L76.5625 87.5Z" fill="#4384C3"/>
<path d="M93.75 85.9375H78L77.9629 85.4981C82.8182 84.542 87.2464 82.0739 90.6132 78.4473C93.9801 74.8206 96.1128 70.2215 96.706 65.3086C97.2992 60.3957 96.3223 55.4211 93.9154 51.0974C91.5084 46.7736 87.7949 43.3225 83.3066 41.2383L82.1211 40.3496C82.8079 39.0153 82.9905 37.4781 82.6353 36.0201C82.2802 34.562 81.411 33.281 80.1875 32.4121L84.1523 25.8047C84.3652 25.4492 84.4284 25.0239 84.3281 24.6218C84.2277 24.2198 83.9721 23.874 83.6172 23.6602L75.8047 18.9727C75.4493 18.7594 75.0238 18.6959 74.6216 18.7963C74.2195 18.8966 73.8737 19.1525 73.6602 19.5078L69.6601 26.1758L67.9629 25.2051C67.608 25.0024 67.1879 24.9467 66.7925 25.05C66.3972 25.1534 66.058 25.4074 65.8477 25.7578L56.9277 40.625H48.4375C48.1476 40.6253 47.8635 40.7064 47.6172 40.8593C47.3708 41.0121 47.172 41.2306 47.043 41.4902L47.0391 41.4883L43.9141 47.7383C43.7677 48.0319 43.7173 48.364 43.7698 48.6878C43.8224 49.0116 43.9753 49.3108 44.207 49.543L47.332 52.668C47.5983 52.9337 47.9514 53.0946 48.3266 53.1211C48.7018 53.1477 49.074 53.0381 49.375 52.8125L54.3067 49.1133L54.6465 49.3945L50.457 53.582C50.1644 53.8755 50 54.2731 50 54.6875C50 55.102 50.1644 55.4996 50.457 55.793L55.1445 60.4805C55.4169 60.7521 55.7796 60.9139 56.1636 60.9351C56.5476 60.9564 56.9259 60.8356 57.2266 60.5957L62.7656 56.1621L66.1875 59.0137C66.4681 59.2477 66.8221 59.3756 67.1875 59.375C67.3928 59.3753 67.5961 59.3351 67.7858 59.2566C67.9754 59.1782 68.1478 59.0631 68.2929 58.918C68.4381 58.7728 68.5532 58.6005 68.6316 58.4108C68.71 58.2211 68.7503 58.0178 68.75 57.8125V50.4551L70.6289 47.502L72.0898 48.5977C71.7426 49.7042 71.8179 50.9002 72.3013 51.9544C72.7846 53.0086 73.6417 53.8461 74.7068 54.305C75.7718 54.764 76.9692 54.8117 78.0674 54.4389C79.1656 54.0662 80.0866 53.2995 80.6523 52.2871C82.5646 53.6397 84.0587 55.5021 84.9643 57.6622C85.87 59.8223 86.1508 62.1933 85.7748 64.5052C85.3989 66.8172 84.3812 68.977 82.8378 70.7389C81.2944 72.5008 79.2872 73.7938 77.0449 74.4707L76.5566 68.6211C76.5245 68.2304 76.3466 67.866 76.0582 67.6004C75.7698 67.3348 75.392 67.1874 75 67.1875H53.7715L35.4805 48.8945C35.187 48.6019 34.7895 48.4375 34.375 48.4375C33.9606 48.4375 33.563 48.6019 33.2695 48.8945L28.582 53.582C28.2894 53.8755 28.125 54.2731 28.125 54.6875C28.125 55.102 28.2894 55.4996 28.582 55.793L30.6035 57.8125L27.0195 61.3945C26.7269 61.688 26.5625 62.0856 26.5625 62.5C26.5625 62.9145 26.7269 63.3121 27.0195 63.6055L34.832 71.418C35.1255 71.7107 35.523 71.875 35.9375 71.875C36.3519 71.875 36.7495 71.7107 37.043 71.418L40.625 67.834L46.2285 73.4375H26.5625C26.3573 73.4375 26.1541 73.4779 25.9645 73.5564C25.7749 73.6349 25.6026 73.75 25.4575 73.8951C25.3124 74.0402 25.1973 74.2124 25.1188 74.402C25.0403 74.5916 24.9999 74.7948 25 75V81.25C24.9999 81.4552 25.0403 81.6584 25.1188 81.848C25.1973 82.0376 25.3124 82.2099 25.4575 82.355C25.6026 82.5001 25.7749 82.6152 25.9645 82.6937C26.1541 82.7722 26.3573 82.8126 26.5625 82.8125H59.7598L59.5 85.9375H25C24.7948 85.9375 24.5916 85.9779 24.402 86.0564C24.2124 86.1349 24.0401 86.25 23.895 86.3951C23.7499 86.5402 23.6348 86.7124 23.5563 86.902C23.4778 87.0916 23.4374 87.2948 23.4375 87.5V95.3125C23.4374 95.5177 23.4778 95.7209 23.5563 95.9105C23.6348 96.1001 23.7499 96.2724 23.895 96.4175C24.0401 96.5626 24.2124 96.6777 24.402 96.7562C24.5916 96.8347 24.7948 96.8751 25 96.875H93.75C93.9552 96.8751 94.1584 96.8347 94.348 96.7562C94.5376 96.6777 94.7099 96.5626 94.855 96.4175C95.0001 96.2724 95.1152 96.1001 95.1937 95.9105C95.2722 95.7209 95.3126 95.5177 95.3125 95.3125V87.5C95.3126 87.2948 95.2722 87.0916 95.1937 86.902C95.1152 86.7124 95.0001 86.5402 94.855 86.3951C94.7099 86.25 94.5376 86.1349 94.348 86.0564C94.1584 85.9779 93.9552 85.9375 93.75 85.9375ZM75.5352 22.4571L80.668 25.5352L77.5722 30.6973L72.3731 27.7266L75.5352 22.4571ZM79.6875 37.5C79.6875 38.1181 79.5042 38.7223 79.1608 39.2362C78.8175 39.7501 78.3294 40.1506 77.7584 40.3871C77.1874 40.6237 76.559 40.6856 75.9528 40.565C75.3466 40.4444 74.7898 40.1468 74.3528 39.7097C73.9157 39.2727 73.6181 38.7159 73.4975 38.1097C73.377 37.5035 73.4389 36.8752 73.6754 36.3041C73.9119 35.7331 74.3124 35.2451 74.8263 34.9017C75.3402 34.5583 75.9444 34.375 76.5625 34.375C77.391 34.3761 78.1852 34.7057 78.771 35.2915C79.3568 35.8773 79.6864 36.6716 79.6875 37.5ZM48.584 49.5L47.2129 48.1289L48.9531 44.6504L51.8398 47.0567L48.584 49.5ZM56.3652 57.2812L53.7715 54.6875L57.0566 51.4043L60.3164 54.1211L56.3652 57.2812ZM65.625 54.4766L52.7539 43.75H57.2461L65.625 50.7324V54.4766ZM70.3125 37.5C70.3114 38.6461 70.6271 39.7701 71.2246 40.748L66.8223 47.6621L59.8418 41.8438L67.7402 28.6778L73.5742 32.0117C72.5879 32.5495 71.7646 33.3428 71.1907 34.3085C70.6167 35.2742 70.3134 36.3766 70.3125 37.5ZM76.5625 51.5625C76.2535 51.5625 75.9514 51.4709 75.6944 51.2992C75.4375 51.1275 75.2372 50.8835 75.1189 50.598C75.0007 50.3125 74.9697 49.9983 75.03 49.6952C75.0903 49.3921 75.2391 49.1137 75.4576 48.8952C75.6762 48.6767 75.9546 48.5278 76.2577 48.4675C76.5608 48.4073 76.8749 48.4382 77.1604 48.5565C77.4459 48.6747 77.69 48.875 77.8617 49.1319C78.0334 49.3889 78.125 49.691 78.125 50C78.1245 50.4143 77.9597 50.8114 77.6667 51.1043C77.3738 51.3972 76.9767 51.562 76.5625 51.5625ZM78.1035 45.5742C77.4204 45.3354 76.6912 45.2586 75.9733 45.3498C75.2554 45.4409 74.5685 45.6976 73.9668 46.0996L72.3125 44.8594L73.5215 42.957C74.526 43.5188 75.6665 43.7915 76.8165 43.7449C77.9665 43.6984 79.0812 43.3344 80.0371 42.6933L80.2695 42.8672L78.1035 45.5742ZM85.2715 72.7032C86.7813 70.9518 87.8836 68.8872 88.499 66.6583C89.1143 64.4294 89.2274 62.0917 88.83 59.8137C88.4326 57.5358 87.5346 55.3745 86.2009 53.4856C84.8671 51.5967 83.1308 50.0273 81.1172 48.8907C80.9988 48.4088 80.805 47.9487 80.543 47.5273L82.9316 44.5411C86.6178 46.4894 89.6151 49.525 91.5165 53.2355C93.418 56.9461 94.1316 61.1519 93.5604 65.2819C92.9892 69.412 91.1609 73.2663 88.3237 76.3214C85.4864 79.3766 81.7778 81.4847 77.7012 82.3594L77.3086 77.6387C80.4048 76.8457 83.1838 75.1233 85.2715 72.7032ZM63.9375 70.3125H73.5625L74.8652 85.9375H62.6348L63.9375 70.3125ZM60.8027 70.3125L60.541 73.4375H57.8125C57.811 72.2845 57.3856 71.1723 56.6172 70.3125H60.8027ZM53.125 71.875C53.434 71.875 53.7361 71.9667 53.9931 72.1384C54.25 72.31 54.4503 72.5541 54.5686 72.8396C54.6868 73.1251 54.7178 73.4393 54.6575 73.7424C54.5972 74.0455 54.4484 74.3239 54.2299 74.5424C54.0113 74.7609 53.7329 74.9097 53.4298 74.97C53.1267 75.0303 52.8126 74.9993 52.5271 74.8811C52.2415 74.7628 51.9975 74.5626 51.8258 74.3056C51.6541 74.0487 51.5625 73.7466 51.5625 73.4375C51.5624 73.2323 51.6028 73.0291 51.6813 72.8395C51.7598 72.6499 51.8749 72.4777 52.02 72.3326C52.1651 72.1875 52.3374 72.0724 52.527 71.9939C52.7166 71.9154 52.9198 71.875 53.125 71.875ZM35.9375 68.1035L30.334 62.5L32.8125 60.0215L38.416 65.625L35.9375 68.1035ZM41.7305 64.5215V64.5195L33.918 56.707H33.916L31.8965 54.6875L34.375 52.209L51.2891 69.125C50.1759 69.6015 49.289 70.4884 48.8125 71.6016L41.7305 64.5215ZM40.625 79.6875H28.125V76.5625H40.625V79.6875ZM43.75 79.6875V76.5625H49.6328C50.0722 77.0541 50.6103 77.4473 51.2121 77.7166C51.8139 77.9858 52.4657 78.125 53.125 78.125C53.7843 78.125 54.4361 77.9858 55.0379 77.7166C55.6397 77.4473 56.1778 77.0541 56.6172 76.5625H60.2813L60.0215 79.6875H43.75ZM92.1875 93.75H26.5625V89.0625H92.1875V93.75Z" fill="black"/>
<path d="M25.3663 55.554C19.9695 54.237 15.1615 51.168 11.6949 46.8271C8.15016 42.4112 6.22814 36.9126 6.25002 31.25C6.25002 24.6196 8.88394 18.2607 13.5724 13.5723C18.2608 8.88392 24.6196 6.25 31.25 6.25C37.8804 6.25 44.2393 8.88392 48.9277 13.5723C53.6161 18.2607 56.25 24.6196 56.25 31.25H59.375C59.375 15.7417 46.7582 3.125 31.25 3.125C15.7418 3.125 3.12502 15.7417 3.12502 31.25C3.10069 37.6211 5.26343 43.8076 9.2519 48.7759C13.1526 53.6589 18.562 57.111 24.6337 58.592L25.3663 55.554Z" fill="black"/>
<path d="M54.1481 36.2707C54.8528 33.0561 54.8726 29.7291 54.2062 26.5062C53.5399 23.2834 52.2024 20.2371 50.2808 17.5654C48.3591 14.8937 45.8964 12.6567 43.0529 10.9998C40.2095 9.34294 37.049 8.30342 33.7772 7.9489C30.5053 7.59438 27.1955 7.93281 24.0632 8.94216C20.9308 9.95151 18.0461 11.6092 15.5968 13.8072C13.1475 16.0052 11.1885 18.6944 9.84731 21.6997C8.50614 24.705 7.81284 27.959 7.81255 31.25C7.79699 36.3547 9.46309 41.3224 12.5534 45.3854C15.5727 49.361 19.774 52.2777 24.5543 53.7169L25.4458 50.7216C21.3026 49.4737 17.6614 46.9452 15.0448 43.499C12.3672 39.9781 10.9238 35.6734 10.9375 31.25C10.9406 28.3996 11.5434 25.5818 12.707 22.9797C13.8706 20.3776 15.5687 18.0495 17.6911 16.1468C19.8135 14.2441 22.3126 12.8094 25.0259 11.936C27.7392 11.0626 30.6059 10.77 33.4397 11.0773C36.2735 11.3846 39.0109 12.2848 41.4739 13.7195C43.9369 15.1542 46.0704 17.0912 47.7357 19.4046C49.4009 21.7179 50.5606 24.3559 51.1394 27.1469C51.7182 29.9379 51.7031 32.8195 51.0951 35.6043L54.1481 36.2707Z" fill="black"/>
<path d="M40.625 23.4375V15.625H37.5V18.75H28.125V21.875H37.5V23.4375C37.5003 23.9646 37.4339 24.4896 37.3022 25H29.6875V28.125H35.3774C34.4758 28.9206 33.3637 29.439 32.1746 29.618C30.9856 29.7969 29.7702 29.6288 28.6743 29.1338C27.5785 28.6388 26.6489 27.838 25.9971 26.8275C25.3453 25.8171 24.9991 24.6399 25 23.4375V15.625H21.875V23.4375C21.8756 24.9853 22.2596 26.5089 22.9926 27.8721C23.7255 29.2354 24.7847 30.3959 26.0755 31.25C24.7847 32.1041 23.7255 33.2646 22.9926 34.6279C22.2596 35.9911 21.8756 37.5147 21.875 39.0625V45.3125H25V43.75H34.375V40.625H25V39.0625C24.9997 38.5354 25.0661 38.0104 25.1978 37.5H32.8125V34.375H27.1226C28.0242 33.5794 29.1363 33.061 30.3254 32.882C31.5144 32.7031 32.7298 32.8712 33.8257 33.3662C34.9215 33.8612 35.8511 34.662 36.5029 35.6725C37.1547 36.6829 37.5009 37.8601 37.5 39.0625V45.3125H40.625V39.0625C40.6244 37.5147 40.2404 35.9911 39.5074 34.6279C38.7745 33.2646 37.7153 32.1041 36.4245 31.25C37.7153 30.3959 38.7745 29.2354 39.5074 27.8721C40.2404 26.5089 40.6244 24.9853 40.625 23.4375Z" fill="black"/>
</svg>
