<svg width="100" height="100" viewBox="0 0 100 100" fill="none" xmlns="http://www.w3.org/2000/svg">
<path d="M62.5 81.25H37.5C36.6712 81.25 35.8763 81.5792 35.2903 82.1653C34.7042 82.7513 34.375 83.5462 34.375 84.375V95.3125H65.625V84.375C65.625 83.5462 65.2958 82.7513 64.7097 82.1653C64.1237 81.5792 63.3288 81.25 62.5 81.25Z" fill="#BA8B5D"/>
<path d="M42.1875 71.875H57.8125C59.0557 71.875 60.248 72.3689 61.1271 73.2479C62.0061 74.127 62.5 75.3193 62.5 76.5625V81.25H37.5V76.5625C37.5 75.3193 37.9939 74.127 38.8729 73.2479C39.752 72.3689 40.9443 71.875 42.1875 71.875Z" fill="#9F764A"/>
<path d="M46.6575 7.80492L42.1875 71.875H57.8125L53.3425 7.80492C53.2835 6.95871 52.9057 6.16638 52.2853 5.58781C51.665 5.00924 50.8483 4.6875 50 4.6875C49.1517 4.6875 48.335 5.00924 47.7147 5.58781C47.0943 6.16638 46.7165 6.95871 46.6575 7.80492Z" fill="#BA8B5D"/>
<path d="M70.3125 56.25V56.25C70.3125 59.5652 71.6295 62.7446 73.9737 65.0888C76.3179 67.433 79.4973 68.75 82.8125 68.75H82.8125C86.1277 68.75 89.3071 67.433 91.6513 65.0888C93.9955 62.7446 95.3125 59.5652 95.3125 56.25V56.25H70.3125Z" fill="#FAB53F"/>
<path d="M4.6875 75V75C4.6875 78.3152 6.00446 81.4946 8.34866 83.8388C10.6929 86.183 13.8723 87.5 17.1875 87.5H17.1875C20.5027 87.5 23.6821 86.183 26.0263 83.8388C28.3705 81.4946 29.6875 78.3152 29.6875 75V75H4.6875Z" fill="#FAB53F"/>
<path d="M13.822 42.2677H13.822C16.7687 41.2854 19.42 39.5756 21.5305 37.2966C23.641 35.0175 25.1424 32.2429 25.8957 29.2295V29.2295C26.1771 28.1039 26.6918 27.05 27.4065 26.136C28.1212 25.222 29.0199 24.4684 30.0444 23.9238C31.0689 23.3793 32.1964 23.0561 33.3537 22.9751C34.5111 22.8941 35.6726 23.0571 36.763 23.4536L45.3125 26.5625L56.25 23.4375L59.6 19.1304C60.57 17.8832 61.7865 16.8493 63.1737 16.0931C64.561 15.3368 66.0891 14.8745 67.6629 14.7349C69.2367 14.5953 70.8224 14.7814 72.3211 15.2817C73.8197 15.782 75.1993 16.5856 76.3737 17.6426L76.3737 17.6426C78.3145 19.3894 80.6977 20.5698 83.2633 21.0553C85.8289 21.5408 88.4786 21.3127 90.9235 20.3959H90.9235C92.0875 19.9594 93.0305 19.0783 93.5449 17.9466C94.0594 16.8148 94.1031 15.525 93.6666 14.361C93.2301 13.197 92.3491 12.254 91.2173 11.7396C90.0856 11.2251 88.7958 11.1813 87.6318 11.6178C86.7938 11.932 85.8857 12.0102 85.0063 11.8438C84.127 11.6774 83.3102 11.2728 82.645 10.6741L82.645 10.6741C80.5135 8.75567 78.0095 7.29698 75.2894 6.38897C72.5692 5.48096 69.6911 5.1431 66.8346 5.39646C63.9781 5.64982 61.2045 6.48897 58.6866 7.86158C56.1687 9.23419 53.9606 11.1108 52.2 13.3744L50.7299 15.2645L45.6596 16.7132L39.9669 14.6431C37.6425 13.7978 35.1665 13.4503 32.6993 13.623C30.232 13.7956 27.8285 14.4847 25.6445 15.6455C23.4605 16.8062 21.5448 18.4129 20.0213 20.3612C18.4978 22.3096 17.4006 24.5563 16.8007 26.9558V26.9558C16.4299 28.4391 15.6908 29.8049 14.6519 30.9268C13.6131 32.0487 12.3079 32.8903 10.8574 33.3738H10.8574C10.2734 33.5684 9.73348 33.8762 9.26844 34.2795C8.8034 34.6828 8.42235 35.1738 8.14705 35.7244C7.87175 36.275 7.7076 36.8744 7.66396 37.4884C7.62031 38.1024 7.69804 38.719 7.8927 39.303C8.08736 39.887 8.39513 40.4269 8.79845 40.892C9.20177 41.357 9.69274 41.7381 10.2433 42.0134C10.7939 42.2886 11.3933 42.4528 12.0073 42.4964C12.6214 42.5401 13.238 42.4623 13.822 42.2677Z" fill="#9F764A"/>
<path d="M92.1875 56.25V50C92.1875 48.7568 91.6936 47.5645 90.8146 46.6854C89.9355 45.8064 88.7432 45.3125 87.5 45.3125H78.125C76.8818 45.3125 75.6895 45.8064 74.8104 46.6854C73.9314 47.5645 73.4375 48.7568 73.4375 50V56.25H92.1875Z" fill="#529DDF"/>
<path d="M84.375 35.9375H78.125L76.5625 40.625L78.125 42.1875L79.6875 45.3125L82.8125 48.4375L85.9375 45.3125L84.375 35.9375Z" fill="#FDC5CA"/>
<path d="M7.8125 75V68.75C7.8125 67.5068 8.30636 66.3145 9.18544 65.4354C10.0645 64.5564 11.2568 64.0625 12.5 64.0625H21.875C23.1182 64.0625 24.3105 64.5564 25.1896 65.4354C26.0686 66.3145 26.5625 67.5068 26.5625 68.75V75H7.8125Z" fill="#529DDF"/>
<path d="M15.625 54.6875H21.875L23.4375 59.375L21.875 60.9375L20.3125 64.0625L17.1875 67.1875L14.0625 64.0625L15.625 54.6875Z" fill="#FDC5CA"/>
<path d="M57.4824 24.3965L60.834 20.0899C61.672 19.012 62.7232 18.1183 63.9219 17.4647C65.1206 16.8111 66.4412 16.4116 67.8012 16.291C69.1612 16.1704 70.5314 16.3314 71.8265 16.7639C73.1215 17.1964 74.3135 17.8911 75.3281 18.8047C76.9855 20.2991 78.9399 21.4264 81.0633 22.1129L77.3668 32.2785L80.3037 33.3466L82.8125 26.4473L85.3212 33.3466L88.2581 32.2785L84.8253 22.8379L84.8262 22.8379C87.0861 22.9904 89.3525 22.6568 91.4726 21.8594C93.0248 21.2774 94.2823 20.1027 94.9683 18.5936C95.6543 17.0845 95.7128 15.3647 95.1308 13.8125C94.5489 12.2603 93.3741 11.0029 91.865 10.3169C90.356 9.63081 88.6362 9.57235 87.084 10.1543C86.5138 10.3692 85.8956 10.4231 85.2968 10.3101C84.6981 10.1971 84.142 9.9216 83.6894 9.5137C79.7822 6.00117 74.7677 3.96873 69.5175 3.76961C64.2673 3.57048 59.1133 5.21726 54.9513 8.42374L54.9007 7.69714C54.8145 6.45629 54.2608 5.29434 53.3514 4.44579C52.4419 3.59724 51.2444 3.12527 50.0006 3.12512C48.7568 3.12498 47.5592 3.59667 46.6495 4.44501C45.7399 5.29335 45.1859 6.45517 45.0994 7.69599L44.6134 14.67L44.6132 14.6699L40.502 13.1739C37.9718 12.254 35.2767 11.8759 32.5911 12.064C29.9056 12.2521 27.2895 13.0021 24.9122 14.2656C22.535 15.5291 20.4496 17.2778 18.7912 19.3985C17.1328 21.5191 15.9383 23.9645 15.2851 26.5762C14.9815 27.8061 14.3706 28.9389 13.5098 29.8684C12.649 30.7979 11.5663 31.4937 10.3633 31.8907C9.58353 32.1494 8.86244 32.5593 8.24125 33.0969C7.62006 33.6346 7.11096 34.2894 6.74305 35.0239C6.37514 35.7585 6.15565 36.5584 6.09713 37.3778C6.03861 38.1973 6.14221 39.0202 6.40201 39.7996C6.6618 40.579 7.07269 41.2995 7.61118 41.92C8.14967 42.5404 8.80519 43.0486 9.54025 43.4155C10.2753 43.7824 11.0755 44.0008 11.895 44.0582C12.7146 44.1156 13.5374 44.0109 14.3164 43.75C14.3437 43.7403 14.3711 43.7324 14.3984 43.7227L11.7422 51.0293L14.6796 52.0957L17.1875 45.1973L19.6953 52.0957L22.6328 51.0293L19.1308 41.3985C23.2646 38.6388 26.2181 34.4342 27.4121 29.6094C27.6399 28.6959 28.0571 27.8405 28.6368 27.0986C29.2164 26.3568 29.9455 25.745 30.7768 25.303C31.6081 24.8611 32.523 24.5988 33.4621 24.5331C34.4013 24.4674 35.3438 24.5999 36.2285 24.9219L43.707 27.6407L43.7075 27.6408L40.7181 70.4866C39.3563 70.8185 38.1453 71.5976 37.2786 72.6991C36.4119 73.8006 35.9397 75.1609 35.9375 76.5625V79.9563C35.0243 80.2803 34.2337 80.879 33.6742 81.6701C33.1147 82.4612 32.8137 83.4061 32.8125 84.375V95.3125C32.8125 95.7269 32.9771 96.1243 33.2701 96.4174C33.5632 96.7104 33.9606 96.875 34.375 96.875H65.625C66.0394 96.875 66.4368 96.7104 66.7298 96.4174C67.0228 96.1243 67.1875 95.7269 67.1875 95.3125V84.375C67.1862 83.4061 66.8852 82.4612 66.3257 81.6701C65.7662 80.879 64.9757 80.2803 64.0625 79.9563V76.5625C64.0602 75.1609 63.588 73.8006 62.7214 72.6991C61.8547 71.5975 60.6436 70.8185 59.2819 70.4866L56.1155 25.1015L56.6797 24.9395C56.9984 24.8488 57.2797 24.6586 57.4824 24.3965ZM48.7818 6.72934C49.0288 6.49933 49.3359 6.34395 49.6675 6.28119C49.9992 6.21844 50.3418 6.25086 50.6558 6.37471C50.9698 6.49857 51.2423 6.70879 51.4418 6.98106C51.6413 7.25332 51.7597 7.57651 51.7832 7.91323L52.0097 11.1699V11.1699C51.6484 11.5703 51.3007 11.9857 50.9668 12.4161L49.8105 13.9024L47.7586 14.4881L48.217 7.91227C48.2477 7.46043 48.4497 7.03734 48.7818 6.72934ZM37.2969 21.9844C36.0009 21.5135 34.6204 21.3199 33.2449 21.4164C31.8694 21.5128 30.5295 21.897 29.3119 22.5442C28.0943 23.1914 27.0262 24.0871 26.1768 25.1733C25.3273 26.2595 24.7155 27.512 24.3808 28.8496C23.6957 31.6106 22.3237 34.1535 20.3925 36.2422C19.3784 37.3386 18.2216 38.2938 16.9531 39.0821C16.6308 39.2832 16.3027 39.4746 15.9668 39.6504C15.1213 40.1034 14.2385 40.483 13.3281 40.7852C12.5421 41.0461 11.6847 40.9843 10.9442 40.6135C10.2037 40.2426 9.64064 39.593 9.37875 38.8074C9.11686 38.0217 9.17753 37.1642 9.54743 36.4232C9.91733 35.6822 10.5662 35.1184 11.3516 34.8555C13.0538 34.2931 14.5856 33.3081 15.8037 31.9927C17.0217 30.6773 17.8862 29.0744 18.3164 27.334C18.8644 25.1475 19.8652 23.1004 21.2543 21.3251C22.6433 19.5498 24.3895 18.0859 26.38 17.0281C28.3705 15.9702 30.5609 15.342 32.8095 15.1841C35.0581 15.0262 37.3148 15.3421 39.4336 16.1114L45.125 18.1816C45.4342 18.295 45.7716 18.3066 46.0879 18.2149L51.1582 16.7676C51.4773 16.6768 51.7592 16.4866 51.9629 16.2247L53.4336 14.334C55.0624 12.2398 57.1052 10.5036 59.4346 9.23376C61.764 7.96388 64.3301 7.18754 66.9728 6.95316C69.6155 6.71878 72.2781 7.03138 74.7946 7.87147C77.3112 8.71156 79.6277 10.0611 81.5996 11.836C82.476 12.6282 83.5539 13.1635 84.7148 13.383C85.8756 13.6025 87.0745 13.4977 88.1797 13.0801C88.564 12.936 88.973 12.8689 89.3832 12.8828C89.7935 12.8967 90.197 12.9913 90.5707 13.1612C91.3254 13.5042 91.913 14.133 92.2041 14.9092C92.3482 15.2936 92.4153 15.7025 92.4013 16.1128C92.3874 16.523 92.2929 16.9265 92.123 17.3002C91.9532 17.6739 91.7114 18.0105 91.4114 18.2908C91.1115 18.571 90.7593 18.7895 90.375 18.9336C88.1983 19.7545 85.8376 19.9598 83.5519 19.5271C81.2662 19.0943 79.1439 18.0402 77.4179 16.4805C76.0842 15.2798 74.5173 14.3669 72.8151 13.7987C71.1128 13.2305 69.3118 13.0191 67.5242 13.1779C65.7367 13.3366 64.0011 13.8619 62.4256 14.7212C60.8501 15.5804 59.4686 16.7551 58.3672 18.1719L55.3301 22.0762L45.3711 24.9219L37.2969 21.9844ZM46.8322 27.7539L53.0442 25.9788L56.1372 70.3125H43.8627L46.8322 27.7539ZM62.5 82.8125C62.9142 82.813 63.3114 82.9778 63.6043 83.2707C63.8972 83.5636 64.062 83.9608 64.0625 84.375V93.75H35.9375V84.375C35.938 83.9608 36.1027 83.5636 36.3956 83.2707C36.6886 82.9778 37.0857 82.813 37.5 82.8125H62.5ZM60.9375 76.5625V79.6875H39.0625V76.5625C39.0636 75.7341 39.3932 74.9398 39.979 74.354C40.5648 73.7682 41.359 73.4386 42.1875 73.4375H57.8125C58.6409 73.4386 59.4352 73.7682 60.021 74.354C60.6068 74.9398 60.9364 75.7341 60.9375 76.5625Z" fill="black"/>
<path d="M50 21.875C50.8629 21.875 51.5625 21.1754 51.5625 20.3125C51.5625 19.4496 50.8629 18.75 50 18.75C49.1371 18.75 48.4375 19.4496 48.4375 20.3125C48.4375 21.1754 49.1371 21.875 50 21.875Z" fill="black"/>
<path d="M95.3125 54.6875H70.3125C70.1073 54.6874 69.9041 54.7278 69.7145 54.8063C69.5249 54.8848 69.3526 54.9999 69.2075 55.145C69.0624 55.2901 68.9473 55.4624 68.8688 55.652C68.7903 55.8416 68.7499 56.0448 68.75 56.25C68.75 59.9796 70.2316 63.5565 72.8688 66.1937C75.506 68.8309 79.0829 70.3125 82.8125 70.3125C86.5421 70.3125 90.119 68.8309 92.7562 66.1937C95.3934 63.5565 96.875 59.9796 96.875 56.25C96.8751 56.0448 96.8347 55.8416 96.7562 55.652C96.6777 55.4624 96.5626 55.2901 96.4175 55.145C96.2724 54.9999 96.1001 54.8848 95.9105 54.8063C95.7209 54.7278 95.5177 54.6874 95.3125 54.6875ZM82.8125 67.1875C80.1833 67.1841 77.6429 66.2352 75.6554 64.514C73.6678 62.7929 72.3655 60.4143 71.9863 57.8125H93.6387C93.2595 60.4143 91.9572 62.7929 89.9696 64.514C87.9821 66.2352 85.4417 67.1841 82.8125 67.1875Z" fill="black"/>
<path d="M29.6875 73.4375H4.6875C4.48229 73.4374 4.27909 73.4778 4.08949 73.5563C3.8999 73.6348 3.72763 73.7499 3.58253 73.895C3.43742 74.0401 3.32233 74.2124 3.24383 74.402C3.16532 74.5916 3.12495 74.7948 3.125 75C3.125 78.7296 4.60658 82.3065 7.24381 84.9437C9.88104 87.5809 13.4579 89.0625 17.1875 89.0625C20.9171 89.0625 24.494 87.5809 27.1312 84.9437C29.7684 82.3065 31.25 78.7296 31.25 75C31.2501 74.7948 31.2097 74.5916 31.1312 74.402C31.0527 74.2124 30.9376 74.0401 30.7925 73.895C30.6474 73.7499 30.4751 73.6348 30.2855 73.5563C30.0959 73.4778 29.8927 73.4374 29.6875 73.4375ZM17.1875 85.9375C14.5583 85.9341 12.0179 84.9852 10.0304 83.264C8.04278 81.5429 6.74051 79.1643 6.36134 76.5625H28.0137C27.6345 79.1643 26.3322 81.5429 24.3446 83.264C22.3571 84.9852 19.8167 85.9341 17.1875 85.9375Z" fill="black"/>
<path d="M10.9375 68.75H14.0625V71.875H10.9375V68.75Z" fill="black"/>
<path d="M20.3125 68.75H23.4375V71.875H20.3125V68.75Z" fill="black"/>
<path d="M26.5625 53.125H15.625C15.2553 53.125 14.8976 53.2561 14.6154 53.495C14.3333 53.7339 14.145 54.065 14.084 54.4297L12.7383 62.5H12.5C10.843 62.5019 9.25437 63.161 8.08268 64.3327C6.91098 65.5044 6.2519 67.093 6.25 68.75V71.875H9.375V68.75C9.37595 67.9215 9.70549 67.1272 10.2913 66.5413C10.8772 65.9555 11.6715 65.6259 12.5 65.625H13.414L16.082 68.293C16.3755 68.5856 16.773 68.75 17.1875 68.75C17.602 68.75 17.9995 68.5856 18.293 68.293L20.961 65.625H21.875C22.7035 65.6259 23.4978 65.9555 24.0837 66.5413C24.6695 67.1272 24.9991 67.9215 25 68.75V71.875H28.125V68.75C28.123 67.2544 27.5857 65.809 26.6102 64.6753C25.6347 63.5416 24.2855 62.7947 22.8069 62.5698L23.1602 61.8633L24.543 60.4805C24.7479 60.275 24.8918 60.0166 24.9583 59.7341C25.0249 59.4516 25.0116 59.1562 24.9199 58.8809L24.043 56.25H26.5625V53.125ZM16.9492 56.25H20.748L21.6504 58.9531L20.7696 59.832C20.6516 59.9515 20.5527 60.0886 20.4766 60.2383L19.8848 61.4258L19.8555 61.3945C19.5623 61.1014 19.1646 60.9368 18.7501 60.9368C18.3355 60.9369 17.9379 61.1016 17.6447 61.3947C17.3516 61.6879 17.1869 62.0855 17.1868 62.5C17.1868 62.9146 17.3515 63.3122 17.6446 63.6055L18.1031 64.0621L17.1875 64.9778L16.6546 64.4449L15.7363 63.5254L16.9492 56.25Z" fill="black"/>
<path d="M85.9375 50H89.0625V53.125H85.9375V50Z" fill="black"/>
<path d="M76.5625 50H79.6875V53.125H76.5625V50Z" fill="black"/>
<path d="M93.75 53.125V50C93.7481 48.343 93.089 46.7544 91.9173 45.5827C90.7456 44.411 89.157 43.7519 87.5 43.75H87.2617L85.916 35.6797C85.855 35.3151 85.6667 34.9839 85.3846 34.745C85.1024 34.5061 84.7447 34.375 84.375 34.375H73.4375V37.5H75.957L75.0801 40.1309C74.9884 40.4062 74.9751 40.7016 75.0417 40.9841C75.1082 41.2666 75.2521 41.525 75.457 41.7305L76.8398 43.1133L77.1931 43.8198C75.7145 44.0447 74.3653 44.7917 73.3898 45.9253C72.4143 47.059 71.877 48.5044 71.875 50V53.125H75V50C75.0009 49.1715 75.3305 48.3772 75.9163 47.7913C76.5022 47.2055 77.2965 46.8759 78.125 46.875H79.039L81.707 49.543C82.0005 49.8356 82.398 50 82.8125 50C83.227 50 83.6245 49.8356 83.918 49.543L86.586 46.875H87.5C88.3285 46.8759 89.1228 47.2055 89.7087 47.7913C90.2945 48.3772 90.6241 49.1715 90.625 50V53.125H93.75ZM79.252 37.5H83.0508L84.2637 44.7754L83.3454 45.6949L82.8125 46.2278L81.8969 45.3121L82.3555 44.8555C82.6486 44.5622 82.8132 44.1646 82.8132 43.7501C82.8131 43.3355 82.6484 42.9379 82.3553 42.6447C82.0621 42.3516 81.6645 42.1869 81.25 42.1868C80.8354 42.1868 80.4378 42.3514 80.1445 42.6445L80.1152 42.6758L79.5234 41.4883C79.4473 41.3386 79.3484 41.2015 79.2305 41.082L78.3496 40.2031L79.252 37.5Z" fill="black"/>
</svg>
