<svg width="80" height="80" viewBox="0 0 80 80" fill="none" xmlns="http://www.w3.org/2000/svg">
<path d="M66.2635 2.76458H31.6199V2.67819C31.6199 1.20138 30.4185 0 28.9417 0H20.6479C19.1711 0 17.9698 1.20138 17.9698 2.67819V2.76458H13.7365C11.4975 2.76458 9.67603 4.58609 9.67603 6.82505V75.9395C9.67603 78.1785 11.4975 80 13.7365 80H66.2635C68.5025 80 70.324 78.1785 70.324 75.9395V6.82505C70.324 4.58609 68.5025 2.76458 66.2635 2.76458ZM20.5616 2.67819C20.5616 2.6305 20.6004 2.59179 20.6479 2.59179H28.9417C28.9892 2.59179 29.0281 2.6305 29.0281 2.67819V18.5512L25.3743 16.7243C25.1921 16.6331 24.9933 16.5875 24.7948 16.5875C24.5963 16.5875 24.3976 16.6331 24.2153 16.7243L20.5616 18.5512V2.67819ZM67.7322 75.9395C67.7322 76.7494 67.0733 77.4082 66.2635 77.4082H13.7365C12.9267 77.4082 12.2678 76.7494 12.2678 75.9395V6.82505C12.2678 6.01521 12.9267 5.35637 13.7365 5.35637H17.9698V20.6479C17.9698 21.097 18.2023 21.5141 18.5844 21.7503C18.9667 21.9867 19.4438 22.0079 19.8454 21.807L24.795 19.3322L29.7446 21.807C29.9276 21.8984 30.1261 21.9438 30.3241 21.9438C30.561 21.9438 30.7972 21.8789 31.0054 21.7503C31.3875 21.5141 31.62 21.097 31.62 20.6479V5.35637H66.2637C67.0735 5.35637 67.7324 6.01521 67.7324 6.82505V75.9395H67.7322Z" fill="#FFFFF3"/>
<path d="M59.2605 49.5738C59.2596 49.5617 59.2593 49.5494 59.2581 49.5375C59.2553 49.5115 59.2507 49.4858 59.2463 49.4601C59.2434 49.4423 59.241 49.4245 59.2373 49.407C59.2337 49.3899 59.2285 49.3728 59.2242 49.3557C59.2177 49.3301 59.2114 49.3044 59.2033 49.2793C59.1997 49.2683 59.1952 49.2572 59.1912 49.2461C59.1805 49.2157 59.1694 49.1857 59.1567 49.1565C59.1556 49.1542 59.1551 49.152 59.1541 49.1497L53.7365 36.9605V35.7668H55.2052C55.9211 35.7668 56.5011 35.1865 56.5011 34.4709C56.5011 33.7552 55.9211 33.175 55.2052 33.175H41.2959V31.4067C42.9011 30.8645 44.0605 29.3453 44.0605 27.5594C44.0605 25.3204 42.239 23.4989 40 23.4989C37.7611 23.4989 35.9396 25.3204 35.9396 27.5594C35.9396 29.3453 37.099 30.8645 38.7041 31.4067V33.175H24.7948C24.079 33.175 23.499 33.7552 23.499 34.4709C23.499 35.1865 24.079 35.7668 24.7948 35.7668H26.2635V36.9605L20.846 49.1497C20.845 49.152 20.8443 49.1544 20.8434 49.1566C20.8306 49.1858 20.8196 49.2157 20.809 49.246C20.805 49.257 20.8004 49.2681 20.7968 49.2793C20.7886 49.3044 20.7824 49.33 20.7758 49.3557C20.7714 49.3728 20.7663 49.3899 20.7627 49.407C20.7591 49.4245 20.7568 49.4424 20.7537 49.4601C20.7494 49.4858 20.7447 49.5115 20.742 49.5375C20.7408 49.5494 20.7404 49.5617 20.7396 49.5738C20.737 49.6054 20.7349 49.637 20.7347 49.6686C20.7347 49.6712 20.7344 49.6736 20.7344 49.676C20.7344 52.6772 23.7961 55.1188 27.5594 55.1188C31.3227 55.1188 34.3845 52.6772 34.3845 49.676C34.3845 49.6735 34.3841 49.671 34.3841 49.6686C34.384 49.637 34.3819 49.6055 34.3793 49.5738C34.3784 49.5617 34.3781 49.5494 34.3769 49.5375C34.3741 49.5115 34.3694 49.4858 34.3651 49.4601C34.3622 49.4423 34.3598 49.4245 34.3561 49.407C34.3525 49.3899 34.3473 49.3728 34.343 49.3557C34.3364 49.3301 34.3302 49.3044 34.3221 49.2793C34.3185 49.2683 34.314 49.2572 34.31 49.2461C34.2993 49.2157 34.2882 49.1857 34.2755 49.1565C34.2744 49.1542 34.2739 49.152 34.2729 49.1497L28.8553 36.9605V35.7668H38.7041V47.2111C37.099 47.7533 35.9396 49.2724 35.9396 51.0583V60.8208H33.0886C32.3727 60.8208 31.7927 61.401 31.7927 62.1166C31.7927 62.8323 32.3727 63.4125 33.0886 63.4125H46.9115C47.6273 63.4125 48.2074 62.8323 48.2074 62.1166C48.2074 61.401 47.6273 60.8208 46.9115 60.8208H44.0605V51.0583C44.0605 49.2724 42.9011 47.7533 41.2959 47.2111V35.7668H51.1447V36.9605L45.7272 49.1497C45.7262 49.152 45.7255 49.1544 45.7246 49.1566C45.7118 49.1858 45.7008 49.2157 45.6902 49.246C45.6863 49.257 45.6816 49.2681 45.678 49.2793C45.6698 49.3044 45.6636 49.33 45.657 49.3557C45.6526 49.3728 45.6475 49.3899 45.6439 49.407C45.6403 49.4245 45.638 49.4424 45.6349 49.4601C45.6306 49.4858 45.6259 49.5115 45.6232 49.5375C45.622 49.5494 45.6216 49.5617 45.6208 49.5738C45.6182 49.6054 45.6161 49.637 45.6159 49.6686C45.6159 49.6712 45.6156 49.6736 45.6156 49.676C45.6156 52.6772 48.6774 55.1188 52.4406 55.1188C56.2039 55.1188 59.2657 52.6772 59.2657 49.676C59.2657 49.6735 59.2653 49.671 59.2653 49.6686C59.2652 49.637 59.2631 49.6054 59.2605 49.5738ZM40 26.0907C40.8099 26.0907 41.4687 26.7496 41.4687 27.5594C41.4687 28.3693 40.8099 29.0281 40 29.0281C39.1902 29.0281 38.5313 28.3693 38.5313 27.5594C38.5313 26.7496 39.1902 26.0907 40 26.0907ZM27.5594 40.4263L31.0945 48.3801H24.0242L27.5594 40.4263ZM27.5594 52.527C25.9522 52.527 24.5198 51.8867 23.8056 50.9719H31.313C30.5991 51.8867 29.1667 52.527 27.5594 52.527ZM41.4687 60.8208H38.5313V51.0583C38.5313 50.2485 39.1902 49.5896 40 49.5896C40.8099 49.5896 41.4687 50.2485 41.4687 51.0583V60.8208ZM52.4406 40.4263L55.9757 48.3801H48.9054L52.4406 40.4263ZM52.4406 52.527C50.8334 52.527 49.401 51.8867 48.6869 50.9719H56.1942C55.4803 51.8867 54.0479 52.527 52.4406 52.527Z" fill="#FFFFF3"/>
</svg>
