<svg width="80" height="80" viewBox="0 0 80 80" fill="none" xmlns="http://www.w3.org/2000/svg">
<path d="M64.8812 0H26.1771C26.1622 0 26.1477 0.00172786 26.1328 0.00224622C26.1183 0.00276458 26.1042 0.00345572 26.0896 0.00431965C26.0344 0.00794816 25.9798 0.0141685 25.9265 0.0245356C25.9255 0.0247084 25.9246 0.0247084 25.9236 0.025054C25.8661 0.0364579 25.8104 0.052527 25.7558 0.0711879C25.746 0.0746436 25.7361 0.0782721 25.7265 0.0820734C25.6751 0.10108 25.625 0.122678 25.577 0.147732C25.5739 0.14946 25.5706 0.15067 25.5675 0.152397C25.517 0.179352 25.4692 0.210108 25.423 0.243283C25.4125 0.250713 25.4023 0.258661 25.3919 0.266436C25.3461 0.301339 25.3019 0.338315 25.2613 0.378747C25.2611 0.37892 25.2608 0.379093 25.2606 0.379266L11.4377 14.2022C11.4376 14.2023 11.4374 14.2025 11.4372 14.2027C11.3966 14.2435 11.3596 14.2877 11.3247 14.3335C11.3169 14.3438 11.3092 14.354 11.3016 14.3644C11.2684 14.4105 11.2376 14.4584 11.2107 14.5087C11.209 14.5121 11.2074 14.5156 11.2057 14.519C11.1808 14.5667 11.1594 14.6163 11.1404 14.6673C11.1366 14.6775 11.1328 14.6875 11.1291 14.6979C11.1105 14.752 11.0946 14.8073 11.0832 14.8644C11.0828 14.8665 11.0827 14.8688 11.0821 14.8708C11.0721 14.9229 11.0661 14.9761 11.0623 15.03C11.0612 15.0452 11.0605 15.0602 11.06 15.0754C11.06 15.0901 11.0583 15.1043 11.0583 15.1188V75.9395C11.0583 78.1785 12.8798 80 15.1188 80H64.8812C67.1201 80 68.9417 78.1785 68.9417 75.9395V4.06048C68.9417 1.82151 67.1201 0 64.8812 0ZM24.8812 4.42436V12.3542C24.8812 13.1641 24.2223 13.8229 23.4125 13.8229H15.4827L24.8812 4.42436ZM66.3499 75.9395C66.3499 76.7494 65.691 77.4082 64.8812 77.4082H15.1188C14.3089 77.4082 13.6501 76.7494 13.6501 75.9395V16.4147H23.4125C25.6515 16.4147 27.473 14.5932 27.473 12.3542V2.59179H64.8812C65.691 2.59179 66.3499 3.25063 66.3499 4.06048V75.9395Z" fill="#FFFFF3"/>
<path d="M23.4125 21.9438H56.5874C57.3031 21.9438 57.8833 21.3638 57.8833 20.648C57.8833 19.9321 57.3031 19.3521 56.5874 19.3521H23.4125C22.6968 19.3521 22.1166 19.9321 22.1166 20.648C22.1166 21.3638 22.6968 21.9438 23.4125 21.9438Z" fill="#FFFFF3"/>
<path d="M23.4125 28.8553H56.5874C57.3031 28.8553 57.8833 28.2753 57.8833 27.5594C57.8833 26.8436 57.3031 26.2635 56.5874 26.2635H23.4125C22.6968 26.2635 22.1166 26.8436 22.1166 27.5594C22.1166 28.2753 22.6968 28.8553 23.4125 28.8553Z" fill="#FFFFF3"/>
<path d="M23.4125 35.7667H56.5874C57.3031 35.7667 57.8833 35.1867 57.8833 34.4708C57.8833 33.755 57.3031 33.1749 56.5874 33.1749H23.4125C22.6968 33.1749 22.1166 33.755 22.1166 34.4708C22.1166 35.1867 22.6968 35.7667 23.4125 35.7667Z" fill="#FFFFF3"/>
<path d="M23.4125 42.6782H56.5874C57.3031 42.6782 57.8833 42.0982 57.8833 41.3823C57.8833 40.6665 57.3031 40.0864 56.5874 40.0864H23.4125C22.6968 40.0864 22.1166 40.6665 22.1166 41.3823C22.1166 42.0982 22.6968 42.6782 23.4125 42.6782Z" fill="#FFFFF3"/>
<path d="M23.4125 49.5896H56.5874C57.3031 49.5896 57.8833 49.0096 57.8833 48.2937C57.8833 47.5778 57.3031 46.9978 56.5874 46.9978H23.4125C22.6968 46.9978 22.1166 47.5778 22.1166 48.2937C22.1166 49.0096 22.6968 49.5896 23.4125 49.5896Z" fill="#FFFFF3"/>
<path d="M39.9999 56.6738H23.4125C22.6968 56.6738 22.1166 57.2539 22.1166 57.9697C22.1166 58.6856 22.6968 59.2656 23.4125 59.2656H39.9999C40.7156 59.2656 41.2958 58.6856 41.2958 57.9697C41.2958 57.2539 40.7156 56.6738 39.9999 56.6738Z" fill="#FFFFF3"/>
<path d="M39.9999 63.5853H23.4125C22.6968 63.5853 22.1166 64.1654 22.1166 64.8812C22.1166 65.5971 22.6968 66.1771 23.4125 66.1771H39.9999C40.7156 66.1771 41.2958 65.5971 41.2958 64.8812C41.2958 64.1654 40.7156 63.5853 39.9999 63.5853Z" fill="#FFFFF3"/>
<path d="M51.7494 59.4385C50.6538 59.4385 49.7624 60.3299 49.7624 61.4255C49.7624 62.5212 50.6538 63.4126 51.7494 63.4126C52.8451 63.4126 53.7365 62.5212 53.7365 61.4255C53.7365 60.3299 52.8451 59.4385 51.7494 59.4385Z" fill="#FFFFF3"/>
<path d="M51.7494 53.9093C47.605 53.9093 44.2332 57.2811 44.2332 61.4255C44.2332 65.5699 47.605 68.9417 51.7494 68.9417C55.8939 68.9417 59.2656 65.5699 59.2656 61.4255C59.2656 57.2811 55.8939 53.9093 51.7494 53.9093ZM51.7494 66.3499C49.0341 66.3499 46.825 64.1408 46.825 61.4255C46.825 58.7102 49.0341 56.5011 51.7494 56.5011C54.4647 56.5011 56.6738 58.7102 56.6738 61.4255C56.6738 64.1408 54.4647 66.3499 51.7494 66.3499Z" fill="#FFFFF3"/>
</svg>
