<svg width="100" height="100" viewBox="0 0 100 100" fill="none" xmlns="http://www.w3.org/2000/svg">
<path d="M29.9707 66.1055L18.75 70.3125L12.5 64.0625L17.3379 49.8984L19.9395 48.1641L21.875 46.875L26.5625 51.5625V56.25L29.9707 66.1055Z" fill="#FDC5CA"/>
<path d="M95.3125 67.2832V87.5L89.9043 95.3125H27.5L18.75 70.3125L29.9707 66.1055L34.3301 78.2598L35.9238 73.4805L37.7969 67.8613C38.6417 65.3288 40.0175 63.0059 41.8323 61.0479C43.6471 59.0899 45.8591 57.5421 48.3203 56.5078C48.4492 56.4531 48.582 56.3984 48.7129 56.3477C48.8086 56.3066 48.9043 56.2695 49 56.2344L53.125 54.6875L57.8125 51.5625L60.498 50.7578L73.4375 46.875L76.375 47.4629C77.7611 47.7444 79.1273 48.1163 80.4648 48.5762C80.6074 48.623 80.748 48.6738 80.8906 48.7246C80.9414 48.7422 80.9902 48.7617 81.041 48.7812C81.3145 48.8809 81.5859 48.9824 81.8555 49.0918C82.7109 49.4277 83.5508 49.8014 84.375 50.2129C84.8105 50.4297 85.2415 50.6563 85.668 50.8926C88.5912 52.5162 91.027 54.8922 92.7228 57.7742C94.4186 60.6562 95.3128 63.9393 95.3125 67.2832Z" fill="#BA8B5D"/>
<path d="M82.8125 50L59.375 84.375L48.3203 56.5078C48.4492 56.4531 48.582 56.3984 48.7129 56.3477C48.8086 56.3066 48.9043 56.2695 49 56.2344L53.125 54.6875L57.8125 51.5625L60.498 50.7578L80.4648 48.5762C80.6074 48.623 80.7481 48.6738 80.8906 48.7246C80.9414 48.7422 80.9902 48.7617 81.041 48.7812C81.3145 48.8809 81.5859 48.9824 81.8555 49.0918L82.8125 50Z" fill="#C1D7E6"/>
<path d="M73.4375 25V46.875L62.5 56.25L57.8125 51.5625V46.875H50L48.4375 35.9375L43.75 32.8125L48.2148 25H73.4375Z" fill="#FDC5CA"/>
<path d="M74.7598 25L73.4375 42.1875L67.625 37.2051L66.5273 36.2656L62.7285 31.0215L62.125 30.1875L61.3848 25H74.7598Z" fill="#FDCA77"/>
<path d="M57.8126 51.5625L53.1251 54.6875L56.2501 60.9375L62.5001 56.25L57.8126 51.5625Z" fill="#D4E4F0"/>
<path d="M80.8907 48.7246L65.6251 60.9375L62.5001 56.25L73.4376 46.875L76.3751 47.4629C77.9087 47.774 79.4179 48.1957 80.8907 48.7246Z" fill="#D4E4F0"/>
<path d="M56.2501 60.9375L57.8126 65.625H62.5001L65.6251 60.9375L62.5001 56.25L56.2501 60.9375Z" fill="#529DDF"/>
<path d="M56.2501 76.5625L57.8126 65.625H62.5001L64.1309 77.041L59.3751 84.375L56.2501 76.5625Z" fill="#529DDF"/>
<path d="M59.3751 32.8125L61.5293 30.6583C61.837 30.3505 62.2024 30.1064 62.6046 29.9398C63.0067 29.7732 63.4377 29.6875 63.873 29.6875C64.3083 29.6875 64.7393 29.7732 65.1414 29.9398C65.5436 30.1064 65.909 30.3505 66.2168 30.6583C66.5245 30.9661 66.7687 31.3315 66.9353 31.7336C67.1018 32.1358 67.1876 32.5668 67.1876 33.0021C67.1876 34.3857 66.846 35.7479 66.1931 36.9678C65.5402 38.1877 64.5963 39.2275 63.4451 39.995L63.0491 40.259C62.6911 40.4976 62.2705 40.625 61.8402 40.625C61.2623 40.625 60.708 40.3954 60.2993 39.9867L59.3751 39.0625V32.8125Z" fill="#FDC5CA"/>
<path d="M46.875 75L48.4375 65.625L43.75 64.0625V59.25C45.2439 58.0312 46.9182 57.0521 48.7129 56.3477L56.291 76.2695L59.375 84.375L46.875 75Z" fill="#9F764A"/>
<path d="M84.3751 50.2129V60.9375L76.5626 64.0625L75.0001 73.4375L59.3751 84.375L81.0411 48.7812C82.179 49.1941 83.2921 49.6721 84.3751 50.2129Z" fill="#9F764A"/>
<path d="M78.125 18.75H46.875C45.1491 18.75 43.75 20.1491 43.75 21.875C43.75 23.6009 45.1491 25 46.875 25H78.125C79.8509 25 81.25 23.6009 81.25 21.875C81.25 20.1491 79.8509 18.75 78.125 18.75Z" fill="#BA8B5D"/>
<path d="M54.6875 4.6875H70.3125C71.9701 4.6875 73.5598 5.34598 74.7319 6.51808C75.904 7.69018 76.5625 9.2799 76.5625 10.9375V18.75H48.4375V10.9375C48.4375 9.2799 49.096 7.69018 50.2681 6.51808C51.4402 5.34598 53.0299 4.6875 54.6875 4.6875Z" fill="#BA8B5D"/>
<path d="M21.875 56.25L14.0625 45.3125L4.6875 54.6875L12.5 64.0625L21.875 56.25Z" fill="#FDC5CA"/>
<path d="M8.23827 58.9492L5.65819 61.5293C5.03659 62.1509 4.68738 62.994 4.68738 63.873C4.68738 64.7521 5.03659 65.5952 5.65819 66.2168C6.27979 66.8384 7.12286 67.1876 8.00194 67.1876C8.88102 67.1876 9.72409 66.8384 10.3457 66.2168L12.5 64.0625L8.23827 58.9492Z" fill="#4F5761"/>
<path d="M32.8125 51.5625C39.7161 51.5625 45.3125 45.9661 45.3125 39.0625C45.3125 32.1589 39.7161 26.5625 32.8125 26.5625C25.9089 26.5625 20.3125 32.1589 20.3125 39.0625C20.3125 45.9661 25.9089 51.5625 32.8125 51.5625Z" fill="#68737F"/>
<path d="M32.8125 46.875C37.1272 46.875 40.625 43.3772 40.625 39.0625C40.625 34.7478 37.1272 31.25 32.8125 31.25C28.4978 31.25 25 34.7478 25 39.0625C25 43.3772 28.4978 46.875 32.8125 46.875Z" fill="#D4E4F0"/>
<path d="M54.6875 28.125H53.125C52.7106 28.125 52.3132 28.2896 52.0201 28.5826C51.7271 28.8757 51.5625 29.2731 51.5625 29.6875C51.5625 30.1019 51.7271 30.4993 52.0201 30.7924C52.3132 31.0854 52.7106 31.25 53.125 31.25H54.6875C55.1019 31.25 55.4993 31.0854 55.7924 30.7924C56.0854 30.4993 56.25 30.1019 56.25 29.6875C56.25 29.2731 56.0854 28.8757 55.7924 28.5826C55.4993 28.2896 55.1019 28.125 54.6875 28.125Z" fill="black"/>
<path d="M40.625 79.6875H43.75V96.875H40.625V79.6875Z" fill="black"/>
<path d="M86.4272 49.5262C83.3583 47.8206 80.0432 46.602 76.6003 45.9141L75 45.594V42.2479L76.2067 26.5625H78.125C79.3682 26.5625 80.5605 26.0686 81.4396 25.1896C82.3187 24.3105 82.8125 23.1182 82.8125 21.875C82.8125 20.6318 82.3187 19.4395 81.4396 18.5604C80.5605 17.6814 79.3682 17.1875 78.125 17.1875V10.9375C78.1227 8.86621 77.2989 6.88043 75.8342 5.41581C74.3696 3.95119 72.3838 3.12734 70.3125 3.125H54.6875C52.6162 3.12734 50.6305 3.95119 49.1658 5.41581C47.7012 6.88043 46.8774 8.86621 46.875 10.9375V17.1875C45.7416 17.1874 44.6465 17.598 43.7925 18.3433C42.9386 19.0886 42.3837 20.1182 42.2305 21.2412C42.0774 22.3643 42.3364 23.5048 42.9596 24.4516C43.5828 25.3983 44.528 26.0872 45.6201 26.3905L42.3934 32.0373C42.197 32.3809 42.1384 32.7863 42.2293 33.1715C42.3203 33.5567 42.554 33.893 42.8833 34.1125L46.9896 36.8501L48.4533 47.096C48.5064 47.4683 48.6921 47.809 48.9763 48.0554C49.2604 48.3018 49.6239 48.4375 50 48.4375H56.25V50.7263L52.4082 53.2875L48.4519 54.7711C45.615 55.8284 43.0516 57.509 40.9509 59.689C38.8501 61.869 37.2655 64.4929 36.314 67.367L34.2882 73.4446L28.125 55.9824V52.3232C29.964 52.972 31.9176 53.2316 33.8622 53.0854C35.8067 52.9393 37.6997 52.3906 39.4209 51.4742C41.1422 50.5578 42.6543 49.2938 43.8612 47.7621C45.0681 46.2305 45.9436 44.4647 46.4321 42.5769L43.4057 41.7981C42.9813 43.4386 42.1817 44.9582 41.0699 46.237C39.9581 47.5158 38.5645 48.5189 36.9989 49.1673C35.4333 49.8157 33.7385 50.0916 32.0482 49.9733C30.3578 49.855 28.7179 49.3458 27.2579 48.4857L23.3893 44.6171C22.0905 42.4131 21.6053 39.8236 22.018 37.2989C22.4307 34.7742 23.7153 32.474 25.6483 30.7983C27.5813 29.1226 30.0405 28.1774 32.5982 28.1271C35.1559 28.0768 37.6504 28.9245 39.6478 30.5228L41.6023 28.0845C39.1298 26.1057 36.0618 25.0193 32.895 25.0011C29.7282 24.983 26.648 26.0341 24.153 27.9843C21.6579 29.9346 19.8941 32.6699 19.147 35.7473C18.3999 38.8247 18.7133 42.0643 20.0364 44.9414L17.5171 47.4607L15.334 44.4043C15.2021 44.2197 15.0315 44.066 14.8342 43.9539C14.6369 43.8418 14.4176 43.7741 14.1914 43.7553C13.9653 43.7366 13.7377 43.7674 13.5247 43.8455C13.3116 43.9236 13.1182 44.0472 12.9577 44.2077L3.5827 53.5827C3.307 53.8584 3.14434 54.2272 3.12666 54.6167C3.10897 55.0062 3.23755 55.3883 3.48714 55.6878L6.12482 58.853L4.55345 60.4244C3.63883 61.339 3.125 62.5795 3.125 63.873C3.125 65.1665 3.63883 66.407 4.55345 67.3216C5.46807 68.2362 6.70857 68.75 8.00204 68.75C9.29551 68.75 10.536 68.2362 11.4506 67.3216L12.5 66.2722L17.3931 71.1652L26.0252 95.8286L28.9748 94.7964L20.7297 71.2389L29.0329 68.1252L34.4618 83.326L34.4641 83.3325L34.4641 83.3325L34.4661 83.3381L35.9375 82.8125L37.411 82.2925L35.9822 78.2444L39.2786 68.3552C39.9234 66.4159 40.9084 64.6069 42.1875 63.013V64.0625C42.1875 64.3904 42.2907 64.7101 42.4825 64.9761C42.6742 65.2421 42.9448 65.4411 43.2559 65.5448L46.6768 66.6851L45.3338 74.7431C45.2867 75.0255 45.3181 75.3154 45.4246 75.5811C45.5311 75.8468 45.7085 76.0782 45.9376 76.25L57.8125 85.1562V96.875H60.9375V85.1885L75.8961 74.7175C76.0663 74.5984 76.211 74.4466 76.3217 74.2709C76.4325 74.0952 76.5071 73.8992 76.5413 73.6943L77.9592 65.1867L84.9553 62.3882C85.2453 62.2722 85.4938 62.0721 85.6689 61.8135C85.844 61.5549 85.9375 61.2498 85.9375 60.9375V52.8776C88.3353 54.4392 90.3056 56.5745 91.6698 59.0898C93.034 61.6051 93.749 64.4211 93.75 67.2826V87.0119L88.6192 94.4231L91.1886 96.2019L96.5972 88.3894C96.7781 88.1281 96.8751 87.8178 96.875 87.5V67.2826C96.8739 63.6604 95.9047 60.1043 94.0678 56.9824C92.2308 53.8606 89.593 51.2863 86.4272 49.5262ZM13.8631 47.7216L19.7606 55.9781L12.7001 61.8619L6.80135 54.7833L13.8631 47.7216ZM8.00203 65.625C7.65552 65.625 7.3168 65.5222 7.0287 65.3297C6.7406 65.1372 6.51605 64.8635 6.38345 64.5434C6.25084 64.2233 6.21613 63.871 6.28371 63.5312C6.3513 63.1913 6.51813 62.8791 6.76312 62.6341L8.13364 61.2636L10.3862 63.9667L9.24096 65.1119C8.91161 65.4394 8.46644 65.6237 8.00203 65.625ZM19.1434 68.4962L14.8147 64.1675L22.8753 57.4504C23.1782 57.198 23.3745 56.8404 23.4248 56.4493C23.4751 56.0583 23.3757 55.6626 23.1465 55.3418L19.5477 50.3035L21.6757 48.8854L25 52.2098V56.25C25 56.4271 25.0302 56.603 25.0891 56.77L28.0491 65.1566L19.1434 68.4962ZM52.3566 56.6444L54.8028 61.5369L56.2136 65.7692L55.6007 70.0597L50.7297 57.2545L52.3566 56.6444ZM60.3992 79.6875H59.2629L57.8953 76.0939L59.1677 67.1875H61.1449L62.4495 76.3194L60.3992 79.6875ZM63.7472 60.9375L61.6639 64.0625H58.9387L58.0885 61.5118L62.1162 58.491L63.7472 60.9375ZM65.0061 72.1194L64.1312 65.995L66.7904 62.0062L75.3124 55.1884L65.0061 72.1194ZM77.6087 49.3493L65.9797 58.6527L64.5681 56.5354L73.877 48.5563L75.9875 48.9784C76.532 49.0873 77.0724 49.211 77.6087 49.3493ZM72.1158 38.9971L68.3542 35.7734C68.6157 34.8728 68.749 33.9399 68.75 33.0021C68.7486 31.7091 68.2343 30.4694 67.32 29.5551C66.4056 28.6408 65.166 28.1265 63.8729 28.125C63.7181 28.125 63.5645 28.1327 63.4122 28.1469L63.1861 26.5625H73.0725L72.1158 38.9971ZM50 10.9375C50.0014 9.69472 50.4957 8.50325 51.3745 7.62447C52.2533 6.7457 53.4448 6.25139 54.6875 6.25H70.3125C71.5553 6.25139 72.7468 6.7457 73.6256 7.62447C74.5043 8.50325 74.9986 9.69472 75 10.9375V17.1875H50V10.9375ZM46.875 20.3125H78.125C78.5394 20.3125 78.9369 20.4771 79.2299 20.7701C79.5229 21.0632 79.6875 21.4606 79.6875 21.875C79.6875 22.2894 79.5229 22.6868 79.2299 22.9799C78.9369 23.2729 78.5394 23.4375 78.125 23.4375H46.875C46.4606 23.4375 46.0632 23.2729 45.7702 22.9799C45.4771 22.6868 45.3125 22.2894 45.3125 21.875C45.3125 21.4606 45.4771 21.0632 45.7702 20.7701C46.0632 20.4771 46.4606 20.3125 46.875 20.3125ZM51.3552 45.3125L49.9843 35.7165C49.9532 35.4989 49.8766 35.2904 49.7594 35.1044C49.6422 34.9185 49.4871 34.7594 49.3042 34.6375L45.8303 32.3215L49.121 26.5625H60.0294L60.4524 29.5268C60.4432 29.5359 60.4335 29.5443 60.4244 29.5535L58.2702 31.7077L60.4799 33.9173L62.634 31.7632C62.8791 31.5181 63.1913 31.3513 63.5311 31.2837C63.871 31.2161 64.2233 31.2508 64.5434 31.3834C64.8636 31.516 65.1372 31.7406 65.3298 32.0287C65.5223 32.3168 65.625 32.6556 65.625 33.0021C65.6262 34.1287 65.3487 35.2381 64.8171 36.2314C64.2855 37.2247 63.5164 38.071 62.5783 38.695L62.1823 38.9589C62.0627 39.0352 61.921 39.069 61.7798 39.0551C61.6387 39.0411 61.5064 38.9801 61.4041 38.8819L60.4799 37.9577L58.2702 40.1673L59.1944 41.0915C59.806 41.7032 60.6107 42.0841 61.4715 42.1693C62.3323 42.2545 63.1961 42.0389 63.9158 41.559L64.3117 41.2951C65.3506 40.6028 66.2502 39.7217 66.9638 38.6974L71.875 42.9062V46.1563L62.5818 54.122L59.375 50.9152V47.5222L62.0424 44.8548L59.8327 42.6452L57.1654 45.3125H51.3552ZM57.6135 53.5731L60.1213 56.0809L56.8103 58.5642L55.1395 55.2224L57.6135 53.5731ZM48.9316 64.1427L45.3125 62.9363V60.0028C46.1083 59.4119 46.9537 58.891 47.8393 58.446L54.8148 76.7836C54.8199 76.7981 54.8252 76.8127 54.8307 76.8272L55.9951 79.887L48.5724 74.3199L49.9788 65.8818C50.04 65.5147 49.9681 65.1379 49.7761 64.819C49.5842 64.5002 49.2847 64.2604 48.9316 64.1427ZM75.9822 62.6118C75.733 62.7115 75.5137 62.8737 75.3453 63.0828C75.177 63.2919 75.0654 63.5408 75.0213 63.8056L73.5667 72.5336L64.5854 78.8205L81.6974 50.7091C82.0722 50.8638 82.4439 51.0259 82.8125 51.1956V59.8796L75.9822 62.6118Z" fill="black"/>
<path d="M81.25 80.8246L73.1937 94.5203L75.8872 96.1047L84.1593 82.0422C84.3005 81.8021 84.375 81.5286 84.375 81.25V75H81.25V80.8246Z" fill="black"/>
<path d="M67.3586 9.46655C65.9198 10.4257 64.2293 10.9375 62.5001 10.9375C60.7709 10.9375 59.0804 10.4257 57.6417 9.46655L55.5543 8.07495L53.8209 10.675L55.9082 12.0667C57.8603 13.368 60.154 14.0625 62.5001 14.0625C64.8463 14.0625 67.1399 13.368 69.0921 12.0667L71.1793 10.675L69.4459 8.07495L67.3586 9.46655Z" fill="black"/>
<path d="M32.8125 29.6875C30.9583 29.6875 29.1457 30.2373 27.604 31.2675C26.0623 32.2976 24.8607 33.7618 24.1511 35.4748C23.4416 37.1879 23.2559 39.0729 23.6176 40.8915C23.9794 42.71 24.8723 44.3805 26.1834 45.6916C27.4945 47.0027 29.165 47.8956 30.9835 48.2574C32.8021 48.6191 34.6871 48.4334 36.4002 47.7239C38.1132 47.0143 39.5774 45.8127 40.6075 44.271C41.6377 42.7293 42.1875 40.9167 42.1875 39.0625C42.1847 36.577 41.1961 34.194 39.4385 32.4365C37.681 30.6789 35.298 29.6903 32.8125 29.6875ZM32.8125 45.3125C31.5764 45.3125 30.368 44.9459 29.3402 44.2592C28.3124 43.5724 27.5113 42.5963 27.0383 41.4543C26.5652 40.3122 26.4414 39.0556 26.6826 37.8432C26.9238 36.6308 27.519 35.5172 28.3931 34.6431C29.2672 33.769 30.3808 33.1737 31.5932 32.9326C32.8056 32.6914 34.0622 32.8152 35.2043 33.2883C36.3463 33.7613 37.3224 34.5624 38.0092 35.5902C38.6959 36.618 39.0625 37.8264 39.0625 39.0625C39.0606 40.7195 38.4016 42.3082 37.2299 43.4799C36.0582 44.6516 34.4695 45.3106 32.8125 45.3125Z" fill="black"/>
</svg>
