<svg width="80" height="80" viewBox="0 0 80 80" fill="none" xmlns="http://www.w3.org/2000/svg">
<path d="M37.2355 45.4428H42.7646C43.4803 45.4428 44.0605 44.8626 44.0605 44.1469C44.0605 43.4312 43.4803 42.851 42.7646 42.851H37.2355C36.5198 42.851 35.9396 43.4312 35.9396 44.1469C35.9396 44.8626 36.5198 45.4428 37.2355 45.4428Z" fill="#FFFFF3"/>
<path d="M73.3167 58.6652C73.2795 58.6466 73.2413 58.6298 73.2026 58.6148L63.3858 54.837C62.3593 54.442 61.571 53.6168 61.223 52.5733L60.8296 51.3928C63.0279 48.2369 63.8748 45.139 61.8126 42.0456C60.8792 40.6454 59.7305 39.6366 58.3147 38.9723C58.931 36.6839 59.2657 34.2419 59.2657 31.7063V31.6199H59.3521C60.8289 31.6199 62.0303 30.4185 62.0303 28.9417V26.1771C62.0303 25.1703 61.4713 24.2924 60.648 23.835V20.6479C60.648 9.26255 51.3854 0 40 0C28.6146 0 19.3521 9.26255 19.3521 20.6479V23.835C18.5288 24.2924 17.9698 25.1703 17.9698 26.1771V28.9417C17.9698 30.4185 19.1712 31.6199 20.648 31.6199H20.7344V31.7063C20.7344 34.2419 21.0691 36.6839 21.6854 38.9724C20.2694 39.6368 19.1209 40.6455 18.1875 42.0458C16.1253 45.139 16.9721 48.2369 19.1705 51.393L18.7771 52.5735C18.4292 53.6171 17.641 54.4422 16.6143 54.8371L6.79744 58.6148C6.75857 58.6296 6.72055 58.6466 6.6834 58.6652C3.4136 60.3001 1.38232 63.5867 1.38232 67.2425V75.9395C1.38232 78.1785 3.20384 80 5.4428 80H40H74.5573C76.7962 80 78.6178 78.1785 78.6178 75.9395V67.2425C78.6178 63.5867 76.5865 60.3001 73.3167 58.6652ZM59.6562 43.4834C60.4127 44.6181 61.0307 46.3134 59.0782 49.3761C58.0643 50.9664 56.5421 52.6575 54.8016 54.4263C54.1714 54.2466 53.7367 53.6769 53.7367 53.0155V48.2937C53.7367 48.2348 53.7314 48.1773 53.7238 48.1204C55.2812 46.1977 56.568 43.9504 57.5083 41.4704C58.3586 41.93 59.0537 42.5797 59.6562 43.4834ZM23.9053 37.149H24.2247C25.1377 37.149 25.9957 37.5046 26.6447 38.1534C27.7797 39.2885 29.289 39.9136 30.8942 39.9136H49.1059C50.7111 39.9136 52.2202 39.2885 53.3587 38.15C54.0042 37.5044 54.8624 37.149 55.7754 37.149H56.0947C54.1735 45.9983 47.6864 52.527 40 52.527C32.3136 52.527 25.8266 45.9983 23.9053 37.149ZM27.7101 55.8445C28.4256 55.1081 28.8553 54.1071 28.8553 53.0156V50.794C32.0033 53.5164 35.8506 55.1188 40 55.1188C44.1495 55.1188 47.9968 53.5164 51.1447 50.794V53.0155C51.1447 54.107 51.5743 55.1077 52.2898 55.8441C48.5203 58.198 44.2915 59.4384 40 59.4384C35.7087 59.4384 31.4796 58.1982 27.7101 55.8445ZM40 62.0302C42.958 62.0302 45.8853 61.5003 48.6789 60.48C45.1409 64.0745 41.7732 67.9768 40 72.348C38.2269 67.9768 34.859 64.0743 31.3212 60.4798C34.1148 61.5003 37.0421 62.0302 40 62.0302ZM59.4385 28.9417C59.4385 28.9894 59.3998 29.0281 59.3521 29.0281H56.5011V26.0907H59.3521C59.3998 26.0907 59.4385 26.1294 59.4385 26.1771V28.9417ZM49.5897 29.0281V26.0907H53.9093V29.0281H49.5897ZM41.2959 29.0281V26.0907H46.9979V29.0281H41.2959ZM33.0022 29.0281V26.0907H38.7041V29.0281H33.0022ZM26.0907 29.0281V26.0907H30.4104V29.0281H26.0907ZM51.1447 23.4989H45.4428V20.6479C45.4428 15.3902 45.0012 10.4342 44.1994 6.69235C43.9235 5.40441 43.619 4.31084 43.2821 3.40406C44.9156 4.23188 46.4285 5.6762 47.7068 7.66462C49.9238 11.1134 51.1447 15.7242 51.1447 20.6479V23.4989ZM37.1491 23.4989V20.6479C37.1491 15.9578 37.5159 11.4625 38.182 7.98998C38.8517 4.49866 39.6268 3.08337 40 2.67957C40.3733 3.08337 41.1484 4.49866 41.8181 7.98998C42.4842 11.4625 42.851 15.9578 42.851 20.6479V23.4989H37.1491ZM36.718 3.40423C36.3809 4.31102 36.0766 5.40458 35.8006 6.69253C34.9989 10.4342 34.5573 15.3902 34.5573 20.6479V23.4989H28.8553V20.6479C28.8553 15.7242 30.0762 11.1134 32.2933 7.66479C33.5715 5.6762 35.0844 4.23205 36.718 3.40423ZM58.0562 20.6479V23.4989H53.7365V20.6479C53.7365 15.2333 52.3695 10.1248 49.887 6.26333C49.6011 5.8184 49.3034 5.39698 48.9962 4.9968C54.4066 8.1187 58.0562 13.9651 58.0562 20.6479ZM31.0041 4.99663C30.6967 5.39698 30.3992 5.8184 30.1132 6.26315C27.6306 10.1248 26.2635 15.2333 26.2635 20.6479V23.4989H21.9439V20.6479C21.9439 13.9651 25.5935 8.1187 31.0041 4.99663ZM20.5616 28.9417V26.1771C20.5616 26.1294 20.6003 26.0907 20.648 26.0907H23.499V29.0281H20.648C20.6003 29.0281 20.5616 28.9894 20.5616 28.9417ZM31.797 31.6199C31.7951 31.6486 31.7927 31.6771 31.7927 31.7063V33.0886C31.7927 33.8042 32.3729 34.3844 33.0886 34.3844C33.8043 34.3844 34.3845 33.8042 34.3845 33.0886V31.7063C34.3845 31.6771 34.3821 31.6486 34.3802 31.6199H45.6199C45.618 31.6486 45.6156 31.6771 45.6156 31.7063V33.0886C45.6156 33.8042 46.1958 34.3844 46.9115 34.3844C47.6272 34.3844 48.2074 33.8042 48.2074 33.0886V31.7063C48.2074 31.6771 48.205 31.6486 48.2031 31.6199H56.6739V31.7063C56.6739 32.6733 56.6197 33.6249 56.5168 34.5572H55.7754C54.1702 34.5572 52.6611 35.1824 51.5226 36.3209C50.8771 36.9664 50.0189 37.3218 49.1059 37.3218H30.8942C29.9812 37.3218 29.1231 36.9662 28.4742 36.3174C27.3391 35.1824 25.8298 34.5572 24.2247 34.5572H23.4831C23.3804 33.6249 23.326 32.6733 23.326 31.7063V31.6199H31.797ZM20.3439 43.4834C20.9464 42.5797 21.6415 41.93 22.492 41.4704C23.4323 43.9504 24.719 46.1977 26.2765 48.1204C26.2689 48.1773 26.2635 48.2348 26.2635 48.2937V53.0156C26.2635 53.6771 25.8288 54.2467 25.1987 54.4264C23.4582 52.6576 21.9358 50.9666 20.922 49.3762C18.9695 46.3134 19.5874 44.6182 20.3439 43.4834ZM3.97412 75.9395V67.2425C3.97412 64.5949 5.43433 62.2124 7.78906 61.0105L17.5451 57.256C19.1584 56.6353 20.4253 55.3911 21.0794 53.8075C22.6077 55.5578 24.4241 57.3298 26.272 59.1321C31.7585 64.4831 37.9323 70.5066 38.6359 77.4084H17.797V73.1751C17.797 72.4594 17.2168 71.8792 16.5011 71.8792C15.7854 71.8792 15.2052 72.4594 15.2052 73.1751V77.4082H5.4428C4.63295 77.4082 3.97412 76.7494 3.97412 75.9395ZM76.026 75.9395C76.026 76.7494 75.3671 77.4082 74.5573 77.4082H64.7949V73.1749C64.7949 72.4593 64.2146 71.8791 63.499 71.8791C62.7833 71.8791 62.2031 72.4593 62.2031 73.1749V77.4082H41.3642C42.0678 70.5064 48.2414 64.4829 53.7281 59.1319C55.576 57.3296 57.3923 55.5577 58.9206 53.8073C59.5748 55.3909 60.8417 56.6352 62.455 57.2558L72.211 61.0103C74.5657 62.2124 76.026 64.5947 76.026 67.2425V75.9395Z" fill="#FFFFF3"/>
</svg>
