<svg width="100" height="100" viewBox="0 0 100 100" fill="none" xmlns="http://www.w3.org/2000/svg">
<path d="M76.5625 85.9375C76.5625 88.4239 77.5502 90.8085 79.3084 92.5666C81.0665 94.3248 83.4511 95.3125 85.9375 95.3125H14.0625C11.5761 95.3125 9.19152 94.3248 7.43337 92.5666C5.67522 90.8085 4.6875 88.4239 4.6875 85.9375V4.6875H76.5625V85.9375Z" fill="#FFEFD6"/>
<path d="M85.9375 95.3125C88.4239 95.3125 90.8085 94.3248 92.5666 92.5666C94.3248 90.8085 95.3125 88.4239 95.3125 85.9375V14.0625H89.0625V10.9375H82.8125V7.8125H76.5625V85.9375C76.5625 88.4239 77.5502 90.8085 79.3084 92.5666C81.0665 94.3248 83.4511 95.3125 85.9375 95.3125L85.9375 95.3125Z" fill="#ECD9C2"/>
<path d="M82.8125 10.9375H89.0625V85.9375C89.0625 86.7663 88.7333 87.5612 88.1472 88.1472C87.5612 88.7333 86.7663 89.0625 85.9375 89.0625C85.1087 89.0625 84.3138 88.7333 83.7278 88.1472C83.1417 87.5612 82.8125 86.7663 82.8125 85.9375V10.9375Z" fill="#E1CAB4"/>
<path d="M10.9766 12.5H17.1875V18.7109H10.9766V12.5Z" fill="#FDCA77"/>
<path d="M62.5 12.5H68.75V18.75H62.5V12.5Z" fill="#529DDF"/>
<path d="M26.5625 10.9375H54.6875V20.3125H26.5625V10.9375Z" fill="#68737F"/>
<path d="M40.625 32.8125H70.3125V62.5H40.625V32.8125Z" fill="#D4E4F0"/>
<path d="M53.125 46.875H50.7812L50 43.75L48.4375 42.1875L50 37.5H56.25L59.375 48.4375L53.9062 49.5312L53.125 46.875Z" fill="#FDC5CA"/>
<path d="M64.0624 54.002V62.5H48.4375L48.1074 61.5098C47.2676 58.9901 47.1461 56.2865 47.7563 53.7016C48.3665 51.1168 49.6845 48.753 51.5625 46.875L54.1152 46.2363C55.2954 45.9409 56.5275 45.9184 57.7177 46.1705C58.9079 46.4227 60.025 46.9429 60.984 47.6916C61.943 48.4402 62.7187 49.3977 63.2521 50.4912C63.7856 51.5846 64.0627 52.7853 64.0624 54.002Z" fill="#529DDF"/>
<path d="M95.3125 12.5H90.625V10.9375C90.625 10.5231 90.4604 10.1257 90.1673 9.83267C89.8743 9.53965 89.4769 9.37502 89.0625 9.375H84.375V7.8125C84.375 7.39811 84.2104 7.00069 83.9173 6.70767C83.6243 6.41465 83.2269 6.25002 82.8125 6.25H78.125V4.6875C78.125 4.27311 77.9604 3.87569 77.6673 3.58267C77.3743 3.28965 76.9769 3.12502 76.5625 3.125H4.6875C4.27311 3.12502 3.87569 3.28965 3.58267 3.58267C3.28965 3.87569 3.12502 4.27311 3.125 4.6875V85.9375C3.12825 88.8373 4.28164 91.6174 6.33211 93.6679C8.38259 95.7184 11.1627 96.8717 14.0625 96.875H85.9375C88.8373 96.8717 91.6174 95.7184 93.6679 93.6679C95.7184 91.6174 96.8717 88.8373 96.875 85.9375V14.0625C96.875 13.6481 96.7104 13.2507 96.4173 12.9577C96.1243 12.6646 95.7269 12.5 95.3125 12.5ZM87.5 12.5V85.9375C87.5 86.3519 87.3354 86.7493 87.0424 87.0424C86.7493 87.3354 86.3519 87.5 85.9375 87.5C85.5231 87.5 85.1257 87.3354 84.8326 87.0424C84.5396 86.7493 84.375 86.3519 84.375 85.9375V12.5H87.5ZM14.0625 93.75C11.9912 93.7476 10.0055 92.9238 8.54085 91.4592C7.07623 89.9945 6.25237 88.0088 6.25 85.9375V6.25H75V85.9375C74.9991 87.3934 75.2898 88.8348 75.8549 90.1765C76.42 91.5183 77.248 92.7334 78.2902 93.75H14.0625ZM93.75 85.9375C93.75 88.0095 92.9269 89.9966 91.4618 91.4618C89.9966 92.9269 88.0095 93.75 85.9375 93.75C83.8655 93.75 81.8784 92.9269 80.4132 91.4618C78.9481 89.9966 78.125 88.0095 78.125 85.9375V9.375H81.25V85.9375C81.25 87.1807 81.7439 88.373 82.6229 89.2521C83.502 90.1311 84.6943 90.625 85.9375 90.625C87.1807 90.625 88.373 90.1311 89.2521 89.2521C90.1311 88.373 90.625 87.1807 90.625 85.9375V15.625H93.75V85.9375Z" fill="black"/>
<path d="M10.9766 20.2734H17.1875C17.6019 20.2734 17.9993 20.1088 18.2923 19.8157C18.5853 19.5227 18.7499 19.1253 18.75 18.7109V12.5C18.7499 12.0856 18.5853 11.6882 18.2923 11.3952C17.9993 11.1021 17.6019 10.9375 17.1875 10.9375H10.9766C10.5622 10.9375 10.1648 11.1021 9.87173 11.3952C9.57871 11.6882 9.41408 12.0856 9.41406 12.5V18.7109C9.41408 19.1253 9.57871 19.5227 9.87173 19.8157C10.1648 20.1088 10.5622 20.2734 10.9766 20.2734ZM12.5391 14.0625H15.625V17.1484H12.5391V14.0625Z" fill="black"/>
<path d="M62.5 20.3125H68.75C69.1644 20.3125 69.5618 20.1479 69.8548 19.8548C70.1479 19.5618 70.3125 19.1644 70.3125 18.75V12.5C70.3125 12.0856 70.1479 11.6882 69.8548 11.3952C69.5618 11.1021 69.1644 10.9375 68.75 10.9375H62.5C62.0856 10.9375 61.6882 11.1021 61.3952 11.3952C61.1021 11.6882 60.9375 12.0856 60.9375 12.5V18.75C60.9375 19.1644 61.1021 19.5618 61.3952 19.8548C61.6882 20.1479 62.0856 20.3125 62.5 20.3125ZM64.0625 14.0625H67.1875V17.1875H64.0625V14.0625Z" fill="black"/>
<path d="M26.5625 21.875H54.6875C55.1019 21.875 55.4993 21.7104 55.7923 21.4173C56.0854 21.1243 56.25 20.7269 56.25 20.3125V10.9375C56.25 10.5231 56.0854 10.1257 55.7923 9.83267C55.4993 9.53965 55.1019 9.37502 54.6875 9.375H26.5625C26.1481 9.37502 25.7507 9.53965 25.4577 9.83267C25.1646 10.1257 25 10.5231 25 10.9375V20.3125C25 20.7269 25.1646 21.1243 25.4577 21.4173C25.7507 21.7104 26.1481 21.875 26.5625 21.875ZM28.125 12.5H53.125V18.75H28.125V12.5Z" fill="black"/>
<path d="M9.375 25H71.875V28.125H9.375V25Z" fill="black"/>
<path d="M70.3125 31.25H40.625C40.2106 31.25 39.8132 31.4146 39.5202 31.7077C39.2271 32.0007 39.0625 32.3981 39.0625 32.8125V62.5C39.0625 62.9144 39.2271 63.3118 39.5202 63.6048C39.8132 63.8979 40.2106 64.0625 40.625 64.0625H70.3125C70.7269 64.0625 71.1243 63.8979 71.4173 63.6048C71.7104 63.3118 71.875 62.9144 71.875 62.5V32.8125C71.875 32.3981 71.7104 32.0007 71.4173 31.7077C71.1243 31.4146 70.7269 31.25 70.3125 31.25ZM52.3741 48.2826L54.4952 47.7524C55.445 47.5149 56.4364 47.4971 57.3942 47.7002C58.3519 47.9033 59.2507 48.322 60.0224 48.9245C60.7941 49.527 61.4183 50.2974 61.8476 51.1773C62.2769 52.0572 62.5 53.0233 62.5 54.0024V60.9375H59.0935L57.7822 54.381L54.7178 54.994L55.9065 60.9375H49.5652C48.8498 58.7708 48.7332 56.451 49.2276 54.2234C49.722 51.9958 50.8092 49.9432 52.3741 48.2826ZM51.1261 39.0625H55.0714L56.6109 44.4513C55.6449 44.3957 54.6761 44.4866 53.7373 44.7208L51.9639 45.1641L51.516 43.3712C51.4473 43.0964 51.3052 42.8454 51.1049 42.6451L50.2253 41.7654L51.1261 39.0625ZM68.75 60.9375H65.625V54.0024C65.626 52.1837 65.108 50.4024 64.1319 48.8679C63.1558 47.3333 61.7621 46.1091 60.1145 45.339L57.7524 37.0708C57.6591 36.7443 57.4621 36.4571 57.191 36.2526C56.9199 36.0481 56.5896 35.9375 56.25 35.9375H45.3125V39.0625H47.8321L46.9551 41.6933C46.8634 41.9686 46.8501 42.264 46.9167 42.5465C46.9834 42.8289 47.1274 43.0872 47.3326 43.2924L48.5891 44.5488L49.2366 47.1406C47.71 49.0546 46.6505 51.2982 46.1425 53.6931C45.6345 56.0881 45.6919 58.5686 46.31 60.9375H42.1875V34.375H68.75V60.9375Z" fill="black"/>
<path d="M15.625 31.25H25V34.375H15.625V31.25Z" fill="black"/>
<path d="M28.125 31.25H35.9375V34.375H28.125V31.25Z" fill="black"/>
<path d="M15.625 56.25H25V59.375H15.625V56.25Z" fill="black"/>
<path d="M28.125 56.25H35.9375V59.375H28.125V56.25Z" fill="black"/>
<path d="M9.375 37.5H35.9375V40.625H9.375V37.5Z" fill="black"/>
<path d="M18.75 43.75H28.125V46.875H18.75V43.75Z" fill="black"/>
<path d="M31.25 43.75H35.9375V46.875H31.25V43.75Z" fill="black"/>
<path d="M9.375 43.75H15.625V46.875H9.375V43.75Z" fill="black"/>
<path d="M21.875 50H25V53.125H21.875V50Z" fill="black"/>
<path d="M28.125 50H35.9375V53.125H28.125V50Z" fill="black"/>
<path d="M9.375 50H18.75V53.125H9.375V50Z" fill="black"/>
<path d="M9.375 56.25H12.5V59.375H9.375V56.25Z" fill="black"/>
<path d="M15.625 75H32.8125V78.125H15.625V75Z" fill="black"/>
<path d="M35.9375 75H59.375V78.125H35.9375V75Z" fill="black"/>
<path d="M18.75 62.5H28.125V65.625H18.75V62.5Z" fill="black"/>
<path d="M31.25 62.5H35.9375V65.625H31.25V62.5Z" fill="black"/>
<path d="M9.375 62.5H15.625V65.625H9.375V62.5Z" fill="black"/>
<path d="M21.875 68.75H35.9375V71.875H21.875V68.75Z" fill="black"/>
<path d="M62.5 75H71.875V78.125H62.5V75Z" fill="black"/>
<path d="M56.25 68.75H71.875V71.875H56.25V68.75Z" fill="black"/>
<path d="M39.0625 68.75H53.125V71.875H39.0625V68.75Z" fill="black"/>
<path d="M9.375 68.75H18.75V71.875H9.375V68.75Z" fill="black"/>
<path d="M21.875 81.25H39.0625V84.375H21.875V81.25Z" fill="black"/>
<path d="M56.25 81.25H71.875V84.375H56.25V81.25Z" fill="black"/>
<path d="M42.1875 81.25H53.125V84.375H42.1875V81.25Z" fill="black"/>
<path d="M9.375 81.25H18.75V84.375H9.375V81.25Z" fill="black"/>
<path d="M25 87.5H42.1875V90.625H25V87.5Z" fill="black"/>
<path d="M65.625 87.5H71.875V90.625H65.625V87.5Z" fill="black"/>
<path d="M45.3125 87.5H62.5V90.625H45.3125V87.5Z" fill="black"/>
<path d="M9.375 87.5H21.875V90.625H9.375V87.5Z" fill="black"/>
<path d="M9.375 75H12.5V78.125H9.375V75Z" fill="black"/>
</svg>
