<svg width="100" height="100" viewBox="0 0 100 100" fill="none" xmlns="http://www.w3.org/2000/svg">
<path d="M9.375 85.9375H60.9375V95.3125H9.375C8.1318 95.3125 6.93951 94.8186 6.06044 93.9396C5.18136 93.0605 4.6875 91.8682 4.6875 90.625C4.6875 89.3818 5.18136 88.1895 6.06044 87.3104C6.93951 86.4314 8.1318 85.9375 9.375 85.9375Z" fill="#D4E4F0"/>
<path d="M81.25 85.9375H43.75C41.1612 85.9375 39.0625 88.0362 39.0625 90.625C39.0625 93.2138 41.1612 95.3125 43.75 95.3125H81.25C83.8388 95.3125 85.9375 93.2138 85.9375 90.625C85.9375 88.0362 83.8388 85.9375 81.25 85.9375Z" fill="#C1D7E6"/>
<path d="M79.7128 85.9375C79.0051 85.9375 78.3077 85.7672 77.6797 85.441C77.0517 85.1147 76.5114 84.6421 76.1044 84.0631C75.6975 83.4841 75.4359 82.8157 75.3416 82.1143C75.2474 81.4129 75.3234 80.6991 75.5631 80.0332L86.4501 49.7915C86.7576 48.9374 87.3211 48.199 88.0637 47.6771C88.8064 47.1551 89.692 46.875 90.5998 46.875H49.9748C49.067 46.875 48.1814 47.1551 47.4387 47.6771C46.6961 48.199 46.1326 48.9374 45.8251 49.7915L34.9381 80.0332C34.6984 80.6991 34.6224 81.4129 34.7166 82.1143C34.8109 82.8157 35.0725 83.4841 35.4794 84.0631C35.8864 84.6421 36.4267 85.1147 37.0547 85.441C37.6827 85.7672 38.3801 85.9375 39.0878 85.9375H79.7128Z" fill="#D4E4F0"/>
<path d="M90.5998 46.875C91.3075 46.875 92.0048 47.0453 92.6329 47.3715C93.2609 47.6978 93.8012 48.1704 94.2081 48.7494C94.6151 49.3284 94.8767 49.9968 94.9709 50.6982C95.0652 51.3996 94.9892 52.1134 94.7495 52.7793L83.8625 83.021C83.555 83.8751 82.9915 84.6135 82.2488 85.1354C81.5062 85.6574 80.6205 85.9375 79.7128 85.9375C79.0051 85.9375 78.3077 85.7672 77.6797 85.441C77.0517 85.1147 76.5114 84.6421 76.1044 84.0631C75.6975 83.4841 75.4359 82.8157 75.3416 82.1143C75.2474 81.4129 75.3234 80.6991 75.5631 80.0332L86.4501 49.7915C86.7576 48.9374 87.3211 48.199 88.0637 47.6771C88.8064 47.1551 89.692 46.875 90.5998 46.875Z" fill="#C1D7E6"/>
<path d="M67.1875 51.5625H50V62.5L39.0625 51.5625H4.6875V4.6875H67.1875V51.5625Z" fill="#FFD9B5"/>
<path d="M35.9375 31.7226V43.75H10.9375V31.7226C10.9375 31.5644 10.9434 31.4063 10.9551 31.25C11.0222 30.3057 11.287 29.3861 11.7324 28.5508C11.8105 28.4062 11.8926 28.2637 11.9824 28.125C12.5885 27.1676 13.4269 26.379 14.4196 25.8327C15.4123 25.2863 16.527 24.9999 17.6602 25H29.2148C30.9158 25.0002 32.5535 25.6453 33.7977 26.8051C35.042 27.9649 35.8003 29.5532 35.9199 31.25C35.9316 31.4063 35.9375 31.5644 35.9375 31.7226Z" fill="#D4E4F0"/>
<path d="M25 14.0625H17.1875L14.0625 20.3125L15.625 21.875L17.1875 25H20.3125L23.4375 28.125L26.5625 25L25 14.0625Z" fill="#FDC5CA"/>
<path d="M96.2196 53.3087C96.5443 52.4069 96.6471 51.4402 96.5195 50.4903C96.3919 49.5404 96.0376 48.6351 95.4865 47.851C94.9354 47.0668 94.2036 46.4268 93.3531 45.985C92.5025 45.5432 91.5582 45.3125 90.5997 45.3125H71.875V48.4375H85.351C85.2065 48.7026 85.0825 48.9783 84.9799 49.2622L74.0929 79.5038C73.8083 80.2961 73.6943 81.1396 73.7581 81.979C73.822 82.8184 74.0625 83.6349 74.4637 84.375H39.0878C38.6308 84.375 38.1805 84.2651 37.7749 84.0544C37.3694 83.8437 37.0205 83.5386 36.7577 83.1647C36.4949 82.7908 36.326 82.3592 36.2651 81.9062C36.2043 81.4533 36.2533 80.9924 36.4081 80.5624L43.2827 61.4668L40.3423 60.4082L33.4679 79.5038C33.1833 80.2961 33.0692 81.1396 33.1331 81.979C33.197 82.8184 33.4375 83.6349 33.8387 84.375H9.375C7.7174 84.375 6.12769 85.0335 4.95558 86.2056C3.78348 87.3777 3.125 88.9674 3.125 90.625C3.125 92.2826 3.78348 93.8723 4.95558 95.0444C6.12769 96.2165 7.7174 96.875 9.375 96.875H81.25C82.6236 96.8755 83.9591 96.4233 85.0498 95.5883C86.1405 94.7534 86.9257 93.5823 87.2839 92.2562C87.642 90.9302 87.5532 89.523 87.0311 88.2525C86.509 86.982 85.5828 85.9189 84.3957 85.2278C84.7971 84.7232 85.1135 84.1566 85.3326 83.5503L96.2196 53.3087ZM77.3828 83.1648C77.1173 82.7921 76.9467 82.3603 76.8858 81.9069C76.8249 81.4534 76.8755 80.9919 77.0331 80.5624L87.9203 50.3208C88.1197 49.7699 88.4838 49.2937 88.9631 48.9568C89.4424 48.6198 90.0138 48.4386 90.5997 48.4375C91.0567 48.4375 91.507 48.5474 91.9126 48.7581C92.3181 48.9688 92.667 49.2739 92.9298 49.6478C93.1926 50.0217 93.3615 50.4533 93.4224 50.9063C93.4832 51.3592 93.4342 51.8201 93.2794 52.2501L82.3922 82.4917C82.1928 83.0426 81.8287 83.5188 81.3494 83.8557C80.8701 84.1927 80.2987 84.3739 79.7128 84.375C79.2553 84.3779 78.804 84.2692 78.398 84.0583C77.992 83.8474 77.6435 83.5407 77.3828 83.1648ZM6.25 90.625C6.25095 89.7965 6.58049 89.0022 7.16634 88.4163C7.75218 87.8305 8.54649 87.5009 9.375 87.5H38.3408C37.7901 88.4494 37.5 89.5274 37.5 90.625C37.5 91.7226 37.7901 92.8006 38.3408 93.75H9.375C8.54649 93.7491 7.75218 93.4195 7.16634 92.8337C6.58049 92.2478 6.25095 91.4535 6.25 90.625ZM81.25 93.75H43.75C42.9212 93.75 42.1263 93.4208 41.5403 92.8347C40.9542 92.2487 40.625 91.4538 40.625 90.625C40.625 89.7962 40.9542 89.0013 41.5403 88.4153C42.1263 87.8292 42.9212 87.5 43.75 87.5H81.25C82.0788 87.5 82.8737 87.8292 83.4597 88.4153C84.0458 89.0013 84.375 89.7962 84.375 90.625C84.375 91.4538 84.0458 92.2487 83.4597 92.8347C82.8737 93.4208 82.0788 93.75 81.25 93.75Z" fill="black"/>
<path d="M4.6875 53.125H38.4152L48.8952 63.6049C49.1137 63.8234 49.3921 63.9722 49.6952 64.0325C49.9983 64.0927 50.3124 64.0618 50.5979 63.9435C50.8834 63.8252 51.1274 63.625 51.2991 63.368C51.4708 63.1111 51.5625 62.809 51.5625 62.5V53.125H67.1875C67.6019 53.125 67.9993 52.9604 68.2924 52.6674C68.5854 52.3743 68.75 51.9769 68.75 51.5625V4.6875C68.75 4.2731 68.5854 3.87567 68.2924 3.58265C67.9993 3.28963 67.6019 3.125 67.1875 3.125H4.6875C4.2731 3.125 3.87567 3.28963 3.58265 3.58265C3.28963 3.87567 3.125 4.2731 3.125 4.6875V51.5625C3.125 51.9769 3.28963 52.3743 3.58265 52.6674C3.87567 52.9604 4.2731 53.125 4.6875 53.125ZM6.25 6.25H65.625V50H50C49.5856 50 49.1882 50.1646 48.8951 50.4576C48.6021 50.7507 48.4375 51.1481 48.4375 51.5625V58.7278L40.1673 50.4576C39.8743 50.1646 39.4769 50 39.0625 50H6.25V6.25Z" fill="black"/>
<path d="M28.125 32.8125H31.25V43.75H28.125V32.8125Z" fill="black"/>
<path d="M15.625 32.8125H18.75V43.75H15.625V32.8125Z" fill="black"/>
<path d="M33.8104 24.8291C32.45 23.9203 30.8504 23.4359 29.2144 23.4375H27.9176L26.5468 13.8414C26.4936 13.4691 26.3078 13.1285 26.0237 12.8821C25.7396 12.6357 25.3761 12.5 25 12.5H12.5V15.625H14.6593L12.665 19.6136C12.5183 19.907 12.4677 20.239 12.5202 20.5628C12.5727 20.8865 12.7258 21.1855 12.9577 21.4174L14.3409 22.8006L14.8966 23.9121C13.2817 24.4836 11.8837 25.5415 10.8949 26.9403C9.90604 28.3391 9.37506 30.01 9.375 31.723V43.75H12.5V31.723C12.5 31.0453 12.6335 30.3743 12.8928 29.7481C13.1522 29.122 13.5323 28.5531 14.0115 28.0739C14.4907 27.5947 15.0596 27.2146 15.6857 26.9553C16.3119 26.696 16.9829 26.5625 17.6606 26.5625H19.6653L22.3327 29.2299C22.6257 29.5229 23.0231 29.6875 23.4375 29.6875C23.8519 29.6875 24.2493 29.5229 24.5423 29.2299L27.2098 26.5625H29.2144C29.8921 26.5625 30.5632 26.696 31.1893 26.9553C31.8154 27.2146 32.3843 27.5947 32.8635 28.0739C33.3427 28.5531 33.7228 29.122 33.9822 29.7481C34.2415 30.3743 34.375 31.0453 34.375 31.723V43.75H37.5V31.723C37.5015 30.3587 37.1654 29.0152 36.5216 27.8124C35.8778 26.6095 34.9464 25.5846 33.8104 24.8291ZM18.1532 23.4375L17.0225 21.1761C16.9474 21.026 16.8486 20.8888 16.7298 20.7701L15.9637 20.0039L18.1532 15.625H23.6448L24.9052 24.4476L23.4375 25.9153L22.5222 25L22.9798 24.5424C23.2729 24.2494 23.4375 23.852 23.4375 23.4376C23.4376 23.0232 23.2729 22.6257 22.9799 22.3327C22.6869 22.0396 22.2895 21.875 21.8751 21.875C21.4607 21.8749 21.0632 22.0396 20.7702 22.3326L19.6653 23.4375H18.1532Z" fill="black"/>
<path d="M48.4375 12.5H57.8125V15.625H48.4375V12.5Z" fill="black"/>
<path d="M40.625 18.75H46.875V21.875H40.625V18.75Z" fill="black"/>
<path d="M50 18.75H62.5V21.875H50V18.75Z" fill="black"/>
<path d="M40.625 25H46.875V28.125H40.625V25Z" fill="black"/>
<path d="M50 25H56.25V28.125H50V25Z" fill="black"/>
<path d="M40.625 31.25H46.875V34.375H40.625V31.25Z" fill="black"/>
<path d="M50 31.25H59.375V34.375H50V31.25Z" fill="black"/>
<path d="M40.625 37.5H46.875V40.625H40.625V37.5Z" fill="black"/>
<path d="M50 37.5H56.25V40.625H50V37.5Z" fill="black"/>
</svg>
