<svg width="50" height="50" viewBox="0 0 50 50" fill="none" xmlns="http://www.w3.org/2000/svg">
<path d="M7.8125 35.9376H25V40.6251H7.8125V35.9376Z" fill="#9F764A"/>
<path d="M43.7893 45.3125H43.7893C44.8149 45.3125 45.7984 44.9051 46.5236 44.1799C47.2488 43.4547 47.6562 42.4711 47.6562 41.4455V41.4455C47.6562 40.9377 47.5562 40.4348 47.3619 39.9657C47.1676 39.4965 46.8827 39.0702 46.5236 38.7111L31.25 23.4375L25.7812 28.9062L41.0549 44.1799C41.414 44.539 41.8403 44.8238 42.3094 45.0181C42.7786 45.2125 43.2814 45.3125 43.7893 45.3125Z" fill="#BA8B5D"/>
<path d="M24.2137 24.2191L26.5571 21.8757L29.6817 25.0003L27.3383 27.3437L24.2137 24.2191Z" fill="#9F764A"/>
<path d="M8.59143 17.969L20.3084 6.25199L31.2443 17.1878L19.5273 28.9048L8.59143 17.969Z" fill="#BA8B5D"/>
<path d="M6.89721 17.1876C6.60703 17.1876 6.31968 17.2448 6.05159 17.3558C5.7835 17.4669 5.5399 17.6296 5.33471 17.8348C5.12952 18.04 4.96675 18.2836 4.8557 18.5517C4.74466 18.8198 4.6875 19.1071 4.6875 19.3973C4.6875 19.6875 4.74466 19.9749 4.8557 20.2429C4.96675 20.511 5.12952 20.7546 5.33471 20.9598L16.5403 32.1654C16.7455 32.3706 16.9891 32.5334 17.2572 32.6444C17.5253 32.7555 17.8126 32.8126 18.1028 32.8126C18.393 32.8126 18.6803 32.7555 18.9484 32.6444C19.2165 32.5334 19.4601 32.3706 19.6653 32.1654C19.8705 31.9602 20.0332 31.7166 20.1443 31.4485C20.2553 31.1804 20.3125 30.8931 20.3125 30.6029C20.3125 30.3127 20.2553 30.0254 20.1443 29.7573C20.0332 29.4892 19.8705 29.2456 19.6653 29.0404L8.45971 17.8348C8.25452 17.6296 8.01092 17.4669 7.74283 17.3558C7.47473 17.2448 7.18739 17.1876 6.89721 17.1876Z" fill="#BA8B5D"/>
<path d="M21.741 2.34375C21.4508 2.34375 21.1634 2.4009 20.8953 2.51195C20.6272 2.623 20.3836 2.78577 20.1785 2.99096C19.9733 3.19615 19.8105 3.43974 19.6995 3.70784C19.5884 3.97593 19.5312 4.26327 19.5313 4.55346C19.5312 4.84364 19.5884 5.13098 19.6995 5.39907C19.8105 5.66717 19.9733 5.91077 20.1785 6.11596L31.384 17.3215C31.5892 17.5267 31.8328 17.6895 32.1009 17.8005C32.369 17.9116 32.6564 17.9688 32.9465 17.9688C33.2367 17.9688 33.5241 17.9116 33.7922 17.8005C34.0603 17.6895 34.3038 17.5267 34.509 17.3215C34.7142 17.1164 34.877 16.8728 34.988 16.6047C35.0991 16.3366 35.1562 16.0492 35.1562 15.759C35.1562 15.4689 35.0991 15.1815 34.988 14.9134C34.877 14.6453 34.7142 14.4017 34.509 14.1965L23.3035 2.99096C23.0983 2.78577 22.8547 2.623 22.5866 2.51195C22.3185 2.40091 22.0311 2.34375 21.741 2.34375Z" fill="#BA8B5D"/>
<path d="M5.4688 21.0938C5.02819 21.7547 4.83018 22.5478 4.90845 23.3383C4.98672 24.1287 5.33644 24.8676 5.8981 25.4293L12.0707 31.6019C12.6324 32.1636 13.3713 32.5133 14.1618 32.5916C14.9522 32.6699 15.7454 32.4719 16.4063 32.0312L5.4688 21.0938Z" fill="#9F764A"/>
<path d="M34.375 14.0626C34.8156 13.4016 35.0136 12.6085 34.9354 11.818C34.8571 11.0276 34.5074 10.2887 33.9457 9.72701L27.7731 3.55436C27.2114 2.99269 26.4725 2.64297 25.682 2.5647C24.8916 2.48643 24.0984 2.68444 23.4375 3.12505L34.375 14.0626Z" fill="#9F764A"/>
<path d="M8.5907 17.9686L10.9341 15.6252L21.8699 26.5611L19.5266 28.9045L8.5907 17.9686Z" fill="#FDCA77"/>
<path d="M17.9657 8.59558L20.3091 6.2522L31.2449 17.188L28.9015 19.5314L17.9657 8.59558Z" fill="#FDCA77"/>
<path d="M28.3478 31.4769L33.8157 26.009L34.9204 27.1137L29.4525 32.5816L28.3478 31.4769Z" fill="#FDCA77"/>
<path d="M39.283 42.4138L44.7509 36.9459L45.8556 38.0506L40.3876 43.5185L39.283 42.4138Z" fill="#FDCA77"/>
<path d="M25.7812 39.8437V35.9375C25.7812 35.7303 25.6989 35.5316 25.5524 35.3851C25.4059 35.2386 25.2072 35.1563 25 35.1562H7.8125C7.6053 35.1563 7.40659 35.2386 7.26008 35.3851C7.11356 35.5316 7.03125 35.7303 7.03125 35.9375V39.8437C5.58135 39.8454 4.1913 40.4221 3.16606 41.4473C2.14083 42.4725 1.56413 43.8626 1.5625 45.3125C1.5625 45.5197 1.64481 45.7184 1.79133 45.8649C1.93784 46.0114 2.13655 46.0937 2.34375 46.0937H30.4688C30.6759 46.0937 30.8747 46.0114 31.0212 45.8649C31.1677 45.7184 31.25 45.5197 31.25 45.3125C31.2484 43.8626 30.6717 42.4725 29.6464 41.4473C28.6212 40.4221 27.2312 39.8454 25.7812 39.8437ZM8.59375 36.7187H24.2188V39.8437H8.59375V36.7187ZM3.20349 44.5312C3.38477 43.6496 3.86446 42.8574 4.56171 42.2881C5.25896 41.7189 6.13114 41.4074 7.03125 41.4062H25.7812C26.6814 41.4074 27.5535 41.7189 28.2508 42.2881C28.948 42.8574 29.4277 43.6496 29.609 44.5312H3.20349Z" fill="black"/>
<path d="M47.076 38.1587L31.8024 22.885C31.6559 22.7386 31.4572 22.6563 31.25 22.6563C31.0428 22.6563 30.8441 22.7386 30.6976 22.885L29.6875 23.8951L27.6674 21.875L31.2912 18.2512C31.8798 18.6421 32.5878 18.8121 33.2897 18.7309C33.9916 18.6498 34.6422 18.3228 35.126 17.8079C35.6099 17.2929 35.8959 16.6234 35.9333 15.9178C35.9707 15.2121 35.7572 14.5161 35.3304 13.9529C35.6984 13.1672 35.8159 12.2873 35.667 11.4326C35.5181 10.5778 35.1101 9.7895 34.4981 9.17445L28.3255 3.00198C27.7106 2.38992 26.9223 1.98176 26.0675 1.83285C25.2127 1.68394 24.3328 1.80147 23.5471 2.16952C22.9839 1.74317 22.2879 1.5299 21.5825 1.56747C20.8771 1.60504 20.2077 1.89103 19.6929 2.37479C19.1781 2.85855 18.8512 3.50888 18.7699 4.2106C18.6886 4.91233 18.8583 5.62018 19.2488 6.20881L8.55257 16.9051C7.96397 16.5141 7.25598 16.3442 6.55406 16.4253C5.85214 16.5065 5.2016 16.8335 4.71772 17.3484C4.23384 17.8633 3.94786 18.5329 3.91045 19.2385C3.87304 19.9441 4.08662 20.6402 4.51334 21.2034C4.14538 21.9891 4.02788 22.869 4.17675 23.7237C4.32563 24.5785 4.73369 25.3668 5.34564 25.9818L11.5182 32.1543C12.1333 32.7664 12.9217 33.1747 13.7765 33.3237C14.6314 33.4727 15.5114 33.3552 16.2973 32.9872C16.8606 33.4134 17.5565 33.6265 18.2619 33.5888C18.9672 33.5511 19.6365 33.265 20.1511 32.7812C20.6658 32.2974 20.9927 31.6471 21.0739 30.9455C21.1551 30.2438 20.9855 29.536 20.5949 28.9475L24.2188 25.3236L26.2389 27.3438L25.2288 28.3538C25.1563 28.4263 25.0987 28.5125 25.0595 28.6073C25.0202 28.7021 25 28.8037 25 28.9063C25 29.0089 25.0202 29.1105 25.0595 29.2052C25.0987 29.3 25.1563 29.3862 25.2288 29.4587L40.5025 44.7324C41.3743 45.6036 42.5564 46.093 43.789 46.0928C45.0215 46.0926 46.2035 45.6028 47.0751 44.7313C47.9466 43.8598 48.4363 42.6777 48.4365 41.4452C48.4367 40.2127 47.9473 39.0305 47.076 38.1587ZM27.2206 4.10682L33.3932 10.2793C33.7034 10.5911 33.9314 10.975 34.0569 11.3965C34.1823 11.8181 34.2014 12.2642 34.1122 12.6949L24.8052 3.38775C25.2358 3.29855 25.6819 3.31755 26.1035 3.44304C26.525 3.56853 26.9089 3.7966 27.2206 4.10682ZM21.741 3.12501C21.9286 3.12449 22.1145 3.16121 22.2879 3.23302C22.4613 3.30484 22.6187 3.41033 22.7511 3.54339L33.9566 14.7491C34.2242 15.017 34.3744 15.3802 34.3742 15.7589C34.3741 16.1376 34.2236 16.5007 33.9558 16.7684C33.688 17.0361 33.3249 17.1866 32.9463 17.1868C32.5676 17.1869 32.2044 17.0367 31.9365 16.7691L20.7309 5.56346C20.5311 5.36369 20.3951 5.10917 20.34 4.83208C20.2848 4.55499 20.3131 4.26778 20.4212 4.00677C20.5294 3.74576 20.7125 3.52267 20.9474 3.36572C21.1823 3.20877 21.4585 3.125 21.741 3.12501ZM12.6231 31.0494L6.45051 24.877C6.14036 24.5651 5.91235 24.1813 5.78688 23.7597C5.66142 23.3382 5.64241 22.8921 5.73156 22.4614L15.0386 31.7685C14.6079 31.8577 14.1618 31.8387 13.7403 31.7132C13.3188 31.5877 12.9349 31.3597 12.6231 31.0494ZM18.1028 32.0313C17.9151 32.0318 17.7292 31.9951 17.5558 31.9232C17.3825 31.8514 17.225 31.7459 17.0927 31.6129L5.88713 20.4072C5.61959 20.1392 5.4694 19.776 5.46955 19.3974C5.46971 19.0187 5.6202 18.6556 5.88796 18.3879C6.15571 18.1201 6.51882 17.9696 6.89748 17.9695C7.27613 17.9694 7.63935 18.1196 7.9073 18.3871L19.1129 29.5928C19.3127 29.7926 19.4487 30.0471 19.5038 30.3242C19.5589 30.6013 19.5306 30.8885 19.4225 31.1495C19.3144 31.4105 19.1313 31.6336 18.8964 31.7906C18.6615 31.9475 18.3853 32.0313 18.1028 32.0313ZM21.875 25.4576L13.0524 16.635L11.9476 17.74L20.7701 26.5625L19.5312 27.8014L9.69866 17.9687L20.3125 7.35487L30.1451 17.1875L28.9551 18.3775L20.1325 9.55497L19.0277 10.6599L27.8502 19.4824L21.875 25.4576ZM25.3236 24.2188L26.5625 22.9799L28.5826 25L27.3438 26.2389L25.3236 24.2188ZM43.7893 44.5313C43.3839 44.5324 42.9823 44.453 42.6078 44.2979C42.2332 44.1428 41.8932 43.9149 41.6073 43.6275L40.9486 42.9688L44.3024 39.615L43.1976 38.51L39.8437 41.8639L30.0111 32.0313L33.3649 28.6775L32.2601 27.5725L28.9062 30.9264L26.8861 28.9063L31.25 24.5423L45.9712 39.2636C46.4028 39.6952 46.6967 40.245 46.8157 40.8436C46.9348 41.4422 46.8737 42.0626 46.6401 42.6264C46.4066 43.1903 46.0111 43.6722 45.5036 44.0112C44.9962 44.3503 44.3996 44.5313 43.7893 44.5313Z" fill="black"/>
</svg>
