<svg width="100" height="100" viewBox="0 0 100 100" fill="none" xmlns="http://www.w3.org/2000/svg">
<path d="M51.5625 25H81.25V95.3125H51.5625V25Z" fill="#529DDF"/>
<path d="M57.8125 31.25H81.25V37.5H57.8125V31.25Z" fill="#D4E4F0"/>
<path d="M57.8125 43.75H81.25V50H57.8125V43.75Z" fill="#D4E4F0"/>
<path d="M57.8125 56.25H81.25V62.5H57.8125V56.25Z" fill="#D4E4F0"/>
<path d="M57.8125 68.75H81.25V75H57.8125V68.75Z" fill="#D4E4F0"/>
<path d="M15.625 4.6875H51.5625V95.3125H15.625V4.6875Z" fill="#529DDF"/>
<path d="M21.875 10.9375H51.5625V17.1875H21.875V10.9375Z" fill="#D4E4F0"/>
<path d="M21.875 23.4375H51.5625V29.6875H21.875V23.4375Z" fill="#D4E4F0"/>
<path d="M21.875 35.9375H51.5625V42.1875H21.875V35.9375Z" fill="#D4E4F0"/>
<path d="M21.875 48.4375H51.5625V54.6875H21.875V48.4375Z" fill="#D4E4F0"/>
<path d="M29.6875 60.9375H51.5625V67.1875H29.6875V60.9375Z" fill="#D4E4F0"/>
<path d="M29.6875 73.4375H51.5625V79.6875H29.6875V73.4375Z" fill="#D4E4F0"/>
<path d="M4.6875 60.9375H29.6875V95.3125H4.6875V60.9375Z" fill="#529DDF"/>
<path d="M10.9375 67.1875H29.6875V73.4375H10.9375V67.1875Z" fill="#D4E4F0"/>
<path d="M10.9375 79.6875H29.6875V85.9375H10.9375V79.6875Z" fill="#D4E4F0"/>
<path d="M71.875 82.8125H62.5L65.625 56.25H68.75L71.875 82.8125Z" fill="#BA8B5D"/>
<path d="M40.625 71.875H53.125C53.125 73.5326 52.4665 75.1223 51.2944 76.2944C50.1223 77.4665 48.5326 78.125 46.875 78.125C45.2174 78.125 43.6277 77.4665 42.4556 76.2944C41.2835 75.1223 40.625 73.5326 40.625 71.875Z" fill="#FAB53F"/>
<path d="M82.8125 71.875H95.3125C95.3125 73.5326 94.654 75.1223 93.4819 76.2944C92.3098 77.4665 90.7201 78.125 89.0625 78.125C87.4049 78.125 85.8152 77.4665 84.6431 76.2944C83.471 75.1223 82.8125 73.5326 82.8125 71.875Z" fill="#FAB53F"/>
<path d="M67.1875 42.1875C68.0163 42.1875 68.8112 42.5167 69.3972 43.1028C69.9833 43.6888 70.3125 44.4837 70.3125 45.3125V50H64.0625V45.3125C64.0625 44.4837 64.3917 43.6888 64.9778 43.1028C65.5638 42.5167 66.3587 42.1875 67.1875 42.1875Z" fill="#BA8B5D"/>
<path d="M75 89.0625H59.375C57.6491 89.0625 56.25 90.4616 56.25 92.1875C56.25 93.9134 57.6491 95.3125 59.375 95.3125H75C76.7259 95.3125 78.125 93.9134 78.125 92.1875C78.125 90.4616 76.7259 89.0625 75 89.0625Z" fill="#BA8B5D"/>
<path d="M92.1875 53.125C92.1875 52.2962 91.8583 51.5013 91.2722 50.9153C90.6862 50.3292 89.8913 50 89.0625 50C88.0437 50 87.0476 49.6984 86.1999 49.1333C83.8086 47.5391 80.999 46.6884 78.125 46.6884C75.251 46.6884 72.4414 47.5391 70.0501 49.1333L68.75 50H65.625L63.2745 48.433C61.2358 47.0738 58.8175 46.3985 56.3695 46.5048C53.9216 46.611 51.5709 47.4933 49.6576 49.0239C48.8678 49.6558 47.8865 50 46.875 50C46.0462 50 45.2513 50.3292 44.6653 50.9153C44.0792 51.5013 43.75 52.2962 43.75 53.125C43.75 53.9538 44.0792 54.7487 44.6653 55.3347C45.2513 55.9208 46.0462 56.25 46.875 56.25C47.8865 56.25 48.8678 55.9058 49.6576 55.2739C51.5709 53.7433 53.9216 52.861 56.3695 52.7548C58.8175 52.6485 61.2357 53.3239 63.2745 54.683L65.625 56.25H68.75L70.0501 55.3833C72.4414 53.7891 75.251 52.9384 78.125 52.9384C80.999 52.9384 83.8086 53.7891 86.1999 55.3833C87.0476 55.9484 88.0437 56.25 89.0625 56.25C89.8913 56.25 90.6862 55.9208 91.2722 55.3347C91.8583 54.7487 92.1875 53.9538 92.1875 53.125Z" fill="#9F764A"/>
<path d="M62.5 82.8125H71.875C72.7038 82.8125 73.4987 83.1417 74.0847 83.7278C74.6708 84.3138 75 85.1087 75 85.9375V89.0625H59.375V85.9375C59.375 85.1087 59.7042 84.3138 60.2903 83.7278C60.8763 83.1417 61.6712 82.8125 62.5 82.8125Z" fill="#9F764A"/>
<path d="M96.7626 71.2951L96.7632 71.2948L96.7539 71.2714L96.7513 71.2649L91.1705 57.313C91.6175 57.0875 92.0259 56.7924 92.3803 56.4388C93.035 55.7827 93.4805 54.9473 93.6606 54.0381C93.8407 53.1289 93.7474 52.1868 93.3924 51.3306C93.0374 50.4745 92.4366 49.7427 91.6659 49.2278C90.8953 48.7129 89.9893 48.4379 89.0625 48.4375C88.3515 48.4387 87.6562 48.228 87.0655 47.8323C84.8501 46.3549 82.3031 45.4496 79.6522 45.1974C77.0013 44.9452 74.3292 45.3541 71.875 46.3873V45.3125C71.875 44.0693 71.3811 42.877 70.5021 41.9979C69.623 41.1189 68.4307 40.625 67.1875 40.625C65.9443 40.625 64.752 41.1189 63.8729 41.9979C62.9939 42.877 62.5 44.0693 62.5 45.3125V46.2025C60.2804 45.1396 57.8056 44.7258 55.361 45.0088C52.9163 45.2918 50.6015 46.2602 48.6835 47.8022C48.1711 48.2146 47.5328 48.4388 46.875 48.4375C45.8198 48.4371 44.7953 48.7927 43.9672 49.4468C43.1392 50.101 42.5561 51.0153 42.3123 52.042C42.0684 53.0687 42.1781 54.1476 42.6235 55.1042C43.069 56.0608 43.8242 56.8391 44.7669 57.3133L39.1862 71.2649L39.1836 71.2714L39.1743 71.2948L39.1749 71.2951C39.1008 71.4794 39.0626 71.6763 39.0625 71.875C39.0625 73.947 39.8856 75.9341 41.3507 77.3993C42.8159 78.8644 44.803 79.6875 46.875 79.6875C48.947 79.6875 50.9341 78.8644 52.3993 77.3993C53.8644 75.9341 54.6875 73.947 54.6875 71.875C54.6874 71.6763 54.6492 71.4794 54.5751 71.2951L54.5757 71.2948L54.5664 71.2714L54.5638 71.2649L49.0227 57.4121C49.6039 57.1906 50.1475 56.8808 50.6342 56.4936C52.2888 55.1702 54.3215 54.4076 56.4382 54.3159C58.5549 54.2243 60.6459 54.8084 62.4086 55.9837L63.9612 57.0188L61.0847 81.4689C60.136 81.7706 59.3078 82.3661 58.7196 83.1693C58.1314 83.9726 57.8138 84.9419 57.8125 85.9375V87.7688C56.77 88.1373 55.8913 88.8625 55.3318 89.8162C54.7723 90.7699 54.568 91.8907 54.755 92.9805C54.942 94.0703 55.5083 95.059 56.3537 95.7716C57.1991 96.4843 58.2693 96.8751 59.375 96.875H75C76.1057 96.8751 77.1759 96.4843 78.0213 95.7716C78.8667 95.059 79.433 94.0703 79.62 92.9805C79.807 91.8907 79.6027 90.7699 79.0432 89.8162C78.4837 88.8625 77.605 88.1373 76.5625 87.7688V85.9375C76.5612 84.9419 76.2436 83.9726 75.6554 83.1693C75.0672 82.3661 74.239 81.7706 73.2903 81.4689L70.4138 57.0188L70.9177 56.6828C73.05 55.2553 75.5582 54.4932 78.1242 54.493C80.6902 54.4929 83.1985 55.2547 85.331 56.6818C85.818 57.0054 86.3452 57.264 86.8993 57.4511L81.3737 71.2649L81.3711 71.2714L81.3618 71.2948L81.3624 71.2951C81.2883 71.4794 81.2501 71.6763 81.25 71.875C81.25 73.947 82.0731 75.9341 83.5382 77.3993C85.0034 78.8644 86.9905 79.6875 89.0625 79.6875C91.1345 79.6875 93.1216 78.8644 94.5868 77.3993C96.0519 75.9341 96.875 73.947 96.875 71.875C96.8749 71.6763 96.8367 71.4794 96.7626 71.2951ZM93.0047 70.3125H85.1203L89.0625 60.4572L93.0047 70.3125ZM65.625 45.3125C65.625 44.8981 65.7896 44.5007 66.0826 44.2076C66.3757 43.9146 66.7731 43.75 67.1875 43.75C67.6019 43.75 67.9993 43.9146 68.2924 44.2076C68.5854 44.5007 68.75 44.8981 68.75 45.3125V48.1221L68.2768 48.4375H66.0978L65.625 48.1224V45.3125ZM50.8172 70.3125H42.9328L46.875 60.4572L50.8172 70.3125ZM46.875 76.5625C45.9059 76.5614 44.9609 76.2604 44.1696 75.7009C43.3783 75.1414 42.7795 74.3508 42.4553 73.4375H51.2947C50.9705 74.3508 50.3717 75.1414 49.5804 75.7009C48.7891 76.2604 47.8441 76.5614 46.875 76.5625ZM67.3605 57.8125L70.1179 81.25H64.2571L67.0145 57.8125H67.3605ZM75 93.75H59.375C58.9606 93.75 58.5632 93.5854 58.2701 93.2924C57.9771 92.9993 57.8125 92.6019 57.8125 92.1875C57.8125 91.7731 57.9771 91.3757 58.2701 91.0826C58.5632 90.7896 58.9606 90.625 59.375 90.625H75C75.4144 90.625 75.8118 90.7896 76.1049 91.0826C76.3979 91.3757 76.5625 91.7731 76.5625 92.1875C76.5625 92.6019 76.3979 92.9993 76.1049 93.2924C75.8118 93.5854 75.4144 93.75 75 93.75ZM73.4375 87.5H60.9375V85.9375C60.938 85.5232 61.1027 85.1261 61.3957 84.8332C61.6886 84.5402 62.0857 84.3755 62.5 84.375H71.875C72.2893 84.3755 72.6864 84.5402 72.9793 84.8332C73.2723 85.1261 73.437 85.5232 73.4375 85.9375V87.5ZM69.1841 54.0827L68.2768 54.6875H66.098L64.142 53.3836C61.8277 51.8406 59.0826 51.0737 56.3036 51.1938C53.5247 51.314 50.856 52.3151 48.6835 54.0522C48.1711 54.4646 47.5328 54.6888 46.875 54.6875C46.4606 54.6875 46.0632 54.5229 45.7701 54.2299C45.4771 53.9368 45.3125 53.5394 45.3125 53.125C45.3125 52.7106 45.4771 52.3132 45.7701 52.0201C46.0632 51.7271 46.4606 51.5625 46.875 51.5625C48.2418 51.5639 49.5681 51.0986 50.6344 50.2436C52.2864 48.9152 54.3197 48.1493 56.4375 48.0575C58.5554 47.9658 60.6473 48.5529 62.4081 49.7334L63.1952 50.2586L63.1953 50.2585L63.1962 50.2592L64.7587 51.3002C65.0152 51.4713 65.3167 51.5626 65.625 51.5625H68.75C69.0585 51.5625 69.36 51.4712 69.6167 51.3L70.9314 50.4234C70.9986 50.3777 71.0674 50.3334 71.1512 50.2813C73.275 48.9295 75.746 48.224 78.2634 48.2507C80.7809 48.2775 83.2363 49.0352 85.331 50.4318C86.4352 51.1703 87.7341 51.5638 89.0625 51.5625C89.4769 51.5625 89.8743 51.7271 90.1674 52.0201C90.4604 52.3132 90.625 52.7106 90.625 53.125C90.625 53.5394 90.4604 53.9368 90.1674 54.2299C89.8743 54.5229 89.4769 54.6875 89.0625 54.6875C88.3517 54.6887 87.6567 54.4781 87.0661 54.0827C84.4205 52.3119 81.3086 51.3666 78.1251 51.3666C74.9416 51.3666 71.8297 52.3119 69.1841 54.0827ZM89.0625 76.5625C88.0934 76.5614 87.1483 76.2604 86.3571 75.7009C85.5658 75.1414 84.9669 74.3508 84.6428 73.4375H93.4822C93.1581 74.3508 92.5592 75.1414 91.7679 75.7009C90.9767 76.2604 90.0316 76.5614 89.0625 76.5625Z" fill="black"/>
<path d="M29.6875 59.375H4.6875C4.27311 59.375 3.87569 59.5396 3.58267 59.8327C3.28965 60.1257 3.12502 60.5231 3.125 60.9375V95.3125C3.12502 95.7269 3.28965 96.1243 3.58267 96.4173C3.87569 96.7104 4.27311 96.875 4.6875 96.875H29.6875C30.1019 96.875 30.4993 96.7104 30.7923 96.4173C31.0854 96.1243 31.25 95.7269 31.25 95.3125V60.9375C31.25 60.5231 31.0854 60.1257 30.7923 59.8327C30.4993 59.5396 30.1019 59.375 29.6875 59.375ZM6.25 93.75V62.5H28.125V65.625H10.9375C10.5231 65.625 10.1257 65.7896 9.83267 66.0827C9.53965 66.3757 9.37502 66.7731 9.375 67.1875V73.4375C9.37502 73.8519 9.53965 74.2493 9.83267 74.5423C10.1257 74.8354 10.5231 75 10.9375 75H28.125V78.125H10.9375C10.5231 78.125 10.1257 78.2896 9.83267 78.5827C9.53965 78.8757 9.37502 79.2731 9.375 79.6875V85.9375C9.37502 86.3519 9.53965 86.7493 9.83267 87.0423C10.1257 87.3354 10.5231 87.5 10.9375 87.5H28.125V93.75H6.25ZM28.125 68.75V71.875H12.5V68.75H28.125ZM28.125 81.25V84.375H12.5V81.25H28.125Z" fill="black"/>
<path d="M50 93.75H34.375V96.875H51.5625C51.9769 96.875 52.3743 96.7104 52.6673 96.4173C52.9604 96.1243 53.125 95.7269 53.125 95.3125V81.25H50V93.75Z" fill="black"/>
<path d="M17.1875 6.25H50V9.375H21.875C21.4606 9.37502 21.0632 9.53965 20.7702 9.83267C20.4771 10.1257 20.3125 10.5231 20.3125 10.9375V17.1875C20.3125 17.6019 20.4771 17.9993 20.7702 18.2923C21.0632 18.5854 21.4606 18.75 21.875 18.75H50V21.875H21.875C21.4606 21.875 21.0632 22.0396 20.7702 22.3327C20.4771 22.6257 20.3125 23.0231 20.3125 23.4375V29.6875C20.3125 30.1019 20.4771 30.4993 20.7702 30.7923C21.0632 31.0854 21.4606 31.25 21.875 31.25H50V34.375H21.875C21.4606 34.375 21.0632 34.5396 20.7702 34.8327C20.4771 35.1257 20.3125 35.5231 20.3125 35.9375V42.1875C20.3125 42.6019 20.4771 42.9993 20.7702 43.2923C21.0632 43.5854 21.4606 43.75 21.875 43.75H51.5625C51.9769 43.75 52.3743 43.5854 52.6673 43.2923C52.9604 42.9993 53.125 42.6019 53.125 42.1875V4.6875C53.125 4.27311 52.9604 3.87569 52.6673 3.58267C52.3743 3.28965 51.9769 3.12502 51.5625 3.125H15.625C15.2106 3.12502 14.8132 3.28965 14.5202 3.58267C14.2271 3.87569 14.0625 4.27311 14.0625 4.6875V56.25H17.1875V6.25ZM50 40.625H23.4375V37.5H50V40.625ZM23.4375 15.625V12.5H50V15.625H23.4375ZM23.4375 28.125V25H50V28.125H23.4375Z" fill="black"/>
<path d="M39.0625 50V46.875H21.875C21.4606 46.875 21.0632 47.0396 20.7702 47.3327C20.4771 47.6257 20.3125 48.0231 20.3125 48.4375V54.6875C20.3125 55.1019 20.4771 55.4993 20.7702 55.7923C21.0632 56.0854 21.4606 56.25 21.875 56.25H39.0625V53.125H23.4375V50H39.0625Z" fill="black"/>
<path d="M34.375 59.375H40.625V62.5H34.375V59.375Z" fill="black"/>
<path d="M34.375 65.625H37.5V68.75H34.375V65.625Z" fill="black"/>
<path d="M34.375 71.875H37.5V75H34.375V71.875Z" fill="black"/>
<path d="M34.375 78.125H39.0625V81.25H34.375V78.125Z" fill="black"/>
<path d="M57.8125 39.0625H79.6875V42.1875H82.8125V25C82.8125 24.5856 82.6479 24.1882 82.3548 23.8952C82.0618 23.6021 81.6644 23.4375 81.25 23.4375H56.25V26.5625H79.6875V29.6875H57.8125C57.3981 29.6875 57.0007 29.8521 56.7077 30.1452C56.4146 30.4382 56.25 30.8356 56.25 31.25V37.5C56.25 37.9144 56.4146 38.3118 56.7077 38.6048C57.0007 38.8979 57.3981 39.0625 57.8125 39.0625ZM59.375 32.8125H79.6875V35.9375H59.375V32.8125Z" fill="black"/>
</svg>
