<svg width="100" height="100" viewBox="0 0 100 100" fill="none" xmlns="http://www.w3.org/2000/svg">
<path d="M4.6875 14.0527H60.9375V95.2928H4.6875V14.0527Z" fill="#529DDF"/>
<path d="M10.9375 20.3027H54.6875V89.0428H10.9375V20.3027Z" fill="#D4E4F0"/>
<path d="M21.875 51.5527C20.218 51.5509 18.6293 50.8918 17.4576 49.7201C16.2859 48.5484 15.6269 46.9598 15.625 45.3027V43.7402C15.625 43.535 15.6654 43.3319 15.7439 43.1423C15.8224 42.9527 15.9375 42.7805 16.0826 42.6354C16.2277 42.4903 16.4 42.3752 16.5896 42.2967C16.7791 42.2181 16.9823 42.1777 17.1875 42.1777H26.5625C26.7677 42.1777 26.9709 42.2181 27.1605 42.2967C27.35 42.3752 27.5223 42.4903 27.6674 42.6354C27.8125 42.7805 27.9276 42.9527 28.0061 43.1423C28.0846 43.3319 28.125 43.535 28.125 43.7402V45.3027C28.1231 46.9598 27.4641 48.5484 26.2924 49.7201C25.1207 50.8918 23.532 51.5509 21.875 51.5527Z" fill="#FAB53F"/>
<path d="M43.75 51.5527C42.093 51.5509 40.5043 50.8918 39.3326 49.7201C38.1609 48.5484 37.5019 46.9598 37.5 45.3027V43.7402C37.5 43.535 37.5404 43.3319 37.6189 43.1423C37.6974 42.9527 37.8125 42.7805 37.9576 42.6354C38.1027 42.4903 38.275 42.3752 38.4645 42.2967C38.6541 42.2181 38.8573 42.1777 39.0625 42.1777H48.4375C48.6427 42.1777 48.8459 42.2181 49.0355 42.2967C49.225 42.3752 49.3973 42.4903 49.5424 42.6354C49.6875 42.7805 49.8026 42.9527 49.8811 43.1423C49.9596 43.3319 50 43.535 50 43.7402V45.3027C49.9981 46.9598 49.3391 48.5484 48.1674 49.7201C46.9957 50.8918 45.407 51.5509 43.75 51.5527Z" fill="#FAB53F"/>
<path d="M42.1875 20.3028H39.1484C38.4811 20.3028 37.8244 20.135 37.2388 19.8148C36.6533 19.4945 36.1577 19.0322 35.7977 18.4702C35.4376 17.9083 35.2247 17.2648 35.1785 16.599C35.1323 15.9332 35.2543 15.2665 35.5332 14.6602L37.0664 11.3301C37.3951 10.6165 37.5391 9.83172 37.485 9.04791C37.4309 8.26409 37.1804 7.50649 36.7568 6.84484C36.3331 6.18318 35.7497 5.63875 35.0605 5.26164C34.3712 4.88454 33.5982 4.68689 32.8125 4.68689C32.0268 4.68689 31.2538 4.88454 30.5645 5.26164C29.8752 5.63875 29.2919 6.18318 28.8682 6.84484C28.4446 7.50649 28.1941 8.26409 28.14 9.04791C28.0859 9.83172 28.2298 10.6165 28.5586 11.3301L30.0918 14.6602C30.3707 15.2665 30.4927 15.9332 30.4465 16.599C30.4003 17.2648 30.1873 17.9083 29.8273 18.4702C29.4673 19.0321 28.9717 19.4945 28.3861 19.8147C27.8006 20.135 27.1439 20.3028 26.4766 20.3028H23.4375C21.78 20.303 20.1904 20.9615 19.0183 22.1336C17.8463 23.3057 17.1877 24.8953 17.1875 26.5528H48.4375C48.4373 24.8953 47.7787 23.3057 46.6067 22.1336C45.4346 20.9616 43.845 20.303 42.1875 20.3028ZM32.8125 10.9278C32.5035 10.9278 32.2014 10.8362 31.9444 10.6645C31.6875 10.4928 31.4872 10.2488 31.3689 9.96325C31.2507 9.67774 31.2197 9.36357 31.28 9.06047C31.3403 8.75738 31.4891 8.47897 31.7076 8.26045C31.9262 8.04193 32.2046 7.89312 32.5077 7.83283C32.8108 7.77254 33.1249 7.80348 33.4104 7.92174C33.696 8.04 33.94 8.24027 34.1117 8.49723C34.2834 8.75418 34.375 9.05627 34.375 9.3653C34.3751 9.57051 34.3347 9.77372 34.2562 9.96331C34.1777 10.1529 34.0626 10.3252 33.9175 10.4703C33.7724 10.6154 33.6001 10.7305 33.4105 10.809C33.2209 10.8875 33.0177 10.9279 32.8125 10.9278Z" fill="#68737F"/>
<path d="M50 82.8125H68.75V89.0625H50V82.8125Z" fill="#9F764A"/>
<path d="M46.2833 69.7208L58.4042 81.8417C58.712 82.1495 59.0774 82.3936 59.4795 82.5602C59.8817 82.7268 60.3127 82.8125 60.7479 82.8125C61.1832 82.8125 61.6142 82.7268 62.0164 82.5602C62.4185 82.3936 62.7839 82.1495 63.0917 81.8417C63.3995 81.5339 63.6436 81.1685 63.8102 80.7664C63.9768 80.3642 64.0625 79.9332 64.0625 79.4979C64.0625 79.0627 63.9768 78.6317 63.8102 78.2295C63.6436 77.8274 63.3995 77.462 63.0917 77.1542L50.9708 65.0333C50.663 64.7255 50.2976 64.4814 49.8955 64.3148C49.4934 64.1482 49.0623 64.0625 48.6271 64.0625C48.1918 64.0625 47.7608 64.1482 47.3586 64.3148C46.9565 64.4814 46.5911 64.7255 46.2833 65.0333C45.9755 65.3411 45.7314 65.7065 45.5648 66.1086C45.3982 66.5108 45.3125 66.9418 45.3125 67.3771C45.3125 67.8123 45.3982 68.2433 45.5648 68.6455C45.7314 69.0476 45.9755 69.413 46.2833 69.7208Z" fill="#BA8B5D"/>
<path d="M65.0333 50.9708L77.1542 63.0917C77.462 63.3995 77.8274 63.6436 78.2295 63.8102C78.6317 63.9767 79.0627 64.0625 79.4979 64.0625C79.9332 64.0625 80.3642 63.9767 80.7664 63.8102C81.1685 63.6436 81.5339 63.3995 81.8417 63.0917C82.1495 62.7839 82.3936 62.4185 82.5602 62.0164C82.7268 61.6142 82.8125 61.1832 82.8125 60.7479C82.8125 60.3127 82.7268 59.8816 82.5602 59.4795C82.3936 59.0774 82.1495 58.712 81.8417 58.4042L69.7208 46.2833C69.413 45.9755 69.0476 45.7314 68.6455 45.5648C68.2433 45.3982 67.8123 45.3125 67.3771 45.3125C66.9418 45.3125 66.5108 45.3982 66.1086 45.5648C65.7065 45.7314 65.3411 45.9755 65.0333 46.2833C64.7255 46.5911 64.4814 46.9565 64.3148 47.3586C64.1482 47.7608 64.0625 48.1918 64.0625 48.6271C64.0625 49.0623 64.1482 49.4933 64.3148 49.8955C64.4814 50.2976 64.7255 50.663 65.0333 50.9708Z" fill="#BA8B5D"/>
<path d="M51.5507 65.6248L65.611 51.5644L76.5468 62.5003L62.4865 76.5606L51.5507 65.6248Z" fill="#BA8B5D"/>
<path d="M70.3125 76.5625L76.5625 70.3125L94.0181 87.7681C94.4285 88.1785 94.754 88.6657 94.9761 89.2018C95.1982 89.738 95.3125 90.3127 95.3125 90.8931C95.3125 91.4734 95.1982 92.0481 94.9761 92.5843C94.754 93.1205 94.4285 93.6077 94.0181 94.0181C93.6077 94.4285 93.1205 94.754 92.5843 94.9761C92.0481 95.1982 91.4735 95.3125 90.8931 95.3125C90.3127 95.3125 89.738 95.1982 89.2018 94.9761C88.6657 94.754 88.1785 94.4285 87.7681 94.0181L70.3125 76.5625Z" fill="#BA8B5D"/>
<path d="M51.55 65.6244L55.4556 61.7188L66.3915 72.6546L62.4858 76.5602L51.55 65.6244Z" fill="#FDCA77"/>
<path d="M61.7062 55.4705L65.6119 51.5648L76.5477 62.5007L72.6421 66.4063L61.7062 55.4705Z" fill="#FDCA77"/>
<path d="M73.8791 80.1447L80.1282 73.8956L82.3377 76.1051L76.0886 82.3542L73.8791 80.1447Z" fill="#FDCA77"/>
<path d="M84.8467 91.1147L91.0957 84.8657L93.3053 87.0752L87.0562 93.3243L84.8467 91.1147Z" fill="#FDCA77"/>
<path d="M59.375 42.1875H62.5V14.0625C62.5 13.6481 62.3354 13.2507 62.0423 12.9577C61.7493 12.6646 61.3519 12.5 60.9375 12.5H40.625V15.625H59.375V42.1875Z" fill="black"/>
<path d="M6.25 15.625H25V12.5H4.6875C4.27311 12.5 3.87569 12.6646 3.58267 12.9577C3.28965 13.2507 3.12502 13.6481 3.125 14.0625V95.3024C3.125 95.7167 3.28957 96.1141 3.58251 96.4071C3.87545 96.7001 4.27278 96.8648 4.68711 96.8649L39.0621 96.875L39.0629 93.75L6.25 93.7403V15.625Z" fill="black"/>
<path d="M32.8125 10.9375C33.6754 10.9375 34.375 10.2379 34.375 9.375C34.375 8.51206 33.6754 7.8125 32.8125 7.8125C31.9496 7.8125 31.25 8.51206 31.25 9.375C31.25 10.2379 31.9496 10.9375 32.8125 10.9375Z" fill="black"/>
<path d="M12.5 21.875H17.1918C16.1734 23.2254 15.6233 24.8712 15.625 26.5625C15.625 26.9769 15.7896 27.3743 16.0827 27.6674C16.3757 27.9604 16.7731 28.125 17.1875 28.125H48.4375C48.8519 28.125 49.2493 27.9604 49.5423 27.6674C49.8354 27.3743 50 26.9769 50 26.5625C50.0017 24.8712 49.4516 23.2254 48.4332 21.875H53.125V54.6875H56.25V20.3125C56.25 19.8981 56.0854 19.5007 55.7923 19.2077C55.4993 18.9147 55.1019 18.7501 54.6875 18.75H39.1479C38.8306 18.7509 38.5162 18.6888 38.2229 18.5674C37.9297 18.4459 37.6635 18.2675 37.4397 18.0424C37.0916 17.6925 36.8586 17.2448 36.7717 16.7589C36.6848 16.2731 36.7482 15.7723 36.9534 15.3235L38.4863 11.9938C38.9245 11.0421 39.1163 9.99548 39.044 8.95023C38.9717 7.90499 38.6376 6.89472 38.0725 6.01242C37.5075 5.13012 36.7295 4.40413 35.8103 3.90129C34.8912 3.39844 33.8602 3.13489 32.8125 3.13489C31.7648 3.13489 30.7338 3.39844 29.8147 3.90129C28.8955 4.40413 28.1175 5.13012 27.5525 6.01242C26.9874 6.89472 26.6533 7.90499 26.581 8.95023C26.5087 9.99548 26.7005 11.0421 27.1387 11.9938L28.6716 15.3235C28.8768 15.7723 28.9402 16.2731 28.8533 16.7589C28.7664 17.2448 28.5334 17.6925 28.1853 18.0424C27.9615 18.2675 27.6953 18.4459 27.4021 18.5674C27.1088 18.6888 26.7944 18.7509 26.4771 18.75H10.9375C10.5231 18.7501 10.1257 18.9147 9.83267 19.2077C9.53965 19.5007 9.37502 19.8981 9.375 20.3125V89.0524C9.37502 89.4667 9.53957 89.864 9.83247 90.157C10.1254 90.4501 10.5226 90.6147 10.9369 90.6149L40.6244 90.625L40.6256 87.5L12.5 87.4905V21.875ZM26.4771 21.875C27.205 21.877 27.9261 21.7346 28.5986 21.4561C29.2711 21.1775 29.8818 20.7684 30.3951 20.2523C31.1933 19.4497 31.7277 18.4228 31.9269 17.3086C32.1261 16.1944 31.9807 15.046 31.5102 14.0166L29.9772 10.6869C29.7879 10.2764 29.6901 9.82967 29.6907 9.37763C29.6912 8.92559 29.7901 8.47908 29.9805 8.06907C30.2308 7.52885 30.6305 7.07151 31.1323 6.75099C31.634 6.43047 32.217 6.26016 32.8124 6.26014C33.4079 6.26012 33.9908 6.43039 34.4927 6.75087C34.9945 7.07136 35.3941 7.52867 35.6445 8.06887C35.8349 8.47892 35.9338 8.92546 35.9343 9.37753C35.9349 9.8296 35.8371 10.2764 35.6478 10.6869L34.1148 14.0166C33.6443 15.046 33.4989 16.1944 33.6981 17.3086C33.8974 18.4228 34.4317 19.4497 35.2299 20.2523C35.7432 20.7683 36.3539 21.1775 37.0264 21.4561C37.6989 21.7346 38.42 21.877 39.1479 21.875H42.1875C43.1566 21.8762 44.1017 22.1771 44.8929 22.7366C45.6842 23.2961 46.2831 24.0867 46.6072 25H19.0178C19.342 24.0867 19.9408 23.2961 20.7321 22.7366C21.5234 22.1771 22.4684 21.8762 23.4375 21.875H26.4771Z" fill="black"/>
<path d="M37.5 45.3126C37.5 46.9702 38.1585 48.5599 39.3306 49.732C40.5027 50.9041 42.0924 51.5626 43.75 51.5626C45.4076 51.5626 46.9973 50.9041 48.1694 49.732C49.3415 48.5599 50 46.9702 50 45.3126V43.7501C49.9999 43.467 49.9225 43.1893 49.776 42.947L49.7774 42.9461L46.5098 37.5001H48.4375V34.3751H45.5021C45.1517 34.376 44.8046 34.3075 44.4808 34.1734C44.1571 34.0393 43.8632 33.8423 43.6161 33.5938C43.0293 33.007 42.3232 32.5532 41.5457 32.263C40.7681 31.9728 39.9374 31.8531 39.1095 31.9119C38.2817 31.9707 37.4762 32.2068 36.7476 32.604C36.0189 33.0012 35.3841 33.5504 34.8862 34.2143L34.375 34.8959V32.8126H31.25V34.8959L30.7388 34.2143C30.2409 33.5504 29.6061 33.0012 28.8774 32.604C28.1488 32.2068 27.3433 31.9707 26.5155 31.9119C25.6876 31.8531 24.8569 31.9728 24.0793 32.263C23.3018 32.5532 22.5957 33.007 22.0089 33.5938C21.7618 33.8423 21.4679 34.0393 21.1442 34.1734C20.8204 34.3075 20.4733 34.376 20.1229 34.3751H17.1875V37.5001H19.1152L15.8476 42.9461L15.849 42.947C15.7025 43.1893 15.6251 43.467 15.625 43.7501V45.3126C15.625 46.9702 16.2835 48.5599 17.4556 49.732C18.6277 50.9041 20.2174 51.5626 21.875 51.5626C23.5326 51.5626 25.1223 50.9041 26.2944 49.732C27.4665 48.5599 28.125 46.9702 28.125 45.3126V43.7501C28.1249 43.467 28.0475 43.1893 27.901 42.947L27.9024 42.9461L23.8296 36.1582C23.9636 36.0463 24.0938 35.9286 24.2187 35.8037C24.4889 35.5334 24.814 35.3243 25.1721 35.1907C25.5301 35.057 25.9127 35.0018 26.2939 35.0289C26.6751 35.056 27.046 35.1647 27.3816 35.3476C27.7171 35.5306 28.0094 35.7835 28.2387 36.0892L29.9999 38.4375C30.1455 38.6316 30.3342 38.7891 30.5512 38.8976C30.7682 39.0061 31.0074 39.0626 31.25 39.0626V51.7198C29.4867 52.0823 27.9023 53.0416 26.7638 54.4361C25.6253 55.8306 25.0024 57.5749 25 59.3751C25 59.7895 25.1646 60.1869 25.4577 60.4799C25.7507 60.7729 26.1481 60.9376 26.5625 60.9376H39.0625C39.4769 60.9376 39.8743 60.7729 40.1673 60.4799C40.4604 60.1869 40.625 59.7895 40.625 59.3751C40.6226 57.5749 39.9997 55.8306 38.8612 54.4361C37.7227 53.0416 36.1383 52.0823 34.375 51.7198V39.0626C34.6176 39.0626 34.8568 39.0061 35.0738 38.8976C35.2908 38.7891 35.4795 38.6316 35.6251 38.4375L37.3863 36.0892C37.6156 35.7835 37.9079 35.5305 38.2434 35.3476C38.579 35.1647 38.9499 35.056 39.3311 35.0289C39.7123 35.0018 40.0949 35.057 40.4529 35.1907C40.8109 35.3243 41.1361 35.5334 41.4062 35.8037C41.5312 35.9286 41.6614 36.0463 41.7953 36.1582L37.7226 42.9461L37.724 42.947C37.5775 43.1893 37.5001 43.467 37.5 43.7501V45.3126ZM21.875 48.4376C21.0465 48.4366 20.2522 48.1071 19.6663 47.5212C19.0805 46.9354 18.7509 46.1411 18.75 45.3126H25C24.9991 46.1411 24.6695 46.9354 24.0837 47.5212C23.4978 48.1071 22.7035 48.4366 21.875 48.4376ZM19.9472 42.1876L21.875 38.9745L23.8028 42.1876H19.9472ZM37.2322 57.8126H28.3928C28.716 56.8987 29.3145 56.1074 30.1061 55.5477C30.8976 54.9881 31.8431 54.6876 32.8125 54.6876C33.7819 54.6876 34.7274 54.9881 35.5189 55.5477C36.3105 56.1074 36.909 56.8987 37.2322 57.8126H37.2322ZM43.75 48.4376C42.9215 48.4366 42.1272 48.1071 41.5413 47.5212C40.9555 46.9354 40.6259 46.1411 40.625 45.3126H46.875C46.8741 46.1411 46.5445 46.9354 45.9587 47.5212C45.3728 48.1071 44.5785 48.4366 43.75 48.4376ZM41.8222 42.1876L43.75 38.9745L45.6778 42.1876H41.8222Z" fill="black"/>
<path d="M15.625 62.5H25V65.625H15.625V62.5Z" fill="black"/>
<path d="M15.625 68.75H28.125V71.875H15.625V68.75Z" fill="black"/>
<path d="M31.25 68.75H39.0625V71.875H31.25V68.75Z" fill="black"/>
<path d="M15.625 75H21.875V78.125H15.625V75Z" fill="black"/>
<path d="M25 75H35.9375V78.125H25V75Z" fill="black"/>
<path d="M39.0625 75H45.3125V78.125H39.0625V75Z" fill="black"/>
<path d="M15.625 81.25H37.5V84.375H15.625V81.25Z" fill="black"/>
<path d="M95.1231 86.6633L77.6674 69.2077C77.3743 68.9147 76.9769 68.7502 76.5625 68.7502C76.1481 68.7502 75.7507 68.9147 75.4576 69.2077L73.4375 71.2277L71.7411 69.5313L76.6003 64.6722C77.5903 65.4031 78.8199 65.7328 80.0428 65.5952C81.2657 65.4576 82.3913 64.8628 83.1941 63.9302C83.9969 62.9975 84.4175 61.7959 84.3716 60.5662C84.3257 59.3365 83.8167 58.1695 82.9466 57.2993L70.8258 45.1785C69.9555 44.3088 68.7887 43.8001 67.5591 43.7544C66.3296 43.7086 65.1282 44.1292 64.1957 44.9319C63.2632 45.7346 62.6685 46.86 62.5307 48.0826C62.393 49.3053 62.7224 50.5348 63.4529 51.5248L51.5247 63.453C50.5347 62.7221 49.3051 62.3924 48.0822 62.53C46.8594 62.6677 45.7337 63.2624 44.9309 64.195C44.1281 65.1277 43.7075 66.3293 43.7534 67.559C43.7993 68.7887 44.3083 69.9557 45.1784 70.8259L55.6026 81.2501H50C49.5856 81.2501 49.1882 81.4147 48.8952 81.7078C48.6021 82.0008 48.4375 82.3982 48.4375 82.8126V87.6573C46.6742 88.0198 45.0898 88.9791 43.9513 90.3736C42.8128 91.7681 42.1899 93.5124 42.1875 95.3126C42.1875 95.727 42.3521 96.1244 42.6452 96.4174C42.9382 96.7104 43.3356 96.8751 43.75 96.8751H75C75.4144 96.8751 75.8118 96.7104 76.1048 96.4174C76.3979 96.1244 76.5625 95.727 76.5625 95.3126C76.5601 93.5124 75.9372 91.7681 74.7987 90.3736C73.6602 88.9791 72.0758 88.0198 70.3125 87.6573V82.8126C70.3125 82.3982 70.1479 82.0008 69.8548 81.7078C69.5618 81.4147 69.1644 81.2501 68.75 81.2501H65.2982C65.5934 80.485 65.6908 79.6577 65.5814 78.8449C65.472 78.0322 65.1592 77.2601 64.6721 76.6004L69.5312 71.7412L71.2276 73.4376L69.2076 75.4577C68.9146 75.7507 68.75 76.1482 68.75 76.5626C68.75 76.977 68.9146 77.3745 69.2076 77.6675L86.6632 95.1232C87.7851 96.245 89.3066 96.8753 90.8932 96.8753C92.4797 96.8753 94.0013 96.245 95.1231 95.1232C96.2449 94.0013 96.8752 92.4798 96.8752 90.8933C96.8752 89.3067 96.2449 87.7852 95.1231 86.6633V86.6633ZM64.1964 72.6563L62.5 74.3527L53.7724 65.6251L65.625 53.7725L74.3526 62.5001L72.6562 64.1965L66.7299 58.2702L64.5201 60.48L70.4464 66.4063L66.4062 70.4465L60.4799 64.5202L58.2701 66.73L64.1964 72.6563ZM67.3771 46.8751C67.6073 46.8745 67.8353 46.9195 68.0479 47.0076C68.2606 47.0957 68.4536 47.2251 68.6159 47.3884L80.7367 59.5092C81.0653 59.8377 81.2499 60.2834 81.2499 60.748C81.2499 61.2127 81.0653 61.6583 80.7367 61.9868C80.4082 62.3154 79.9626 62.5 79.4979 62.5C79.0333 62.5 78.5876 62.3154 78.2591 61.9868L66.1383 49.866C65.8932 49.621 65.7263 49.3088 65.6587 48.969C65.591 48.6291 65.6257 48.2768 65.7583 47.9566C65.8909 47.6365 66.1155 47.3628 66.4037 47.1703C66.6918 46.9778 67.0306 46.8751 67.3771 46.8751ZM73.1697 93.7501H45.5803C45.9045 92.8368 46.5033 92.0462 47.2946 91.4867C48.0859 90.9272 49.0309 90.6262 50 90.6251H68.75C69.7191 90.6262 70.6642 90.9272 71.4554 91.4867C72.2467 92.0462 72.8456 92.8368 73.1697 93.7501ZM67.1875 87.5001H51.5625V84.3751H67.1875V87.5001ZM59.5091 80.7368L47.3883 68.616C47.2256 68.4533 47.0965 68.2602 47.0085 68.0476C46.9204 67.8351 46.8751 67.6073 46.8751 67.3772C46.8751 67.1471 46.9204 66.9193 47.0085 66.7067C47.0965 66.4942 47.2256 66.3011 47.3883 66.1384C47.551 65.9757 47.7441 65.8466 47.9566 65.7586C48.1692 65.6705 48.397 65.6252 48.6271 65.6252C48.8572 65.6252 49.085 65.6705 49.2975 65.7586C49.5101 65.8466 49.7032 65.9757 49.8659 66.1384L61.9867 78.2592C62.3153 78.5877 62.4999 79.0334 62.4999 79.498C62.4999 79.9627 62.3153 80.4083 61.9867 80.7368C61.6582 81.0654 61.2126 81.25 60.7479 81.25C60.2833 81.25 59.8376 81.0654 59.5091 80.7368ZM90.8932 93.7501C90.5179 93.7511 90.1461 93.6777 89.7993 93.5341C89.4526 93.3905 89.1377 93.1795 88.8731 92.9133L88.18 92.2202L90.2 90.2001L87.9902 87.9903L85.9701 90.0104L77.2098 81.2502L79.2299 79.23L77.0201 77.0202L74.9999 79.0403L72.5222 76.5626L76.5625 72.5223L92.9132 88.8732C93.3128 89.2727 93.5849 89.7818 93.6951 90.3359C93.8053 90.8901 93.7488 91.4645 93.5325 91.9865C93.3163 92.5085 92.9501 92.9547 92.4803 93.2686C92.0105 93.5826 91.4582 93.7501 90.8932 93.7501Z" fill="black"/>
</svg>
