<svg width="80" height="80" viewBox="0 0 80 80" fill="none" xmlns="http://www.w3.org/2000/svg">
<g clip-path="url(#clip0)">
<path d="M47.185 44.3297C48.8237 45.2515 49.7636 46.443 49.7636 47.599C49.7636 48.315 50.3437 48.8951 51.0596 48.8951C51.7756 48.8951 52.3557 48.315 52.3557 47.599C52.3557 44.2537 48.9355 41.4855 44.061 40.4848V38.6132C44.061 37.8972 43.4809 37.3171 42.765 37.3171C42.049 37.3171 41.4689 37.8972 41.4689 38.6132V40.1342C40.9877 40.1009 40.4983 40.082 40.0001 40.082C39.5019 40.082 39.0125 40.101 38.5312 40.1342V38.6132C38.5312 37.8972 37.9511 37.3171 37.2352 37.3171C36.5193 37.3171 35.9392 37.8972 35.9392 38.6132V40.4848C31.0647 41.4855 27.6445 44.2537 27.6445 47.599C27.6445 50.9444 31.0647 53.7126 35.9392 54.7133V64.5003C34.7829 64.221 33.7236 63.8211 32.8152 63.3102C31.1765 62.3884 30.2366 61.1967 30.2366 60.0409C30.2366 59.3249 29.6565 58.7448 28.9406 58.7448C28.2246 58.7448 27.6445 59.3249 27.6445 60.0409C27.6445 63.3862 31.0647 66.1544 35.9392 67.1551V69.0267C35.9392 69.7427 36.5193 70.3228 37.2352 70.3228C37.9511 70.3228 38.5312 69.7427 38.5312 69.0267V67.5057C39.0125 67.539 39.5019 67.5579 40.0001 67.5579C40.4983 67.5579 40.9877 67.5389 41.4689 67.5057V69.0267C41.4689 69.7427 42.049 70.3228 42.765 70.3228C43.4809 70.3228 44.061 69.7427 44.061 69.0267V67.1551C48.9355 66.1544 52.3557 63.3862 52.3557 60.0409C52.3557 56.6955 48.9355 53.9273 44.061 52.9266V43.1396C45.2173 43.4191 46.2765 43.8188 47.185 44.3297ZM32.8152 50.8684C31.1765 49.9466 30.2366 48.7549 30.2366 47.599C30.2366 46.4432 31.1763 45.2515 32.8152 44.3297C33.7236 43.8188 34.7829 43.4191 35.9392 43.1396V52.0583C34.7828 51.779 33.7236 51.3793 32.8152 50.8684ZM40.0001 64.966C39.5034 64.966 39.013 64.9461 38.5312 64.9079V55.0639C39.0125 55.0972 39.5019 55.1161 40.0001 55.1161C40.4967 55.1161 40.9872 55.1359 41.4689 55.1741V64.9079C40.9872 64.9461 40.4967 64.966 40.0001 64.966ZM47.185 56.7717C48.8237 57.6935 49.7636 58.885 49.7636 60.041C49.7636 61.1967 48.8239 62.3886 47.185 63.3103C46.2765 63.8213 45.2173 64.221 44.061 64.5004V55.5818C45.2173 55.861 46.2765 56.2607 47.185 56.7717ZM41.4689 52.5764C40.9877 52.543 40.4983 52.5242 40.0001 52.5242C39.5034 52.5242 39.013 52.5043 38.5312 52.4661V42.7323C39.013 42.6941 39.5034 42.6743 40.0001 42.6743C40.4967 42.6743 40.9872 42.6941 41.4689 42.7323V52.5764Z" fill="#FFFFF3"/>
<path d="M47.3998 25.8351C47.9073 25.1572 48.2082 24.3161 48.2082 23.4062C48.2082 21.9496 47.4369 20.6701 46.2816 19.9533C49.1152 17.9671 50.973 14.6795 50.973 10.9642V3.99323C50.973 2.64725 50.3022 1.40132 49.1785 0.660334C48.0547 -0.0806547 46.6448 -0.206457 45.4084 0.323882L39.9999 2.64172L34.5916 0.323882C33.3545 -0.206284 31.9451 -0.0806547 30.8215 0.660334C29.6978 1.40132 29.027 2.64725 29.027 3.99323V10.964C29.027 14.6793 30.8848 17.9671 33.7184 19.9532C32.5632 20.67 31.7918 21.9492 31.7918 23.406C31.7918 24.316 32.0927 25.1572 32.6002 25.8349C20.2134 29.113 11.0552 40.4162 11.0552 53.8195V64.8792C11.0552 73.2167 17.8382 79.9997 26.1757 79.9997H53.8245C62.162 79.9997 68.945 73.2167 68.945 64.8792V53.8195C68.945 40.4162 59.7868 29.1132 47.3998 25.8351ZM39.9883 24.8748H35.8528C35.0428 24.8748 34.3839 24.2159 34.3839 23.406C34.3839 22.596 35.0428 21.9371 35.8528 21.9371H39.9925C39.9949 21.9371 39.9973 21.9375 39.9997 21.9375C39.9999 21.9375 39.9999 21.9375 40.0001 21.9375C40.0003 21.9375 40.0003 21.9375 40.0004 21.9375C40.0028 21.9375 40.0053 21.9371 40.0077 21.9371H44.1474C44.9573 21.9371 45.6162 22.596 45.6162 23.406C45.6162 24.2159 44.9573 24.8748 44.1474 24.8748H40.0103C40.0075 24.8748 40.0049 24.8748 40.0022 24.8748H39.9994C39.9958 24.8748 39.992 24.8748 39.9883 24.8748ZM31.619 10.964V3.99323C31.619 3.51421 31.8483 3.08807 32.2484 2.82437C32.4839 2.66902 32.748 2.59039 33.0151 2.59039C33.2016 2.59039 33.3898 2.62876 33.5709 2.70635L39.4898 5.24313C39.8159 5.38293 40.1846 5.38293 40.5107 5.24313L46.4296 2.70635C46.8703 2.51747 47.3521 2.5605 47.752 2.82455C48.1518 3.08807 48.3813 3.51421 48.3813 3.9934V10.9642C48.3813 14.8917 45.6652 18.1954 42.0129 19.0993L43.9686 14.2103C44.2343 13.5457 43.911 12.7916 43.2464 12.5257C42.5825 12.2599 41.8275 12.5829 41.5617 13.2478L40.0003 17.1515L38.4388 13.2478C38.173 12.583 37.4182 12.2602 36.7541 12.5257C36.0895 12.7916 35.7662 13.5457 36.032 14.2103L37.9876 19.0993C34.3352 18.1952 31.619 14.8917 31.619 10.964ZM66.3529 64.8792C66.3529 71.7875 60.7327 77.4076 53.8245 77.4076H26.1757C19.2674 77.4076 13.6473 71.7875 13.6473 64.8792V53.8195C13.6473 40.1325 24.1366 28.8506 37.4986 27.5863L36.1567 29.599C35.7596 30.1945 35.9207 30.9992 36.5162 31.3961C36.737 31.5436 36.9869 31.6141 37.2338 31.6141C37.6527 31.6141 38.0636 31.4114 38.3133 31.0367L39.9999 28.5068L41.6865 31.0367C41.9362 31.4114 42.3471 31.6141 42.766 31.6141C43.0131 31.6141 43.2628 31.5436 43.4837 31.3961C44.0791 30.999 44.2402 30.1945 43.8431 29.599L42.5013 27.5861C55.8634 28.8502 66.3529 40.1321 66.3529 53.8193V64.8792Z" fill="#FFFFF3"/>
</g>
<defs>
<clipPath id="clip0">
<rect width="80" height="80" fill="white"/>
</clipPath>
</defs>
</svg>
