<svg width="100" height="100" viewBox="0 0 100 100" fill="none" xmlns="http://www.w3.org/2000/svg">
<path d="M87.5 54.6875L46.875 20.8334L6.25 54.6875L46.875 79.6875L87.5 54.6875Z" fill="#C1D7E6"/>
<path d="M78.125 20.3125H93.75V12.5C93.75 10.428 92.9269 8.44086 91.4618 6.97573C89.9966 5.5106 88.0095 4.6875 85.9375 4.6875H78.125V20.3125Z" fill="#F5C9AA"/>
<path d="M15.625 60.457V12.5C15.6251 10.428 16.4482 8.44094 17.9133 6.97583C19.3784 5.51072 21.3655 4.68759 23.4375 4.6875H85.9375C83.8655 4.68759 81.8784 5.51072 80.4133 6.97583C78.9482 8.44094 78.1251 10.428 78.125 12.5V60.457L46.875 79.6875L15.625 60.457Z" fill="#FFD9B5"/>
<path d="M35.9375 28.125C34.2805 28.1231 32.6919 27.464 31.5202 26.2923C30.3485 25.1206 29.6894 23.532 29.6875 21.875V20.3125C29.6875 19.8981 29.8521 19.5007 30.1452 19.2077C30.4382 18.9146 30.8356 18.75 31.25 18.75H40.625C41.0394 18.75 41.4368 18.9146 41.7298 19.2077C42.0229 19.5007 42.1875 19.8981 42.1875 20.3125V21.875C42.1856 23.532 41.5265 25.1206 40.3548 26.2923C39.1831 27.464 37.5945 28.1231 35.9375 28.125Z" fill="#FAB53F"/>
<path d="M57.8125 28.125C56.1555 28.1231 54.5669 27.464 53.3952 26.2923C52.2235 25.1206 51.5644 23.532 51.5625 21.875V20.3125C51.5625 19.8981 51.7271 19.5007 52.0202 19.2077C52.3132 18.9146 52.7106 18.75 53.125 18.75H62.5C62.9144 18.75 63.3118 18.9146 63.6048 19.2077C63.8979 19.5007 64.0625 19.8981 64.0625 20.3125V21.875C64.0606 23.532 63.4015 25.1206 62.2298 26.2923C61.0581 27.464 59.4695 28.1231 57.8125 28.125Z" fill="#FAB53F"/>
<path d="M87.5 54.6875L46.875 79.6875L6.25 54.6875V95.3125H87.5V54.6875Z" fill="#D4E4F0"/>
<path d="M35.9375 28.125C37.5945 28.1231 39.1831 27.464 40.3548 26.2923C41.5265 25.1206 42.1856 23.532 42.1875 21.875V20.3125C42.1874 20.0294 42.11 19.7516 41.9635 19.5094L41.9649 19.5085L37.8922 12.7206C38.0261 12.6087 38.1563 12.491 38.2812 12.3661C38.5514 12.0958 38.8765 11.8867 39.2346 11.7531C39.5926 11.6194 39.9752 11.5642 40.3564 11.5913C40.7376 11.6184 41.1085 11.7271 41.4441 11.91C41.7796 12.0929 42.0719 12.3458 42.3012 12.6516L44.0624 14.9999C44.208 15.194 44.3967 15.3515 44.6137 15.46C44.8307 15.5685 45.0699 15.625 45.3125 15.625V26.7197C43.5492 27.0822 41.9648 28.0415 40.8263 29.436C39.6878 30.8304 39.0649 32.5748 39.0625 34.375C39.0625 34.7894 39.2271 35.1868 39.5202 35.4798C39.8132 35.7728 40.2106 35.9374 40.625 35.9375H53.125C53.5394 35.9374 53.9368 35.7728 54.2298 35.4798C54.5229 35.1868 54.6875 34.7894 54.6875 34.375C54.6851 32.5748 54.0622 30.8304 52.9237 29.436C51.7852 28.0415 50.2008 27.0822 48.4375 26.7197V15.625C48.6801 15.625 48.9193 15.5685 49.1363 15.46C49.3533 15.3515 49.542 15.194 49.6876 14.9999L51.4488 12.6516C51.6781 12.3458 51.9704 12.0929 52.3059 11.91C52.6415 11.7271 53.0124 11.6184 53.3936 11.5913C53.7748 11.5642 54.1574 11.6194 54.5154 11.7531C54.8734 11.8867 55.1986 12.0958 55.4688 12.3661C55.5937 12.491 55.7239 12.6087 55.8578 12.7206L51.7851 19.5085L51.7865 19.5094C51.64 19.7517 51.5626 20.0294 51.5625 20.3125V21.875C51.5625 23.5326 52.221 25.1223 53.3931 26.2944C54.5652 27.4665 56.1549 28.125 57.8125 28.125C59.4701 28.125 61.0598 27.4665 62.2319 26.2944C63.404 25.1223 64.0625 23.5326 64.0625 21.875V20.3125C64.0624 20.0294 63.9849 19.7517 63.8385 19.5094L63.8399 19.5085L60.5722 14.0625H62.5V10.9375H59.5646C59.2142 10.9384 58.8671 10.8699 58.5433 10.7358C58.2196 10.6017 57.9257 10.4047 57.6786 10.1562C57.0918 9.56941 56.3857 9.11555 55.6082 8.82537C54.8306 8.53518 53.9999 8.41546 53.172 8.47429C52.3442 8.53313 51.5387 8.76915 50.8101 9.16638C50.0814 9.56361 49.4466 10.1128 48.9487 10.7767L48.4375 11.4583V9.37497H45.3125V11.4583L44.8013 10.7767C44.3034 10.1128 43.6686 9.56361 42.9399 9.16638C42.2113 8.76915 41.4058 8.53313 40.578 8.47429C39.7501 8.41546 38.9194 8.53518 38.1418 8.82537C37.3643 9.11555 36.6582 9.56941 36.0714 10.1562C35.8243 10.4047 35.5304 10.6017 35.2067 10.7358C34.8829 10.8699 34.5358 10.9384 34.1854 10.9375H31.25V14.0625H33.1777L29.9101 19.5085L29.9115 19.5094C29.765 19.7516 29.6876 20.0294 29.6875 20.3125V21.875C29.6894 23.532 30.3485 25.1206 31.5202 26.2923C32.6919 27.464 34.2805 28.1231 35.9375 28.125ZM51.2947 32.8125H42.4553C42.7785 31.8985 43.377 31.1073 44.1686 30.5476C44.9601 29.988 45.9056 29.6875 46.875 29.6875C47.8444 29.6875 48.7899 29.988 49.5814 30.5476C50.373 31.1073 50.9715 31.8985 51.2947 32.8125ZM57.8125 15.5368L59.7403 18.75H55.8847L57.8125 15.5368ZM57.8125 25C56.984 24.999 56.1897 24.6695 55.6038 24.0836C55.018 23.4978 54.6884 22.7035 54.6875 21.875H60.9375C60.9366 22.7035 60.607 23.4978 60.0212 24.0836C59.4353 24.6695 58.641 24.999 57.8125 25ZM35.9375 25C35.109 24.999 34.3147 24.6695 33.7288 24.0836C33.143 23.4978 32.8134 22.7035 32.8125 21.875H39.0625C39.0616 22.7035 38.732 23.4978 38.1462 24.0836C37.5603 24.6695 36.766 24.999 35.9375 25ZM34.0097 18.75L35.9375 15.5368L37.8653 18.75H34.0097Z" fill="black"/>
<path d="M21.875 51.5625H39.0625V54.6875H21.875V51.5625Z" fill="black"/>
<path d="M21.875 57.8125H42.1875V60.9375H21.875V57.8125Z" fill="black"/>
<path d="M45.3125 57.8125H53.125V60.9375H45.3125V57.8125Z" fill="black"/>
<path d="M56.25 57.8125H73.4375V60.9375H56.25V57.8125Z" fill="black"/>
<path d="M39.0625 64.0625H50V67.1875H39.0625V64.0625Z" fill="black"/>
<path d="M21.875 45.3125H42.1875V48.4375H21.875V45.3125Z" fill="black"/>
<path d="M45.3125 45.3125H73.4375V48.4375H45.3125V45.3125Z" fill="black"/>
<path d="M42.1875 51.5625H62.5V54.6875H42.1875V51.5625Z" fill="black"/>
<path d="M65.625 51.5625H73.4375V54.6875H65.625V51.5625Z" fill="black"/>
<path d="M21.875 32.8125H34.375V35.9375H21.875V32.8125Z" fill="black"/>
<path d="M21.875 39.0625H34.375V42.1875H21.875V39.0625Z" fill="black"/>
<path d="M85.9375 3.125H23.4375C20.952 3.12784 18.5691 4.11648 16.8115 5.87401C15.054 7.63155 14.0653 10.0145 14.0625 12.5V46.1433L5.24979 53.4872L5.25179 53.4896C5.07563 53.6357 4.93376 53.8187 4.83624 54.0257C4.73872 54.2327 4.68794 54.4587 4.6875 54.6875V95.3125C4.68752 95.7269 4.85215 96.1243 5.14517 96.4173C5.43819 96.7104 5.83561 96.875 6.25 96.875H87.5C87.9144 96.875 88.3118 96.7104 88.6048 96.4173C88.8979 96.1243 89.0625 95.7269 89.0625 95.3125V54.6875C89.0621 54.4587 89.0113 54.2327 88.9138 54.0257C88.8163 53.8187 88.6744 53.6356 88.4982 53.4896L88.5002 53.4872L79.6875 46.1433V21.875H93.75C94.1644 21.875 94.5618 21.7104 94.8548 21.4173C95.1479 21.1243 95.3125 20.7269 95.3125 20.3125V12.5C95.3097 10.0144 94.3211 7.63149 92.5636 5.87394C90.806 4.11639 88.423 3.12778 85.9375 3.125ZM23.4375 6.25H78.9555C77.413 7.9661 76.5605 10.1926 76.5625 12.5V59.5836L69.2842 64.0625H53.125V67.1875H64.2061L59.128 70.3125H45.3125V73.4375H54.0499L47.1507 77.6832L46.8586 77.8427L39.7001 73.4375H42.1875V70.3125H34.622L29.5438 67.1875H35.9375V64.0625H24.4657L17.1875 59.5836V12.5C17.1894 10.843 17.8485 9.25437 19.0202 8.08268C20.1919 6.91098 21.7805 6.2519 23.4375 6.25ZM14.0625 57.6605L8.92029 54.4961L14.0625 50.2109V57.6605ZM85.9375 93.75H7.8125V57.4837L46.0562 81.0183C46.3024 81.1698 46.5859 81.25 46.875 81.25C47.1641 81.25 47.4476 81.1698 47.6938 81.0183L85.9375 57.4837V93.75ZM84.8297 54.4961L79.6875 57.6605V50.2109L84.8297 54.4961ZM92.1875 18.75H79.6875V12.5C79.6875 10.8424 80.346 9.25268 81.5181 8.08058C82.6902 6.90848 84.2799 6.25 85.9375 6.25C87.5951 6.25 89.1848 6.90848 90.3569 8.08058C91.529 9.25268 92.1875 10.8424 92.1875 12.5V18.75Z" fill="black"/>
</svg>
