<svg width="100" height="100" viewBox="0 0 100 100" fill="none" xmlns="http://www.w3.org/2000/svg">
<path d="M32.953 10.9375C32.953 9.2799 33.6115 7.69018 34.7836 6.51808C35.9557 5.34598 37.5454 4.6875 39.203 4.6875H45.453V17.1875H32.953V10.9375Z" fill="#4384C3"/>
<path d="M51.8417 95.3125H17.1893C15.4342 95.3133 13.6986 94.9443 12.0956 94.2296C10.4926 93.5149 9.05809 92.4705 7.88562 91.1644C6.71315 89.8584 5.82898 88.32 5.29072 86.6494C4.75246 84.9788 4.57217 83.2136 4.76161 81.4687L7.60146 55.2129C8.16559 49.992 10.2898 45.0622 13.6972 41.0664C17.1045 37.0707 21.6368 34.1943 26.703 32.8125C31.7675 31.7811 36.9861 31.763 42.0576 32.7594L42.328 32.8125C42.4745 32.8516 42.621 32.8926 42.7655 32.9355C47.7326 34.3838 52.1579 37.274 55.4805 41.2399C58.8032 45.2059 60.8737 50.069 61.4296 55.2129L64.2694 81.4687C64.458 83.2135 64.2772 84.9784 63.7386 86.6486C63.2 88.3188 62.3158 89.8569 61.1435 91.1627C59.9712 92.4686 58.5371 93.513 56.9344 94.228C55.3318 94.943 53.5966 95.3125 51.8417 95.3125Z" fill="#529DDF"/>
<path d="M43.75 23.4375C43.7506 23.848 43.6701 24.2546 43.5132 24.634C43.3564 25.0134 43.1262 25.3581 42.8359 25.6484C42.5456 25.9387 42.2009 26.1689 41.8215 26.3257C41.4421 26.4826 41.0355 26.5631 40.625 26.5625H28.125C27.7146 26.5626 27.3082 26.4819 26.929 26.3249C26.5498 26.1679 26.2052 25.9377 25.915 25.6475C25.6248 25.3573 25.3947 25.0127 25.2376 24.6335C25.0806 24.2543 24.9999 23.8479 25 23.4375C25.0006 23.3024 25.009 23.1674 25.0254 23.0332C25.1229 22.2804 25.4914 21.5888 26.0619 21.0881C26.6324 20.5873 27.3659 20.3116 28.125 20.3125H40.625C41.0354 20.3123 41.4419 20.3929 41.8212 20.5499C42.2004 20.7069 42.545 20.9371 42.8352 21.2273C43.1254 21.5175 43.3556 21.8621 43.5126 22.2413C43.6696 22.6206 43.7502 23.0271 43.75 23.4375Z" fill="#68737F"/>
<path d="M43.75 23.4375C43.7506 23.848 43.6701 24.2546 43.5132 24.634C43.3564 25.0134 43.1262 25.3581 42.8359 25.6484C42.5456 25.9387 42.2009 26.1689 41.8215 26.3257C41.4421 26.4826 41.0355 26.5631 40.625 26.5625H28.125C27.7146 26.5626 27.3082 26.4819 26.929 26.3249C26.5498 26.1678 26.2052 25.9377 25.915 25.6475C25.6248 25.3573 25.3947 25.0127 25.2376 24.6335C25.0806 24.2543 24.9999 23.8479 25 23.4375C25.0006 23.3024 25.009 23.1674 25.0254 23.0332C25.4938 23.2995 26.0237 23.4389 26.5625 23.4375H39.0625C39.8219 23.4389 40.5556 23.1631 41.126 22.6617C41.6964 22.1604 42.0641 21.4681 42.1602 20.7148C42.6429 20.9868 43.0446 21.3823 43.3239 21.8608C43.6033 22.3392 43.7504 22.8834 43.75 23.4375Z" fill="#4F5761"/>
<path d="M43.75 29.6875C43.7506 30.098 43.6701 30.5047 43.5132 30.884C43.3564 31.2634 43.1262 31.6082 42.8359 31.8984C42.5456 32.1887 42.2009 32.4189 41.8215 32.5758C41.4421 32.7326 41.0355 32.8131 40.625 32.8125H28.125C27.7146 32.8126 27.3082 32.7319 26.929 32.5749C26.5498 32.4179 26.2052 32.1877 25.915 31.8975C25.6248 31.6073 25.3947 31.2627 25.2376 30.8835C25.0806 30.5043 24.9999 30.0979 25 29.6875C25.0006 29.5524 25.009 29.4174 25.0254 29.2832C25.1229 28.5304 25.4914 27.8388 26.0619 27.3381C26.6324 26.8373 27.3659 26.5616 28.125 26.5625H40.625C41.0354 26.5623 41.4419 26.6429 41.8212 26.7999C42.2004 26.9569 42.545 27.1871 42.8352 27.4773C43.1254 27.7675 43.3556 28.1121 43.5126 28.4913C43.6696 28.8706 43.7502 29.2771 43.75 29.6875Z" fill="#68737F"/>
<path d="M43.75 29.6875C43.7506 30.098 43.6701 30.5046 43.5132 30.884C43.3564 31.2634 43.1262 31.6081 42.8359 31.8984C42.5456 32.1887 42.2009 32.4189 41.8215 32.5757C41.4421 32.7326 41.0355 32.8131 40.625 32.8125H28.125C27.7146 32.8126 27.3082 32.7319 26.929 32.5749C26.5498 32.4178 26.2052 32.1877 25.915 31.8975C25.6248 31.6073 25.3947 31.2627 25.2376 30.8835C25.0806 30.5043 24.9999 30.0979 25 29.6875C25.0006 29.5524 25.009 29.4174 25.0254 29.2832C25.4938 29.5495 26.0237 29.6889 26.5625 29.6875H39.0625C39.8219 29.6889 40.5556 29.4131 41.126 28.9117C41.6964 28.4104 42.0641 27.7181 42.1602 26.9648C42.6429 27.2368 43.0446 27.6323 43.3239 28.1108C43.6033 28.5892 43.7504 29.1334 43.75 29.6875Z" fill="#4F5761"/>
<path d="M48.578 7.8125V14.0625C48.5778 15.72 47.9193 17.3096 46.7472 18.4817C45.5752 19.6537 43.9856 20.3123 42.328 20.3125H26.703C25.0455 20.3123 23.4559 19.6537 22.2838 18.4817C21.1118 17.3096 20.4532 15.72 20.453 14.0625V10.9375C20.453 9.2799 21.1115 7.69018 22.2836 6.51808C23.4557 5.34598 25.0454 4.6875 26.703 4.6875C28.3606 4.6875 29.9503 5.34598 31.1225 6.51808C32.2946 7.69018 32.953 9.2799 32.953 10.9375C32.953 12.1807 33.4469 13.373 34.326 14.2521C35.205 15.1311 36.3973 15.625 37.6405 15.625C38.8837 15.625 40.076 15.1311 40.9551 14.2521C41.8342 13.373 42.328 12.1807 42.328 10.9375V7.8125C42.328 6.9837 42.6573 6.18884 43.2433 5.60279C43.8294 5.01674 44.6242 4.6875 45.453 4.6875C46.2818 4.6875 47.0767 5.01674 47.6627 5.60279C48.2488 6.18884 48.578 6.9837 48.578 7.8125Z" fill="#529DDF"/>
<path d="M51.8417 95.3125H17.1893C14.9943 95.3147 12.8375 94.738 10.9365 93.6407C9.03542 92.5434 7.45728 90.9643 6.36122 89.0625H14.6327C34.8358 89.0625 50.8456 72.6231 50.8456 52.9141C50.8461 51.5941 50.775 50.2751 50.6327 48.9629C50.0695 43.7417 47.9451 38.8117 44.537 34.8164C43.9784 34.1601 43.3879 33.5332 42.7655 32.9355C47.7326 34.3838 52.1579 37.274 55.4805 41.2399C58.8032 45.2059 60.8737 50.069 61.4296 55.2129L64.2694 81.4688C64.458 83.2135 64.2772 84.9784 63.7386 86.6486C63.2 88.3188 62.3158 89.8569 61.1435 91.1627C59.9712 92.4686 58.5371 93.513 56.9344 94.228C55.3318 94.943 53.5966 95.3125 51.8417 95.3125Z" fill="#4384C3"/>
<path d="M39.0625 87.5H54.6875V95.3125H39.0625V87.5Z" fill="#F0E168"/>
<path d="M39.0625 79.6875H54.6875V87.5H39.0625V79.6875Z" fill="#F0E168"/>
<path d="M54.6875 87.5H70.3125V95.3125H54.6875V87.5Z" fill="#F0E168"/>
<path d="M45.3125 71.875H60.9375V79.6875H45.3125V71.875Z" fill="#F0E168"/>
<path d="M54.6875 79.6875H70.3125V87.5H54.6875V79.6875Z" fill="#F0E168"/>
<path d="M4.6875 79.6875H39.0625V95.3125H4.6875V79.6875Z" fill="#7AB355"/>
<path d="M17.1875 79.6875H26.5625V95.3125H17.1875V79.6875Z" fill="#F0E168"/>
<path d="M10.9375 64.0625H45.3125V79.6875H10.9375V64.0625Z" fill="#7AB355"/>
<path d="M23.4375 64.0625H32.8125V79.6875H23.4375V64.0625Z" fill="#F0E168"/>
<path d="M75.7663 66.408L80.453 61.7212L86.7021 67.9703L82.0153 72.657L75.7663 66.408Z" fill="#4F5761"/>
<path d="M64.0625 73.4375C77.0067 73.4375 87.5 62.9442 87.5 50C87.5 37.0558 77.0067 26.5625 64.0625 26.5625C51.1183 26.5625 40.625 37.0558 40.625 50C40.625 62.9442 51.1183 73.4375 64.0625 73.4375Z" fill="#68737F"/>
<path d="M64.0625 67.1875C73.5549 67.1875 81.25 59.4924 81.25 50C81.25 40.5076 73.5549 32.8125 64.0625 32.8125C54.5701 32.8125 46.875 40.5076 46.875 50C46.875 59.4924 54.5701 67.1875 64.0625 67.1875Z" fill="#D4E4F0"/>
<path d="M96.875 92.1875L79.6875 75L89.0625 65.625L96.875 73.4375V92.1875Z" fill="#BA8B5D"/>
<path d="M27.3926 18.75C27.4065 18.7678 27.4215 18.7848 27.4375 18.8008C27.6651 18.767 27.8949 18.75 28.125 18.75H27.3926Z" fill="black"/>
<path d="M45.3125 3.125C45.2656 3.125 45.2187 3.125 45.1719 3.12891V3.125H38.9219C37.7279 3.12489 36.5499 3.39883 35.4785 3.92571C34.4071 4.4526 33.471 5.21838 32.7422 6.16406C31.7464 4.87333 30.3716 3.92659 28.8106 3.45659C27.2496 2.98659 25.5807 3.0169 24.0378 3.54326C22.4949 4.06962 21.1554 5.06565 20.2071 6.39169C19.2588 7.71772 18.7493 9.30728 18.75 10.9375V14.0625C18.7516 15.6673 19.2466 17.2328 20.1679 18.5468C21.0892 19.8608 22.3922 20.8597 23.9004 21.4082C23.4984 22.2434 23.3535 23.1793 23.4843 24.097C23.615 25.0146 24.0155 25.8728 24.6348 26.5625C23.9822 27.2887 23.5735 28.2009 23.4659 29.1713C23.3584 30.1416 23.5575 31.1212 24.0352 31.9727C19.156 33.7349 14.8697 36.8319 11.6646 40.911C8.45943 44.9901 6.46424 49.8873 5.90625 55.0449L3.76758 74.832L6.875 75.168L9.01367 55.3809C9.54451 50.4724 11.5418 45.8377 14.7453 42.081C17.9487 38.3243 22.2097 35.6199 26.9727 34.3203L26.9473 34.2246C27.3319 34.3246 27.7276 34.3751 28.125 34.375H40.625C41.5301 34.3756 42.416 34.1139 43.1756 33.6217C43.9352 33.1294 44.5359 32.4277 44.9051 31.6012C45.2743 30.7748 45.3962 29.8592 45.256 28.965C45.1158 28.0708 44.7196 27.2363 44.1152 26.5625C44.7345 25.8728 45.135 25.0146 45.2657 24.097C45.3965 23.1793 45.2516 22.2434 44.8496 21.4082C46.3578 20.8597 47.6608 19.8608 48.5821 18.5468C49.5034 17.2328 49.9984 15.6673 50 14.0625V7.8125C49.9984 6.5698 49.504 5.37848 48.6252 4.49975C47.7465 3.62103 46.5552 3.12665 45.3125 3.125ZM38.9219 6.25H40.8945C40.7151 6.75135 40.6239 7.28001 40.625 7.8125V10.9375C40.625 11.7663 40.2958 12.5612 39.7097 13.1472C39.1237 13.7333 38.3288 14.0625 37.5 14.0625C36.6712 14.0625 35.8763 13.7333 35.2903 13.1472C34.7042 12.5612 34.375 11.7663 34.375 10.9375C34.3752 10.6366 34.3576 10.3359 34.3223 10.0371C34.5325 8.97121 35.1058 8.01118 35.9445 7.32061C36.7832 6.63005 37.8354 6.25168 38.9219 6.25ZM40.625 31.25H28.125C27.7106 31.25 27.3132 31.0854 27.0201 30.7924C26.7271 30.4993 26.5625 30.1019 26.5625 29.6875C26.5625 29.2731 26.7271 28.8757 27.0201 28.5826C27.3132 28.2896 27.7106 28.125 28.125 28.125H40.625C41.0394 28.125 41.4368 28.2896 41.7299 28.5826C42.0229 28.8757 42.1875 29.2731 42.1875 29.6875C42.1875 30.1019 42.0229 30.4993 41.7299 30.7924C41.4368 31.0854 41.0394 31.25 40.625 31.25ZM40.625 25H28.125C27.7106 25 27.3132 24.8354 27.0201 24.5424C26.7271 24.2493 26.5625 23.8519 26.5625 23.4375C26.5625 23.0231 26.7271 22.6257 27.0201 22.3326C27.3132 22.0396 27.7106 21.875 28.125 21.875H40.625C41.0394 21.875 41.4368 22.0396 41.7299 22.3326C42.0229 22.6257 42.1875 23.0231 42.1875 23.4375C42.1875 23.8519 42.0229 24.2493 41.7299 24.5424C41.4368 24.8354 41.0394 25 40.625 25ZM46.875 14.0625C46.8734 15.3052 46.379 16.4965 45.5002 17.3752C44.6215 18.254 43.4302 18.7484 42.1875 18.75H34.375C32.7179 18.7485 31.129 18.0895 29.9573 16.9177C28.7855 15.746 28.1265 14.1571 28.125 12.5V10.9375H25V12.5C24.9969 14.8076 25.8493 17.0344 27.3926 18.75H28.125C27.8949 18.75 27.6651 18.767 27.4375 18.8008C27.4215 18.7848 27.4065 18.7678 27.3926 18.75H26.5625C25.3198 18.7484 24.1285 18.254 23.2498 17.3752C22.371 16.4965 21.8766 15.3052 21.875 14.0625V10.9375C21.8749 9.77263 22.3086 8.64947 23.0915 7.78692C23.8744 6.92438 24.9504 6.38427 26.1099 6.27186C27.2693 6.15945 28.429 6.48281 29.3631 7.17889C30.2971 7.87498 30.9384 8.89392 31.1621 10.0371C31.2212 10.3336 31.2506 10.6352 31.25 10.9375C31.25 12.5951 31.9085 14.1848 33.0806 15.3569C34.2527 16.529 35.8424 17.1875 37.5 17.1875C39.1576 17.1875 40.7473 16.529 41.9194 15.3569C43.0915 14.1848 43.75 12.5951 43.75 10.9375V7.8125C43.75 7.3981 43.9146 7.00067 44.2076 6.70765C44.5007 6.41462 44.8981 6.25 45.3125 6.25C45.7269 6.25 46.1243 6.41462 46.4174 6.70765C46.7104 7.00067 46.875 7.3981 46.875 7.8125V14.0625Z" fill="black"/>
<path d="M31.25 10.9375H31.1094C31.1091 10.6366 31.1267 10.3359 31.1621 10.0371C31.2212 10.3336 31.2507 10.6352 31.25 10.9375Z" fill="black"/>
<path d="M28.125 18.75C27.8949 18.75 27.6651 18.767 27.4375 18.8008C27.4215 18.7848 27.4065 18.7678 27.3926 18.75H28.125Z" fill="black"/>
<path d="M70.3125 78.125H46.875V71.875H43.75V78.125H34.375V65.625H39.0625V62.5H10.9375C10.7323 62.4999 10.5291 62.5403 10.3395 62.6188C10.1499 62.6973 9.97762 62.8124 9.83252 62.9575C9.68742 63.1026 9.57232 63.2749 9.49382 63.4645C9.41532 63.6541 9.37494 63.8573 9.375 64.0625V78.125H4.6875C4.48229 78.1249 4.27909 78.1653 4.08949 78.2438C3.89989 78.3223 3.72762 78.4374 3.58252 78.5825C3.43742 78.7276 3.32233 78.8999 3.24382 79.0895C3.16532 79.2791 3.12494 79.4823 3.125 79.6875V95.3125C3.12495 95.5177 3.16532 95.7209 3.24383 95.9105C3.32233 96.1001 3.43742 96.2724 3.58252 96.4175C3.72763 96.5626 3.8999 96.6777 4.08949 96.7562C4.27909 96.8347 4.48229 96.8751 4.6875 96.875H70.3125C70.5177 96.8751 70.7209 96.8347 70.9105 96.7562C71.1001 96.6777 71.2724 96.5626 71.4175 96.4175C71.5626 96.2724 71.6777 96.1001 71.7562 95.9105C71.8347 95.7209 71.8751 95.5177 71.875 95.3125V79.6875C71.8751 79.4823 71.8347 79.2791 71.7562 79.0895C71.6777 78.8999 71.5626 78.7276 71.4175 78.5825C71.2724 78.4374 71.1001 78.3223 70.9105 78.2438C70.7209 78.1653 70.5177 78.1249 70.3125 78.125ZM12.5 65.625H21.875V78.125H12.5V65.625ZM15.625 93.75H6.25V81.25H15.625V93.75ZM25 93.75H18.75V81.25H25V93.75ZM25 65.625H31.25V78.125H25V65.625ZM37.5 93.75H28.125V81.25H37.5V93.75ZM53.125 93.75H40.625V89.0625H53.125V93.75ZM53.125 85.9375H40.625V81.25H53.125V85.9375ZM68.75 93.75H56.25V89.0625H68.75V93.75ZM68.75 85.9375H56.25V81.25H68.75V85.9375Z" fill="black"/>
<path d="M64.0625 68.75C60.3541 68.75 56.729 67.6503 53.6456 65.5901C50.5621 63.5298 48.1589 60.6014 46.7398 57.1753C45.3206 53.7492 44.9493 49.9792 45.6728 46.3421C46.3963 42.7049 48.182 39.364 50.8043 36.7418C53.4265 34.1195 56.7674 32.3338 60.4046 31.6103C64.0417 30.8868 67.8117 31.2581 71.2378 32.6773C74.6639 34.0964 77.5923 36.4996 79.6526 39.5831C81.7128 42.6665 82.8125 46.2916 82.8125 50C82.8069 54.9711 80.8296 59.737 77.3146 63.2521C73.7995 66.7671 69.0336 68.7444 64.0625 68.75ZM64.0625 34.375C60.9722 34.375 57.9512 35.2914 55.3817 37.0083C52.8122 38.7252 50.8095 41.1655 49.6269 44.0206C48.4443 46.8757 48.1348 50.0173 48.7377 53.0483C49.3406 56.0793 50.8288 58.8634 53.014 61.0486C55.1992 63.2337 57.9833 64.7219 61.0142 65.3248C64.0452 65.9277 67.1868 65.6182 70.0419 64.4356C72.897 63.253 75.3373 61.2503 77.0542 58.6808C78.7711 56.1113 79.6875 53.0903 79.6875 50C79.6828 45.8574 78.0351 41.8859 75.1059 38.9566C72.1766 36.0274 68.2051 34.3797 64.0625 34.375Z" fill="black"/>
<path d="M91.7304 74.5429L89.5195 72.332L84.375 77.4765L81.8965 74.9999L89.0625 67.8339L94.207 72.9804L96.4179 70.7695L90.1679 64.5195C89.8745 64.2268 89.4769 64.0624 89.0625 64.0624C88.648 64.0624 88.2505 64.2268 87.957 64.5195L86.7187 65.7577L84.8437 63.8827C88.2955 58.7183 89.7029 52.4546 88.7921 46.31C87.8813 40.1655 84.7174 34.5793 79.916 30.6383C75.1145 26.6973 69.0188 24.6832 62.8145 24.9878C56.6103 25.2923 50.7411 27.8938 46.3488 32.2862C41.9564 36.6785 39.3549 42.5477 39.0504 48.7519C38.7458 54.9562 40.7599 61.0519 44.7009 65.8534C48.6419 70.6548 54.2281 73.8187 60.3726 74.7295C66.5172 75.6403 72.7809 74.2329 77.9453 70.7811L79.8203 72.6562L78.582 73.8945C78.2894 74.1879 78.125 74.5854 78.125 74.9999C78.125 75.4144 78.2894 75.8119 78.582 76.1054L94.207 91.7304L96.4179 89.5194L86.5859 79.6874L91.7304 74.5429ZM42.1875 49.9999C42.1875 45.6735 43.4704 41.4441 45.8741 37.8468C48.2778 34.2495 51.6942 31.4457 55.6913 29.7901C59.6884 28.1344 64.0868 27.7012 68.3301 28.5452C72.5734 29.3893 76.4712 31.4727 79.5305 34.532C82.5897 37.5912 84.6731 41.489 85.5172 45.7323C86.3612 49.9757 85.928 54.374 84.2724 58.3711C82.6167 62.3683 79.8129 65.7847 76.2156 68.1883C72.6183 70.592 68.389 71.8749 64.0625 71.8749C58.2628 71.8686 52.7025 69.5618 48.6016 65.4609C44.5006 61.3599 42.1939 55.7996 42.1875 49.9999ZM80.4511 68.8652C81.3323 68.0972 82.1598 67.2698 82.9277 66.3886L84.5078 67.9687L82.0312 70.4452L80.4511 68.8652Z" fill="black"/>
</svg>
