<svg width="100" height="100" viewBox="0 0 100 100" fill="none" xmlns="http://www.w3.org/2000/svg">
<path d="M90.625 37.5C90.6208 55.6219 75.9264 70.309 57.8047 70.3045C39.6829 70.3002 24.9958 55.6059 25.0002 37.4842C25.004 21.901 35.9676 8.46974 51.2346 5.34572C68.9772 1.70353 86.3131 13.134 89.9553 30.8766C90.4026 33.0561 90.627 35.2752 90.625 37.5Z" fill="#529DDF"/>
<path d="M56.2501 51.5625L48.4376 64.0625L42.9962 66.7832C26.8237 58.5949 20.3512 38.8465 28.5395 22.6738C33.0641 13.7375 41.4218 7.35625 51.2344 5.3457L54.6876 9.375L45.3126 28.125H37.5001V34.375H43.7501L50.0001 37.5V42.1875L56.2501 51.5625Z" fill="#7AB355"/>
<path d="M88.6914 26.377L79.6875 21.875L75 17.1875L60.9375 18.75V9.375L68.2227 6.375C77.7402 9.56953 85.2781 16.9355 88.6914 26.377Z" fill="#7AB355"/>
<path d="M83.2404 58.2402C76.1398 66.9391 65.0865 71.4064 53.9357 70.084L54.6876 64.0625L60.9376 60.9375L65.6251 54.6875L68.7501 57.8125L79.6876 54.6875L83.2404 58.2402Z" fill="#7AB355"/>
<path d="M37.5 89.0625H28.125L29.6875 56.25H35.9375L37.5 89.0625Z" fill="#BA8B5D"/>
<path d="M6.25 67.1875H21.875V68.75C21.875 73.0646 18.3771 76.5625 14.0625 76.5625C9.74785 76.5625 6.25 73.0646 6.25 68.75V67.1875Z" fill="#FAB53F"/>
<path d="M45.3125 67.1875H60.9375V68.75C60.9375 73.0646 57.4396 76.5625 53.125 76.5625C48.8104 76.5625 45.3125 73.0646 45.3125 68.75V67.1875Z" fill="#FAB53F"/>
<path d="M28.125 89.0625H37.5C40.9518 89.0625 43.75 91.8607 43.75 95.3125H21.875C21.875 91.8607 24.6732 89.0625 28.125 89.0625Z" fill="#9F764A"/>
<path d="M60.9375 53.125C60.9375 51.399 59.5385 50 57.8125 50C54.7561 50 51.768 49.0953 49.2248 47.3998C45.9643 45.2261 41.6721 45.4125 38.6121 47.8603L35.9375 50H29.6875L27.0131 47.8603C23.9531 45.4125 19.6607 45.2261 16.4004 47.3998C13.857 49.0953 10.8689 50 7.8125 50C6.08652 50 4.6875 51.399 4.6875 53.125C4.6875 54.8509 6.08652 56.25 7.8125 56.25C10.8689 56.25 13.857 55.3453 16.4002 53.6498C19.6607 51.4761 23.9529 51.6623 27.0129 54.1103L29.6875 56.25H35.9375L38.6119 54.1103C41.6719 51.6623 45.9643 51.4761 49.2246 53.6498C51.768 55.3453 54.7561 56.25 57.8125 56.25C59.5385 56.25 60.9375 54.8509 60.9375 53.125Z" fill="#9F764A"/>
<path d="M29.6875 50L31.25 40.625H34.375L35.9375 50H29.6875Z" fill="#BA8B5D"/>
<path d="M32.8125 43.75C35.4013 43.75 37.5 41.6513 37.5 39.0625C37.5 36.4737 35.4013 34.375 32.8125 34.375C30.2237 34.375 28.125 36.4737 28.125 39.0625C28.125 41.6513 30.2237 43.75 32.8125 43.75Z" fill="#9F764A"/>
<path d="M57.8125 3.125C41.3649 3.125 27.1701 14.8289 24.0602 30.9541L27.1287 31.5457C29.4795 19.4721 38.6893 9.89746 50.6625 7.07949L52.826 9.60391L44.3469 26.5625H38.8672C38.0043 26.5625 37.3047 27.2621 37.3047 28.125V34.375C37.3047 35.2379 38.0043 35.9375 38.8672 35.9375H43.3811L48.4375 38.4656V42.1875H51.5625V37.5C51.5625 36.9082 51.2281 36.3672 50.6989 36.1025L44.4489 32.9775C44.2319 32.8689 43.9926 32.8125 43.75 32.8125H40.4297V29.6875H45.3125C45.9043 29.6875 46.4453 29.3531 46.71 28.8238L56.085 10.0738C56.3662 9.51152 56.283 8.83555 55.8738 8.3582L54.2426 6.45469C57.2473 6.10957 60.2862 6.20117 63.2645 6.72695L60.3426 7.93027C59.7571 8.17129 59.375 8.7418 59.375 9.375V18.75C59.375 19.6129 60.0746 20.3125 60.9375 20.3125C60.9951 20.3125 61.0528 20.3094 61.11 20.3029L74.4262 18.8234L78.5826 22.9799C78.7014 23.0986 78.8385 23.1973 78.9887 23.2725L87.4174 27.4867C90.6625 37.0932 89.0492 47.6766 83.0895 55.8797L80.7922 53.5824C80.391 53.1811 79.8037 53.0289 79.2582 53.185L69.2047 56.0574L66.7299 53.5824L64.5203 55.7922L67.6453 58.9172C68.0467 59.3184 68.6338 59.4705 69.1793 59.3146L79.2328 56.4422L81.1127 58.3221C76.9047 63.0219 71.3785 66.3451 65.2543 67.8586L65.9957 70.8943C73.3942 69.0666 79.9807 64.8434 84.7291 58.8826C89.5848 52.8164 92.2168 45.2703 92.1875 37.5C92.1875 18.5455 76.767 3.125 57.8125 3.125ZM80.6131 20.5908L76.1049 16.0826C75.769 15.7477 75.2992 15.5828 74.8276 15.6346L62.5 17.0043V10.4213L68.2613 8.04883C75.6877 10.7039 81.844 16.0545 85.508 23.0383L80.6131 20.5908Z" fill="black"/>
<path d="M62.5 53.125C62.4971 50.5373 60.4002 48.4404 57.8125 48.4375C55.0641 48.4402 52.377 47.6266 50.0916 46.0998C46.2682 43.5369 41.223 43.7557 37.6359 46.6402L37.041 47.1162L36.535 44.0797C39.3078 42.0238 39.8891 38.1096 37.8332 35.3367C35.7773 32.5639 31.8631 31.9826 29.0902 34.0385C26.3174 36.0943 25.7361 40.0086 27.792 42.7814C28.1584 43.2758 28.5959 43.7133 29.0902 44.0797L28.5842 47.1162L27.9893 46.6402C24.4023 43.7557 19.357 43.5367 15.5338 46.0998C13.2482 47.6266 10.5609 48.4402 7.8125 48.4375C5.22363 48.4375 3.125 50.5361 3.125 53.125C3.125 55.7139 5.22363 57.8125 7.8125 57.8125C8.675 57.8123 9.53613 57.7469 10.3889 57.617L4.925 66.3594L4.92637 66.3602C4.77031 66.608 4.6875 66.8947 4.6875 67.1875V68.75C4.6875 73.9277 8.88477 78.125 14.0625 78.125C19.2402 78.125 23.4375 73.9277 23.4375 68.75V67.1875C23.4375 66.8947 23.3547 66.6078 23.1986 66.3602L23.1998 66.3594L16.4035 55.4861C16.6953 55.3156 16.984 55.1385 17.2668 54.95C19.9586 53.1451 23.5113 53.2992 26.0367 55.3305L28.0887 56.9721L26.6281 87.6455C22.9627 88.3658 20.3176 91.5768 20.3125 95.3125C20.3125 96.1754 21.0121 96.875 21.875 96.875H43.75C44.6129 96.875 45.3125 96.1754 45.3125 95.3125C45.3074 91.5768 42.6623 88.3658 38.9967 87.6455L37.5361 56.9721L39.5881 55.3305C42.1137 53.2998 45.666 53.1455 48.358 54.95C49.009 55.3832 49.6889 55.7713 50.3928 56.1117L43.9875 66.3594L43.9887 66.3602C43.8328 66.6078 43.75 66.8947 43.75 67.1875V68.75C43.75 73.9277 47.9473 78.125 53.125 78.125C58.3027 78.125 62.5 73.9277 62.5 68.75V67.1875C62.5 66.8947 62.4172 66.608 62.2613 66.3604L62.2625 66.3596L56.9045 57.7857C57.2063 57.8018 57.5088 57.8125 57.8125 57.8125C60.4002 57.8096 62.4971 55.7127 62.5 53.125ZM32.8125 35.9375C34.5385 35.9375 35.9375 37.3365 35.9375 39.0625C35.9375 40.7885 34.5385 42.1875 32.8125 42.1875C31.0865 42.1875 29.6875 40.7885 29.6875 39.0625C29.6895 37.3375 31.0875 35.9395 32.8125 35.9375ZM32.8125 45.3125C33.0639 45.3119 33.3148 45.2963 33.5645 45.2656L34.0932 48.4375H31.532L32.0607 45.2656C32.3102 45.2963 32.5611 45.3119 32.8125 45.3125ZM14.0623 57.6359L19.0559 65.625H9.06914L14.0623 57.6359ZM14.0625 75C10.6123 74.9961 7.81641 72.2002 7.8125 68.75H20.3125C20.3086 72.2002 17.5127 74.9961 14.0625 75ZM34.4477 57.8125L35.8613 87.5H29.7637L31.1773 57.8125H34.4477ZM41.9197 93.75H23.7053C24.3695 91.8785 26.1391 90.6273 28.125 90.625H37.5C39.4857 90.6273 41.2555 91.8785 41.9197 93.75ZM44.2303 50.5672C41.8318 50.5686 39.5057 51.3881 37.6357 52.8902L35.3895 54.6875H30.2355L27.9891 52.8902C24.4021 50.0055 19.3568 49.7867 15.5336 52.3498C13.2482 53.8766 10.5609 54.6902 7.8125 54.6875C6.94961 54.6875 6.25 53.9879 6.25 53.125C6.25 52.2621 6.94961 51.5625 7.8125 51.5625C11.1779 51.5656 14.4686 50.5693 17.267 48.7C19.959 46.8951 23.5113 47.0492 26.0369 49.0805L28.7113 51.2201C28.9885 51.4418 29.3326 51.5625 29.6875 51.5625H35.9375C36.2924 51.5625 36.6365 51.4418 36.9137 51.2201L39.5881 49.0805C42.1137 47.0498 45.666 46.8955 48.358 48.7C51.1564 50.5693 54.4471 51.5658 57.8125 51.5625C58.6754 51.5625 59.375 52.2621 59.375 53.125C59.375 53.9879 58.6754 54.6875 57.8125 54.6875C55.0641 54.6902 52.377 53.8766 50.0916 52.3498C48.3572 51.1889 46.3174 50.5686 44.2303 50.5672ZM53.1256 57.6354L58.1186 65.625H48.1316L53.1256 57.6354ZM53.125 75C49.6748 74.9961 46.8789 72.2002 46.875 68.75H59.375C59.3711 72.2002 56.5752 74.9961 53.125 75Z" fill="black"/>
</svg>
