<svg width="80" height="80" viewBox="0 0 80 80" fill="none" xmlns="http://www.w3.org/2000/svg">
<path d="M64.8812 0H26.1771C26.1623 0 26.1478 0.00172786 26.1329 0.00224622C26.1186 0.00276458 26.1042 0.00345572 26.0899 0.00431965C26.0344 0.00794816 25.9796 0.0141685 25.9264 0.0247084C25.9256 0.0248812 25.9247 0.0248812 25.924 0.025054C25.8663 0.0364579 25.8105 0.052527 25.7559 0.0713607C25.7462 0.0746436 25.7367 0.0784449 25.727 0.0819006C25.6754 0.10108 25.6251 0.122678 25.5767 0.148078C25.5738 0.149633 25.5707 0.150842 25.5677 0.152397C25.5171 0.179352 25.4692 0.210281 25.4229 0.243456C25.4126 0.250886 25.4025 0.258661 25.3923 0.266436C25.3466 0.301512 25.3022 0.338315 25.2615 0.37892C25.2614 0.379093 25.261 0.379266 25.2609 0.379438L11.438 14.2023C11.4378 14.2025 11.4376 14.2027 11.4374 14.2029C11.3968 14.2436 11.3599 14.2879 11.325 14.3337C11.3172 14.344 11.3094 14.3542 11.3018 14.3646C11.2686 14.4107 11.2379 14.4586 11.2109 14.5089C11.2092 14.5123 11.2076 14.5158 11.2059 14.5192C11.181 14.5669 11.1596 14.6165 11.1406 14.6675C11.1368 14.6777 11.133 14.6877 11.1294 14.6981C11.1107 14.7521 11.0948 14.8074 11.0834 14.8646C11.0831 14.8667 11.0829 14.8689 11.0824 14.871C11.0723 14.923 11.0663 14.9762 11.0625 15.0302C11.0615 15.0454 11.0608 15.0604 11.0603 15.0756C11.0601 15.0901 11.0583 15.1043 11.0583 15.1188V75.9395C11.0583 78.1785 12.8799 80 15.1188 80H64.8812C67.1202 80 68.9417 78.1785 68.9417 75.9395V4.06048C68.9417 1.82151 67.1202 0 64.8812 0ZM24.8812 4.42436V12.3542C24.8812 13.1641 24.2224 13.8229 23.4126 13.8229H15.4827L24.8812 4.42436ZM66.3499 75.9395C66.3499 76.7494 65.6911 77.4082 64.8812 77.4082H15.1188C14.309 77.4082 13.6501 76.7494 13.6501 75.9395V16.4147H23.4126C25.6515 16.4147 27.473 14.5932 27.473 12.3542V2.59179H64.8812C65.6911 2.59179 66.3499 3.25063 66.3499 4.06048V75.9395Z" fill="#361211"/>
<path d="M23.4126 37.149H56.5875C57.3032 37.149 57.8834 36.569 57.8834 35.8531C57.8834 35.1373 57.3032 34.5573 56.5875 34.5573H23.4126C22.6969 34.5573 22.1167 35.1373 22.1167 35.8531C22.1167 36.569 22.6969 37.149 23.4126 37.149Z" fill="#361211"/>
<path d="M23.4126 44.0606H56.5875C57.3032 44.0606 57.8834 43.4805 57.8834 42.7647C57.8834 42.0488 57.3032 41.4688 56.5875 41.4688H23.4126C22.6969 41.4688 22.1167 42.0488 22.1167 42.7647C22.1167 43.4805 22.6969 44.0606 23.4126 44.0606Z" fill="#361211"/>
<path d="M23.4126 50.9719H40.0001C40.7157 50.9719 41.296 50.3919 41.296 49.676C41.296 48.9602 40.7157 48.3801 40.0001 48.3801H23.4126C22.6969 48.3801 22.1167 48.9602 22.1167 49.676C22.1167 50.3919 22.6969 50.9719 23.4126 50.9719Z" fill="#361211"/>
<path d="M41.296 56.5875C41.296 55.8717 40.7157 55.2916 40.0001 55.2916H23.4126C22.6969 55.2916 22.1167 55.8717 22.1167 56.5875C22.1167 57.3034 22.6969 57.8834 23.4126 57.8834H40.0001C40.7157 57.8834 41.296 57.3034 41.296 56.5875Z" fill="#361211"/>
<path d="M46.8251 22.3758C46.8251 21.6599 46.2449 21.0799 45.5292 21.0799C44.8135 21.0799 44.2333 21.6599 44.2333 22.3758C44.2333 24.9021 46.5759 26.9434 49.7624 27.3836V27.5594C49.7624 28.2752 50.3427 28.8553 51.0583 28.8553C51.774 28.8553 52.3542 28.2752 52.3542 27.5594V27.3836C55.5408 26.9432 57.8834 24.9019 57.8834 22.3758C57.8834 19.8496 55.5408 17.8082 52.3542 17.3679V12.4045C53.9152 12.7302 55.2916 13.6136 55.2916 14.7732C55.2916 15.489 55.8718 16.0691 56.5875 16.0691C57.3032 16.0691 57.8834 15.489 57.8834 14.7732C57.8834 12.2469 55.5408 10.2056 52.3542 9.76532V9.5896C52.3542 8.87374 51.774 8.2937 51.0583 8.2937C50.3427 8.2937 49.7624 8.87374 49.7624 9.5896V9.76532C46.5759 10.2058 44.2333 12.247 44.2333 14.7732C44.2333 17.2993 46.5759 19.3408 49.7624 19.781V24.7445C48.2015 24.4188 46.8251 23.5355 46.8251 22.3758ZM55.2916 22.3758C55.2916 23.5355 53.9152 24.4188 52.3542 24.7445V20.007C53.9152 20.3328 55.2916 21.216 55.2916 22.3758ZM46.8251 14.7732C46.8251 13.6134 48.2015 12.7302 49.7624 12.4045V17.1419C48.2015 16.8162 46.8251 15.9329 46.8251 14.7732Z" fill="#361211"/>
<path d="M59.1378 55.3759C58.5146 55.024 57.7241 55.2436 57.3721 55.8668L54.7074 60.5834L54.3423 60.3024C54.0346 60.0655 53.6368 59.9788 53.2587 60.0669C52.8805 60.1547 52.5616 60.4073 52.3896 60.7553L51.0435 63.481L50.6108 62.9849C49.976 62.2572 49.0317 61.9316 48.0829 62.1162C47.1349 62.2998 46.3796 62.9543 46.0627 63.8665L44.5759 68.1457L41.0383 63.6773C40.8183 63.3994 40.4942 63.2237 40.1412 63.1912C39.789 63.16 39.4376 63.2721 39.1705 63.505L35.4144 66.781C34.875 67.2515 34.8192 68.0702 35.2895 68.6095C35.7602 69.1489 36.5785 69.2044 37.1179 68.7344L39.8497 66.3517L43.2276 70.6185C43.6083 71.099 44.1842 71.372 44.7851 71.372C44.8954 71.372 45.0065 71.3626 45.1172 71.344C45.8324 71.2229 46.4245 70.7219 46.6625 70.037L48.5108 64.7175C48.5173 64.6986 48.5272 64.6705 48.5761 64.6608C48.6244 64.6513 48.6445 64.6737 48.6575 64.6888L50.3677 66.6499C50.6524 66.9765 51.082 67.1392 51.5114 67.0832C51.9411 67.0274 52.3145 66.7605 52.5063 66.3721L54.0133 63.3208L54.3096 63.5489C54.6073 63.7782 54.9897 63.8661 55.3579 63.7922C55.7261 63.7174 56.0437 63.4865 56.2286 63.1596L59.6283 57.1422C59.9806 56.5188 59.7609 55.7281 59.1378 55.3759Z" fill="#361211"/>
</svg>
