<svg xmlns="http://www.w3.org/2000/svg" xmlns:xlink="http://www.w3.org/1999/xlink"><symbol id="services-icon-1"><path d="M7.813 35.938H25v4.687H7.812v-4.687z" fill="#9F764A"/><path d="M43.79 45.313a3.867 3.867 0 003.866-3.867 3.867 3.867 0 00-1.132-2.735L31.25 23.438l-5.469 5.468L41.055 44.18a3.867 3.867 0 002.734 1.133z" fill="#BA8B5D"/><path d="M24.214 24.22l2.343-2.344L29.682 25l-2.344 2.344-3.124-3.125z" fill="#9F764A"/><path d="M8.591 17.969L20.308 6.252l10.936 10.936-11.717 11.717L8.591 17.969z" fill="#BA8B5D"/><path d="M6.897 17.188a2.21 2.21 0 00-1.562 3.772L16.54 32.165a2.209 2.209 0 103.125-3.125L8.46 17.835a2.21 2.21 0 00-1.563-.647zM21.741 2.344a2.21 2.21 0 00-1.563 3.772l11.206 11.206a2.209 2.209 0 103.125-3.125L23.303 2.99a2.21 2.21 0 00-1.562-.647z" fill="#BA8B5D"/><path d="M5.469 21.094a3.436 3.436 0 00.43 4.335l6.172 6.173a3.436 3.436 0 004.335.43L5.47 21.093zM34.375 14.063a3.437 3.437 0 00-.43-4.336l-6.172-6.173a3.436 3.436 0 00-4.335-.429l10.937 10.938z" fill="#9F764A"/><path d="M8.59 17.969l2.344-2.344L21.87 26.561l-2.343 2.343L8.59 17.97zM17.966 8.596l2.343-2.344 10.936 10.936-2.344 2.343L17.966 8.596zM28.348 31.477l5.468-5.468 1.104 1.105-5.468 5.468-1.104-1.105zM39.283 42.414l5.468-5.468 1.105 1.105-5.468 5.468-1.105-1.105z" fill="#FDCA77"/><path d="M25.781 39.844v-3.907a.781.781 0 00-.781-.78H7.812a.782.782 0 00-.78.78v3.907a5.475 5.475 0 00-5.47 5.468.781.781 0 00.782.782h28.125a.781.781 0 00.781-.782 5.475 5.475 0 00-5.469-5.468zM8.594 36.719h15.625v3.125H8.594v-3.125zm-5.39 7.812a3.913 3.913 0 013.827-3.125h18.75a3.913 3.913 0 013.828 3.125H3.203z" fill="#000"/><path d="M47.076 38.159L31.802 22.885a.782.782 0 00-1.104 0l-1.01 1.01-2.02-2.02 3.623-3.624a2.991 2.991 0 004.04-4.298 4.23 4.23 0 00-.833-4.779l-6.172-6.172a4.23 4.23 0 00-4.779-.832 2.991 2.991 0 00-4.298 4.039L8.553 16.905a2.991 2.991 0 00-4.04 4.298 4.23 4.23 0 00.833 4.779l6.172 6.172a4.232 4.232 0 004.78.833 2.991 2.991 0 004.297-4.04l3.624-3.623 2.02 2.02-1.01 1.01a.78.78 0 000 1.105l15.273 15.273a4.648 4.648 0 006.574-6.573zM27.221 4.107l6.172 6.172a2.66 2.66 0 01.72 2.416l-9.308-9.307a2.66 2.66 0 012.416.719zm-5.48-.982a1.42 1.42 0 011.01.418L33.957 14.75a1.428 1.428 0 01-2.02 2.02L20.73 5.563a1.428 1.428 0 011.01-2.438zm-9.118 27.924l-6.172-6.172a2.66 2.66 0 01-.72-2.416l9.308 9.308a2.66 2.66 0 01-2.416-.72zm5.48.982a1.418 1.418 0 01-1.01-.418L5.887 20.407a1.429 1.429 0 012.02-2.02l11.206 11.206a1.428 1.428 0 01-1.01 2.438zm3.772-6.573l-8.823-8.823-1.104 1.105 8.822 8.823-1.239 1.238L9.7 17.97 20.313 7.355l9.832 9.832-1.19 1.19-8.822-8.822-1.105 1.105 8.822 8.822-5.975 5.976zm3.449-1.24l1.238-1.238 2.02 2.02-1.238 1.239-2.02-2.02zm18.465 20.313a3.066 3.066 0 01-2.182-.904l-.658-.658 3.353-3.354-1.104-1.105-3.354 3.354-9.833-9.833 3.354-3.354-1.105-1.104-3.354 3.353-2.02-2.02 4.364-4.364 14.721 14.722a3.085 3.085 0 01-2.182 5.267z" fill="#000"/></symbol></svg>