<svg width="30" height="25" viewBox="0 0 30 25" fill="none" xmlns="http://www.w3.org/2000/svg">
<path d="M30 2.95962C28.8844 3.46154 27.6956 3.79423 26.4562 3.95577C27.7312 3.175 28.7044 1.94808 29.1619 0.469231C27.9731 1.19615 26.6606 1.70962 25.2619 1.99615C24.1331 0.763462 22.5244 0 20.7694 0C17.3644 0 14.6231 2.83462 14.6231 6.30962C14.6231 6.80962 14.6644 7.29038 14.7656 7.74808C9.6525 7.49231 5.12813 4.97885 2.08875 1.15C1.55812 2.09423 1.24688 3.175 1.24688 4.33846C1.24688 6.52308 2.34375 8.45961 3.97875 9.58077C2.99062 9.56154 2.02125 9.26731 1.2 8.80385C1.2 8.82308 1.2 8.84808 1.2 8.87308C1.2 11.9385 3.33187 14.4846 6.1275 15.0712C5.62687 15.2115 5.08125 15.2788 4.515 15.2788C4.12125 15.2788 3.72375 15.2558 3.35062 15.1712C4.1475 17.6692 6.40875 19.5058 9.0975 19.5654C7.005 21.2442 4.34812 22.2558 1.47188 22.2558C0.9675 22.2558 0.48375 22.2327 0 22.1692C2.72438 23.9712 5.95312 25 9.435 25C20.7525 25 26.94 15.3846 26.94 7.05C26.94 6.77115 26.9306 6.50192 26.9175 6.23462C28.1381 5.34615 29.1637 4.23654 30 2.95962Z" fill="#FFFFF3"/>
</svg>
