<svg width="45" height="25" viewBox="0 0 45 25" fill="none" xmlns="http://www.w3.org/2000/svg">
<path d="M44.5989 22.2984C44.478 22.1012 43.7298 20.5183 40.1295 17.2648C36.3605 13.8579 36.8668 14.4111 41.4065 8.52021C44.1714 4.93256 45.2768 2.74163 44.9308 1.80501C44.6017 0.912207 42.5681 1.14773 42.5681 1.14773L35.8064 1.18607C35.8064 1.18607 35.3057 1.12035 34.9316 1.3367C34.5688 1.55032 34.3353 2.04327 34.3353 2.04327C34.3353 2.04327 33.2637 4.82028 31.8348 7.18101C28.8224 12.1626 27.6158 12.4255 27.1236 12.1161C25.9788 11.3958 26.2657 9.21857 26.2657 7.67397C26.2657 2.8457 27.0167 0.832785 24.8003 0.31244C24.0633 0.139904 23.5233 0.02488 21.6416 0.00570932C19.2283 -0.0189386 17.1835 0.0139253 16.0274 0.564397C15.2567 0.931377 14.6633 1.75024 15.0261 1.7968C15.4733 1.85431 16.4859 2.06245 17.0231 2.7745C17.7179 3.69195 17.6926 5.7569 17.6926 5.7569C17.6926 5.7569 18.092 11.4396 16.7615 12.1462C15.8474 12.6309 14.5958 11.6423 11.9096 7.12076C10.5342 4.80659 9.49351 2.24594 9.49351 2.24594C9.49351 2.24594 9.29381 1.76941 8.9366 1.51471C8.50344 1.20524 7.8959 1.10665 7.8959 1.10665L1.46605 1.14499C1.46605 1.14499 0.50129 1.17238 0.146889 1.58044C-0.168134 1.94468 0.121574 2.69508 0.121574 2.69508C0.121574 2.69508 5.15632 14.1619 10.8549 19.9432C16.0837 25.2425 22.0185 24.8947 22.0185 24.8947H24.7074C24.7074 24.8947 25.5203 24.807 25.9338 24.3716C26.3163 23.9718 26.3022 23.2214 26.3022 23.2214C26.3022 23.2214 26.2488 19.7077 27.9252 19.19C29.5762 18.6807 31.697 22.586 33.9444 24.0895C35.6432 25.2261 36.9343 24.9768 36.9343 24.9768L42.945 24.8947C42.945 24.8947 46.0896 24.7057 44.5989 22.2984Z" fill="#FFFFF3"/>
</svg>
